<svg width="36" height="36" viewBox="0 0 36 36" fill="none" xmlns="http://www.w3.org/2000/svg">
<g clip-path="url(#clip0_74_2568)">
<path d="M34.1483 13.8259L31.0514 13.5274C30.7228 12.2089 30.1922 10.949 29.4789 9.79226L31.453 7.40919C31.6469 7.17536 31.6308 6.83266 31.4162 6.61808L28.0665 3.26811C27.8519 3.05353 27.5092 3.03773 27.2754 3.23134L24.8906 5.20594C23.7318 4.49785 22.4733 3.96758 21.1571 3.63292L20.8584 0.53171C20.8294 0.230092 20.5757 0 20.2727 0H15.6947C15.3916 0 15.1383 0.230092 15.1093 0.53171L14.8102 3.63292C13.494 3.96729 12.2356 4.49785 11.0768 5.20594L8.69197 3.23076C8.45843 3.03715 8.11573 3.05295 7.90087 3.26753L4.55118 6.6178C4.3366 6.83266 4.32051 7.17536 4.51441 7.40919L6.48785 9.79197C5.77402 10.9488 5.24318 12.2089 4.91427 13.5277L1.81909 13.8265C1.51804 13.8558 1.2891 14.1094 1.29054 14.4119V19.1608C1.28881 19.463 1.51776 19.7169 1.8188 19.7462L4.91772 20.045C5.25179 21.3609 5.78178 22.6197 6.48958 23.7785L4.51412 26.163C4.31161 26.4074 4.33947 26.7685 4.57732 26.9791L7.11809 29.2263C7.24362 29.3374 7.41081 29.3897 7.5777 29.3699C7.74431 29.3498 7.89455 29.2596 7.99049 29.122L11.6421 23.8824C11.805 23.6486 11.7768 23.3315 11.5752 23.1298C8.07178 19.6265 8.0715 13.946 11.5752 10.4423C15.0788 6.93866 20.7593 6.93866 24.263 10.4423C27.7666 13.946 27.7666 19.6265 24.263 23.1298C24.0587 23.3341 24.0329 23.6561 24.2018 23.8902L27.9818 29.1295C28.0789 29.2642 28.2285 29.3515 28.3937 29.3699C28.5589 29.3883 28.724 29.336 28.8484 29.226L31.3901 26.9796C31.6279 26.7694 31.6561 26.408 31.4533 26.1632L29.4784 23.7785C30.1865 22.6197 30.7167 21.3612 31.0511 20.045L34.1483 19.7462C34.4493 19.7169 34.6783 19.463 34.6765 19.1608V14.4113C34.678 14.1091 34.4493 13.8552 34.1483 13.8259ZM33.4999 18.6262L30.5162 18.9141C30.2629 18.9385 30.0543 19.1238 30 19.3725C29.6757 20.8436 29.086 22.2431 28.2601 23.503C28.1188 23.719 28.1349 24.0019 28.2995 24.2004L30.1839 26.4752L28.556 27.9144L25.4416 23.5975C29.0478 19.6193 28.9323 13.4476 25.0948 9.61014C21.1382 5.65348 14.6999 5.65348 10.7433 9.61014C6.9038 13.4496 6.79034 19.6259 10.402 23.6035L7.40276 27.9072L5.78322 26.4749L7.66733 24.2001C7.83192 24.0011 7.84772 23.7184 7.70639 23.5024C6.88025 22.2428 6.29022 20.8433 5.96505 19.3725C5.91162 19.124 5.70365 18.9388 5.45086 18.9141L2.46714 18.6262V14.9462L5.45086 14.6581C5.70537 14.6334 5.91449 14.447 5.96763 14.1968C6.28419 12.7254 6.87393 11.3268 7.70582 10.0726C7.84887 9.85632 7.83336 9.57193 7.6679 9.37229L5.76196 7.07109L8.35416 4.4786L10.6554 6.38426C10.8541 6.54914 11.1371 6.56494 11.3528 6.42333C12.6124 5.59718 14.0119 5.00715 15.4827 4.68227C15.7317 4.62711 15.9167 4.41799 15.9412 4.16435L16.229 1.17689H19.7384L20.0265 4.16435C20.0509 4.41799 20.2359 4.62711 20.4847 4.68227C21.9557 5.00715 23.3552 5.59747 24.6148 6.42361C24.8306 6.56523 25.1135 6.54943 25.3123 6.38455L27.6132 4.47889L30.2054 7.07109L28.2998 9.37229C28.1346 9.57193 28.1194 9.85632 28.2624 10.0723C29.0946 11.3265 29.6843 12.7254 30.0012 14.1968C30.0535 14.4467 30.262 14.6334 30.5159 14.6581L33.4999 14.9459V18.6262Z" fill="#1A73E8"/>
<path d="M20.0351 27.139V18.2062C21.5179 17.3499 22.4914 15.7243 22.4914 14.0491C22.4914 11.7599 21.1824 10.0927 18.9897 9.58972C18.807 9.54778 18.6157 9.59517 18.4738 9.71726C18.3322 9.83963 18.2569 10.022 18.2713 10.2088L18.4658 12.7053C17.9746 12.963 17.3886 12.9632 16.8971 12.7059L17.1062 10.1955C17.1223 10.0025 17.0424 9.81406 16.8925 9.69141C16.7425 9.56875 16.542 9.52767 16.3562 9.58167C14.3508 10.1625 13.1016 11.8872 13.1016 14.0833C13.1016 16.0989 14.1592 17.7294 15.9241 18.436V27.3344C14.674 28.0723 13.4695 29.5698 13.4885 31.4752C13.4885 33.7456 14.7829 35.4241 16.9471 35.9655C17.1309 36.0115 17.3254 35.9664 17.4701 35.8443C17.6149 35.7222 17.6922 35.5381 17.6778 35.3494L17.4842 32.8531C17.9751 32.5955 18.5614 32.5952 19.0529 32.8523L18.8438 35.3629C18.8277 35.5559 18.9076 35.7444 19.0575 35.867C19.2075 35.9897 19.408 36.0307 19.5938 35.9767C21.5894 35.3985 22.8413 33.6824 22.8614 31.4918C22.8616 29.4759 21.7902 27.8457 20.0351 27.139ZM20.098 34.4819L20.2545 32.6006C20.2712 32.4004 20.1847 32.2056 20.025 32.0839L20.0029 32.0669C18.967 31.2807 17.5319 31.2902 16.5067 32.0899C16.3527 32.2114 16.2694 32.4018 16.2846 32.5975L16.4349 34.5327C15.3022 33.9683 14.6688 32.8899 14.6688 31.4694C14.6536 29.9217 15.7435 28.7017 16.7658 28.2226C16.9718 28.1255 17.1025 27.9175 17.101 27.6897V18.0192C17.1025 17.7604 16.9338 17.5315 16.6862 17.4559C15.2008 17.0075 14.2802 15.7152 14.2802 14.0827C14.2802 12.7679 14.865 11.6809 15.8512 11.076L15.6952 12.9572C15.6785 13.1577 15.7653 13.3528 15.9256 13.4743L15.9474 13.4909C16.9818 14.2769 18.4155 14.2685 19.4404 13.4708C19.4456 13.4668 19.4513 13.4622 19.4562 13.4582C19.6027 13.3361 19.6809 13.1505 19.6662 12.9604L19.514 11.0045C20.6693 11.5459 21.3154 12.6194 21.3154 14.0494C21.3154 15.3822 20.4435 16.7272 19.1951 17.3201C18.99 17.4174 18.8593 17.6243 18.8593 17.8515V27.5556C18.8593 27.8149 19.0294 28.0436 19.2776 28.1186C20.7632 28.5673 21.6856 29.8596 21.6856 31.4866C21.673 32.7957 21.0832 33.8789 20.0982 34.4819H20.098Z" fill="#1A73E8"/>
</g>
<defs>
<clipPath id="clip0_74_2568">
<rect width="36" height="36" fill="white"/>
</clipPath>
</defs>
</svg>
