<svg width="36" height="46" viewBox="0 0 36 46" fill="none" xmlns="http://www.w3.org/2000/svg">
<path fill-rule="evenodd" clip-rule="evenodd" d="M23.7148 46C23.3917 46 23.1225 45.7844 23.0417 45.461L20.2148 34.9783C18.6264 36.0831 16.6072 36.0831 15.0187 34.9783L12.1918 45.461C12.0033 46.1886 10.9264 46.1347 10.8187 45.3802L9.76873 37.6192L4.76106 43.7633C4.27645 44.3292 3.36107 43.8711 3.54953 43.1435L7.23797 29.3462L5.97259 29.1845C2.44569 28.7803 0.614929 25.6274 2.01492 22.3667L3.92645 17.8933L2.01492 13.4469C0.614929 10.1862 2.44569 7.03335 5.97259 6.60218L10.7649 6.03628L13.6726 2.15578C15.7995 -0.700691 19.4341 -0.700691 21.561 2.15578L24.4686 6.03628L29.2609 6.60218C32.7878 7.03335 34.6186 10.1862 33.2186 13.4469L31.3071 17.8933L33.2186 22.3667C34.6186 25.6004 32.7878 28.7803 29.2609 29.1845L27.9956 29.3462C28.3725 30.7475 31.7109 43.0357 31.7109 43.3321C31.7109 43.9789 30.8763 44.2753 30.4725 43.7633L25.4379 37.6192L24.3879 45.3802C24.334 45.7305 24.0379 46 23.7148 46ZM20.0802 33.2536C21.1033 32.1488 23.2571 28.7803 23.661 28.5647C24.1187 28.2952 24.5494 28.3491 25.1417 28.2683L29.0994 27.8101C31.7109 27.5137 32.9763 25.3309 31.9263 22.9056C31.6571 22.2589 29.8532 18.2706 29.8532 17.9472L29.9071 17.57L31.9263 12.908C32.9763 10.4827 31.7109 8.2999 29.0994 8.00347C28.3994 7.92263 24.0648 7.49146 23.7687 7.30282L23.4725 7.06029L20.4302 2.99117C18.8687 0.889233 16.3648 0.889233 14.7764 2.99117C14.3725 3.55707 11.8418 7.08724 11.5456 7.24893L11.1687 7.41062L6.13413 8.00347C3.52261 8.2999 2.25723 10.4827 3.30722 12.908C3.57645 13.5547 5.38029 17.5161 5.35336 17.8664L5.29952 18.2167L3.30722 22.9056C2.25723 25.3309 3.52261 27.5137 6.13413 27.8101C6.8072 27.891 11.1418 28.3222 11.4379 28.5108L11.7341 28.7264C12.2995 29.3731 14.1302 31.9601 14.8033 32.8494C16.2033 34.6819 18.4379 35.0052 20.0802 33.2536ZM17.6033 28.4299C11.8149 28.4299 7.07643 23.7141 7.07643 17.8933C7.07643 12.0995 11.8149 7.35672 17.6033 7.35672C23.4187 7.35672 28.1302 12.0995 28.1302 17.8933C28.1302 23.7141 23.4187 28.4299 17.6033 28.4299ZM17.6033 8.75801C12.5687 8.75801 8.47643 12.8541 8.47643 17.8933C8.47643 22.9326 12.5687 27.0287 17.6033 27.0287C22.6379 27.0287 26.7302 22.9326 26.7302 17.8933C26.7302 12.8541 22.6379 8.75801 17.6033 8.75801ZM14.0225 24.1183C13.6456 24.1183 13.3226 23.7949 13.3495 23.4176V19.8605L11.2495 17.0041C10.9803 16.6268 11.1687 16.0878 11.5995 15.9261L14.9649 14.8482L17.0379 11.9918C17.3071 11.6145 17.9264 11.6145 18.1687 11.9918L20.2417 14.8482L23.6071 15.9261C24.0648 16.0878 24.2533 16.6268 23.9571 17.0041L21.884 19.8605V23.4176C21.884 23.8758 21.4264 24.2261 20.9687 24.0913L17.6033 22.9865C17.3341 22.9865 14.5072 24.1183 14.0225 24.1183ZM12.9456 16.9771L14.6149 19.2407C14.6956 19.3485 14.7495 19.5102 14.7495 19.6449L14.7225 22.4475L17.3879 21.5852C17.5225 21.5313 17.6841 21.5313 17.8187 21.5852L20.4841 22.4475V19.6449C20.4841 19.5102 20.5379 19.3485 20.6187 19.2407L22.261 16.9771L19.5956 16.1148C19.461 16.0609 19.3264 15.98 19.2456 15.8453L17.6033 13.5817L15.961 15.8453C15.8802 15.98 15.7725 16.0609 15.611 16.1148L12.9456 16.9771ZM10.9533 35.8406L11.7341 41.7422L13.861 33.9004C12.9187 32.7416 11.6803 30.99 10.7649 29.7773L8.63796 29.5079L5.73029 40.3679L9.71488 35.4903C10.0918 35.0322 10.8726 35.2478 10.9533 35.8406ZM21.3725 33.9004L23.4725 41.7422L24.2802 35.8406C24.361 35.2478 25.1417 35.0322 25.5186 35.4903L29.5032 40.3679L26.5956 29.5079L24.4417 29.7773C23.5533 30.99 22.2879 32.7686 21.3725 33.9004Z" fill="#1A73E8"/>
</svg>
