<svg width="67" height="68" viewBox="0 0 67 68" fill="none" xmlns="http://www.w3.org/2000/svg">
<mask id="mask0_891_210" style="mask-type:luminance" maskUnits="userSpaceOnUse" x="0" y="0" width="68" height="68">
<path d="M0 0.812424H67.0006V67.8555H0V0.812424Z" fill="white"/>
</mask>
<g mask="url(#mask0_891_210)">
<path d="M21.9062 42.2295C21.369 47.5225 16.9017 51.6528 11.4704 51.6528C5.67705 51.6528 0.980469 46.9534 0.980469 41.1563C0.980469 35.3591 5.67705 30.6597 11.4704 30.6597C13.5779 30.6597 15.5403 31.2816 17.1841 32.3519" stroke="#DB373C" stroke-width="2" stroke-miterlimit="10" stroke-linecap="round" stroke-linejoin="round"/>
<path d="M17.5625 39.5633C17.6952 40.0722 17.7657 40.6064 17.7657 41.1568C17.7657 44.6351 14.9479 47.4548 11.4717 47.4548C7.99569 47.4548 5.17773 44.6351 5.17773 41.1568C5.17773 37.6786 7.99569 34.8589 11.4717 34.8589C12.4901 34.8589 13.452 35.1008 14.3032 35.5306" stroke="#DB373C" stroke-width="2" stroke-miterlimit="10" stroke-linecap="round" stroke-linejoin="round"/>
<path d="M52.2896 31.1701C53.3095 30.8392 54.3979 30.6603 55.528 30.6603C61.3214 30.6603 66.0179 35.3599 66.0179 41.1569C66.0179 46.954 61.3214 51.6536 55.528 51.6536C50.6758 51.6536 46.5931 48.3571 45.3945 43.8802" stroke="#DB373C" stroke-width="2" stroke-miterlimit="10" stroke-linecap="round" stroke-linejoin="round"/>
<path d="M58.4477 35.5764C60.4533 36.6295 61.8214 38.7333 61.8214 41.1568C61.8214 44.6351 59.0034 47.4548 55.5274 47.4548C52.0514 47.4548 49.2334 44.6351 49.2334 41.1568C49.2334 38.5482 50.8185 36.31 53.0774 35.3538" stroke="#DB373C" stroke-width="2" stroke-miterlimit="10" stroke-linecap="round" stroke-linejoin="round"/>
<path d="M35.9033 35.9524L27.2054 24.3625L30.1517 22.004C31.6398 20.8128 33.4885 20.1638 35.3941 20.1638H39.7934C42.1108 20.1638 43.9893 22.0436 43.9893 24.3625V25.4122H50.4029C51.8678 25.4122 52.8817 23.9481 52.3673 22.5757L50.2833 17.0149H52.2785C52.9959 17.0149 53.6634 17.3815 54.0486 17.9871L59.2955 26.2375C60.0391 27.4068 59.4663 28.9635 58.1425 29.3711L52.163 31.212C49.0888 32.1586 46.8257 34.7801 46.3367 37.9611L45.4488 43.7352C45.2127 45.2713 43.8917 46.4053 42.3385 46.4053H29.1504C27.9584 46.4053 26.8687 45.7314 26.3356 44.6646L25.5122 43.0167C25.2797 42.5513 25.423 41.9857 25.8489 41.6874L30.1561 38.6704" stroke="#1E335E" stroke-width="2" stroke-miterlimit="10" stroke-linecap="round" stroke-linejoin="round"/>
<path d="M30.5908 28.2402L33.4534 26.1942C34.165 25.6855 35.0178 25.4121 35.8922 25.4121H43.9886" stroke="#1E335E" stroke-width="2" stroke-miterlimit="10" stroke-linecap="round" stroke-linejoin="round"/>
<path d="M48.1855 21.2131H51.3326" stroke="#1E335E" stroke-width="2" stroke-miterlimit="10" stroke-linecap="round" stroke-linejoin="round"/>
<path d="M27.2062 24.3621H22.4247C21.4688 24.3621 20.5646 23.9273 19.9674 23.1804L17.9761 20.6895C17.1798 19.6936 15.9742 19.1138 14.6996 19.1138H8.32422L30.6591 36.2146" stroke="#1E335E" stroke-width="2" stroke-miterlimit="10" stroke-linecap="round" stroke-linejoin="round"/>
<path d="M36.6456 38.0078C36.6456 39.7469 35.2366 41.1567 33.4986 41.1567C31.7605 41.1567 30.3516 39.7469 30.3516 38.0078C30.3516 36.2687 31.7605 34.8589 33.4986 34.8589C35.2366 34.8589 36.6456 36.2687 36.6456 38.0078Z" stroke="#1E335E" stroke-width="2" stroke-miterlimit="10" stroke-linecap="round" stroke-linejoin="round"/>
<path d="M13.569 41.1568C13.569 42.3162 12.6296 43.2561 11.471 43.2561C10.3124 43.2561 9.37305 42.3162 9.37305 41.1568C9.37305 39.9974 10.3124 39.0575 11.471 39.0575C12.6296 39.0575 13.569 39.9974 13.569 41.1568Z" stroke="#DB373C" stroke-width="2" stroke-miterlimit="10" stroke-linecap="round" stroke-linejoin="round"/>
<path d="M26.1813 44.4788L17.863 39.8121C17.3566 39.5305 17.1741 38.8915 17.4554 38.3848L18.4743 36.5492C18.7556 36.0425 19.3942 35.8598 19.9007 36.1413L27.4525 40.3542" stroke="#1E335E" stroke-width="2" stroke-miterlimit="10" stroke-linecap="round" stroke-linejoin="round"/>
<path d="M24.0146 37.9646L27.2927 34.2471" stroke="#1E335E" stroke-width="2" stroke-miterlimit="10" stroke-linecap="round" stroke-linejoin="round"/>
<path d="M46.0874 29.6103H36.2292C36.0106 29.6103 35.7975 29.6786 35.6195 29.8058L33.0303 31.6562" stroke="#1E335E" stroke-width="2" stroke-miterlimit="10" stroke-linecap="round" stroke-linejoin="round"/>
<path d="M57.6266 41.1568C57.6266 42.3162 56.6873 43.2561 55.5286 43.2561C54.3698 43.2561 53.4307 42.3162 53.4307 41.1568C53.4307 39.9974 54.3698 39.0575 55.5286 39.0575C56.6873 39.0575 57.6266 39.9974 57.6266 41.1568Z" stroke="#DB373C" stroke-width="2" stroke-miterlimit="10" stroke-linecap="round" stroke-linejoin="round"/>
<path d="M52.7256 33.1519L54.8085 38.4939" stroke="#DB373C" stroke-width="2" stroke-miterlimit="10" stroke-linecap="round" stroke-linejoin="round"/>
</g>
</svg>
