<svg width="52" height="52" viewBox="0 0 52 52" fill="none" xmlns="http://www.w3.org/2000/svg">
<circle cx="26" cy="26" r="25.5" transform="matrix(-1 0 0 1 52 0)" stroke="#1A48A8"/>
<path d="M21.3819 35C21.109 35.0015 20.8418 34.9228 20.6144 34.7739C20.387 34.6249 20.2097 34.4124 20.105 34.1635C20.0004 33.9146 19.9732 33.6406 20.0268 33.3764C20.0805 33.1122 20.2127 32.8697 20.4064 32.6799L27.6879 25.5028L20.4064 18.3256C20.1477 18.0701 20.0024 17.7236 20.0024 17.3623C20.0024 17.001 20.1477 16.6545 20.4064 16.399C20.6651 16.1435 21.016 16 21.3819 16C21.7477 16 22.0986 16.1435 22.3573 16.399L30.6005 24.5395C30.8564 24.7937 31 25.1375 31 25.496C31 25.8544 30.8564 26.1983 30.6005 26.4525L22.3573 34.593C22.2301 34.7212 22.0783 34.8231 21.9109 34.893C21.7434 34.9629 21.5636 34.9992 21.3819 35Z" fill="#1A48A8"/>
</svg>
