<svg width="52" height="52" viewBox="0 0 52 52" fill="none" xmlns="http://www.w3.org/2000/svg">
<circle cx="26" cy="26" r="25.5" stroke="#1A48A8"/>
<path d="M30.6181 35C30.891 35.0015 31.1582 34.9228 31.3856 34.7739C31.613 34.6249 31.7903 34.4124 31.895 34.1635C31.9996 33.9146 32.0268 33.6406 31.9732 33.3764C31.9195 33.1122 31.7873 32.8697 31.5936 32.6799L24.3121 25.5028L31.5936 18.3256C31.8523 18.0701 31.9976 17.7236 31.9976 17.3623C31.9976 17.001 31.8523 16.6545 31.5936 16.399C31.3349 16.1435 30.984 16 30.6181 16C30.2523 16 29.9014 16.1435 29.6427 16.399L21.3995 24.5395C21.1436 24.7937 21 25.1375 21 25.496C21 25.8544 21.1436 26.1983 21.3995 26.4525L29.6427 34.593C29.7699 34.7212 29.9217 34.8231 30.0891 34.893C30.2566 34.9629 30.4364 34.9992 30.6181 35Z" fill="#1A48A8"/>
</svg>
