<svg width="57" height="58" viewBox="0 0 57 58" fill="none" xmlns="http://www.w3.org/2000/svg">
<g clip-path="url(#clip0_81_146)">
<path d="M42.7099 24.9007V15.6431H45.7043C46.1525 15.6431 46.5515 15.3919 46.7451 14.9874C46.9388 14.5828 46.8848 14.1143 46.604 13.7648L38.663 3.87784C38.4428 3.60373 38.1149 3.44644 37.7633 3.44633C37.7633 3.44633 37.7633 3.44633 37.7632 3.44633C37.4118 3.44633 37.0839 3.60362 36.8635 3.87784L34.1464 7.26074C33.5443 6.13494 32.3586 5.36696 30.9959 5.36696H25.4521V3.04353C25.4522 1.79948 24.4627 0.787415 23.2465 0.787415H15.2352C14.019 0.787415 13.0295 1.79948 13.0295 3.04353V5.36696H7.48567C5.5158 5.36696 3.91309 6.97058 3.91309 8.9418V53.5301C3.91309 55.5013 5.5158 57.105 7.48567 57.105H30.996C32.9659 57.105 34.5686 55.5013 34.5686 53.5301V53.4014C35.598 53.6285 36.6666 53.7501 37.7633 53.7501C45.9461 53.7501 52.6033 47.0887 52.6033 38.9008C52.6033 32.4477 48.4679 26.9436 42.7099 24.9007ZM37.7632 5.39137L44.6721 13.9931H41.8854C41.4301 13.9931 41.061 14.3624 41.061 14.8181V27.8357C39.9982 27.5186 38.8882 27.3511 37.7632 27.3511C36.6176 27.3511 35.5109 27.5199 34.4655 27.8323V14.8182C34.4655 14.3625 34.0963 13.9932 33.641 13.9932H30.8544L37.7632 5.39137ZM32.8166 15.6431V28.4672C32.2195 28.7517 31.6508 29.0867 31.1154 29.4655V24.0804V15.643L32.8166 15.6431ZM14.6783 3.04353C14.6783 2.70925 14.9281 2.43734 15.2351 2.43734H23.2464C23.5534 2.43734 23.8031 2.70925 23.8031 3.04353V5.36696H14.6782L14.6783 3.04353ZM32.9197 53.5301C32.9197 54.5915 32.0567 55.455 30.996 55.455H7.48567C6.425 55.455 5.56197 54.5915 5.56197 53.5301V8.9418C5.56197 7.88046 6.425 7.01688 7.48567 7.01688H30.996C32.008 7.01688 32.838 7.80335 32.9123 8.79727L31.1154 11.0346V10.4851C31.1154 9.63565 30.4357 8.94466 29.6003 8.94466H18.6947C18.2394 8.94466 17.8702 9.31391 17.8702 9.76962C17.8702 10.2253 18.2394 10.5946 18.6947 10.5946H29.4665V13.0875L28.9227 13.7647C28.6418 14.1142 28.5876 14.5828 28.7813 14.9872C28.9216 15.2802 29.1701 15.4911 29.4665 15.5861V23.2556H9.01517V10.5946H14.8473C15.3026 10.5946 15.6717 10.2253 15.6717 9.76962C15.6717 9.31391 15.3026 8.94466 14.8473 8.94466H8.88139C8.04596 8.94466 7.36629 9.63565 7.36629 10.4851V24.0806V31.236V38.3915V45.547V52.0424C7.36629 52.8612 8.032 53.5274 8.85028 53.5274H29.6314C30.4497 53.5274 31.1154 52.8612 31.1154 52.0424V48.337C31.6814 48.7375 32.2851 49.0879 32.9197 49.3828V53.5301ZM25.0704 46.3719H28.969C29.129 46.5602 29.2949 46.7434 29.4665 46.9212V51.8773H9.01517V46.3719H21.223C21.6783 46.3719 22.0474 46.0026 22.0474 45.5469C22.0474 45.0912 21.6783 44.7219 21.223 44.7219H9.01517V39.2163H26.2257C26.2796 41.2195 26.8463 43.0966 27.798 44.7219H25.0704C24.615 44.7219 24.2459 45.0912 24.2459 45.5469C24.2459 46.0026 24.615 46.3719 25.0704 46.3719ZM26.2987 37.5664H9.01517V32.0608H28.4699C27.3068 33.6388 26.5348 35.5219 26.2987 37.5664ZM9.01517 30.4109V24.9054H29.4665V30.4109H9.01517ZM37.7633 52.1002C36.6617 52.1002 35.5921 51.962 34.5686 51.706V49.9998C35.5835 50.2929 36.6554 50.4503 37.7633 50.4503C43.2895 50.4503 48.0561 46.5143 49.0971 41.0913C49.1831 40.6439 48.8901 40.2115 48.4431 40.1256C47.996 40.0394 47.5638 40.3327 47.4779 40.78C46.5858 45.4273 42.5001 48.8003 37.7633 48.8003C32.3082 48.8003 27.87 44.3594 27.87 38.9008C27.87 33.4421 32.3082 29.0012 37.7633 29.0012C42.6019 29.0012 46.7029 32.4595 47.5147 37.2245C47.5912 37.6735 48.017 37.9756 48.466 37.8991C48.9149 37.8226 49.2167 37.3965 49.1402 36.9472C48.6878 34.292 47.3043 31.8624 45.2448 30.1063C44.4707 29.4462 43.6172 28.8969 42.7099 28.4665V26.6676C47.539 28.6298 50.9543 33.3726 50.9543 38.9009C50.9544 46.1789 45.0369 52.1002 37.7633 52.1002Z" fill="white"/>
<path d="M39.9617 38.0759H36.9659L39.2168 34.0218C39.438 33.6235 39.2945 33.1211 38.8965 32.8999C38.4982 32.6789 37.9965 32.8223 37.7754 33.2205L34.844 38.5002C34.7021 38.7558 34.706 39.0673 34.8541 39.3193C35.0023 39.5712 35.2726 39.7258 35.5647 39.7258H38.6028L36.4823 43.7995C36.2719 44.2036 36.4289 44.7018 36.8328 44.9122C36.9543 44.9757 37.0846 45.0058 37.2129 45.0058C37.5105 45.0058 37.7978 44.844 37.9448 44.5617L40.6929 39.282C40.826 39.0262 40.816 38.7196 40.6665 38.4731C40.5171 38.2265 40.2499 38.0759 39.9617 38.0759Z" fill="white"/>
</g>
<defs>
<clipPath id="clip0_81_146">
<rect width="56.2819" height="56.3176" fill="white" transform="translate(0.119141 0.787598)"/>
</clipPath>
</defs>
</svg>
