<svg width="79" height="30" viewBox="0 0 79 30" fill="none" xmlns="http://www.w3.org/2000/svg">
<path d="M64.3861 29.5574C59.819 29.5574 56.1006 25.8389 56.1006 21.2719C56.1006 16.7048 59.819 12.9863 64.3861 12.9863C68.9532 12.9863 72.6717 16.7048 72.6717 21.2719C72.6717 25.8389 68.9532 29.5574 64.3861 29.5574ZM64.3861 14.5138C60.6677 14.5138 57.6435 17.538 57.6435 21.2564C57.6435 24.9749 60.6677 27.9991 64.3861 27.9991C68.1046 27.9991 71.1287 24.9749 71.1287 21.2564C71.1287 17.538 68.1046 14.5138 64.3861 14.5138Z" fill="#DB373C"/>
<path d="M14.3646 29.5574C9.79757 29.5574 6.0791 25.8389 6.0791 21.2719C6.0791 16.7048 9.79757 12.9863 14.3646 12.9863C18.9317 12.9863 22.6502 16.7048 22.6502 21.2719C22.6502 25.8389 18.9317 29.5574 14.3646 29.5574ZM14.3646 14.5138C10.6462 14.5138 7.62203 17.538 7.62203 21.2564C7.62203 24.9749 10.6462 28.0145 14.3646 28.0145C18.0831 28.0145 21.1073 24.9903 21.1073 21.2719C21.1073 17.5534 18.0831 14.5138 14.3646 14.5138Z" fill="#DB373C"/>
<path d="M14.3653 25.7309C11.9121 25.7309 9.90625 23.7251 9.90625 21.2718C9.90625 18.8186 11.9121 16.8127 14.3653 16.8127C16.8186 16.8127 18.8244 18.8186 18.8244 21.2718C18.8244 23.7251 16.8186 25.7309 14.3653 25.7309ZM14.3653 18.3402C12.7607 18.3402 11.4492 19.6517 11.4492 21.2564C11.4492 22.861 12.7607 24.1725 14.3653 24.1725C15.97 24.1725 17.2815 22.861 17.2815 21.2564C17.2815 19.6517 15.97 18.3402 14.3653 18.3402Z" fill="#DB373C"/>
<path d="M64.3556 25.7314C61.9023 25.7314 59.8965 23.7256 59.8965 21.2723C59.8965 18.819 61.9023 16.8132 64.3556 16.8132C66.8088 16.8132 68.8146 18.819 68.8146 21.2723C68.8146 23.7256 66.8088 25.7314 64.3556 25.7314ZM64.3556 18.3407C62.7509 18.3407 61.4394 19.6522 61.4394 21.2569C61.4394 22.8615 62.7509 24.173 64.3556 24.173C65.9602 24.173 67.2717 22.8615 67.2717 21.2569C67.2717 19.6522 65.9602 18.3407 64.3556 18.3407Z" fill="#DB373C"/>
<path d="M76.3751 25.7001L71.8462 25.6599L72.3575 24.1572H75.6036V21.2564C75.6036 21.1484 75.6191 21.0404 75.6654 20.9479L77.27 17.2911L74.1996 14.9921C70.8051 12.4463 66.6084 11.0422 62.3653 11.0422H55.8541C55.6998 11.0422 55.5455 10.9959 55.4221 10.9034L48.5869 6.25915C44.853 3.72874 40.502 2.38639 35.9966 2.38639H19.8575L1.54293 7.98723V8.72784H2.46869C2.90071 8.72784 3.24016 9.06728 3.24016 9.4993V16.1339C3.24016 16.5659 2.90071 16.9054 2.46869 16.9054H1.54293V21.1176L3.85733 24.1572H6.13633L6.90337 25.7001H3.4716C3.22473 25.7001 3.00872 25.5921 2.85442 25.3915L0.154293 21.8428C0.0462879 21.7039 0 21.5496 0 21.3799V16.1339C0 15.7019 0.339445 15.3624 0.771466 15.3624H1.69722V10.2708H0.771466C0.339445 10.2708 0 9.93132 0 9.4993V7.41635C0 7.0769 0.21601 6.78374 0.540026 6.67574L19.5181 0.889745C19.5952 0.874316 19.6724 0.858887 19.7495 0.858887H35.9966C40.8105 0.858887 45.4702 2.29381 49.451 4.99394L56.0856 9.4993H62.3653C66.9324 9.4993 71.4686 11.0114 75.1253 13.7578L78.6895 16.4271C78.9827 16.6431 79.0752 17.0288 78.9364 17.3528L77.1466 21.4262V24.9286C77.1466 25.3606 76.8071 25.7001 76.3751 25.7001Z" fill="#1E335E"/>
<path d="M46.5342 24.3816H56.25V25.9157H46.5342V24.3816Z" fill="#1E335E"/>
<path d="M22.499 24.3813H43.4648V25.9154H22.499V24.3813Z" fill="#1E335E"/>
<path d="M5.81689 16.9056H2.46873C2.03671 16.9056 1.69727 16.5661 1.69727 16.1341V9.49949C1.69727 9.06747 2.03671 8.72803 2.46873 8.72803H5.83232C6.14091 8.72803 6.41864 8.91318 6.54207 9.19091L8.16215 12.9711C8.25473 13.1871 8.2393 13.4494 8.13129 13.65L6.51121 16.5044C6.35692 16.7513 6.09462 16.9056 5.81689 16.9056ZM3.2402 15.3626H5.36944L6.57293 13.2334L5.32315 10.271H3.2402V15.3626Z" fill="#1E335E"/>
<path d="M51.0704 10.7339H39.4984C39.4521 10.7339 39.4213 10.7339 39.375 10.7185L23.8685 8.32692L24.0999 6.79942L39.5601 9.19096H48.6634L48.0308 8.74351C44.2043 6.01253 39.699 4.56217 34.993 4.56217H21.2455L17.203 5.75023L21.0295 6.33654L20.7981 7.86404L13.5463 6.75313C13.1914 6.69141 12.9137 6.39826 12.8983 6.04338C12.8674 5.68851 13.0988 5.34906 13.4537 5.25649L20.9369 3.06553C21.0141 3.0501 21.0758 3.03467 21.1529 3.03467H35.0085C40.0384 3.03467 44.8524 4.5776 48.9411 7.49374L51.5333 9.34526C51.811 9.54584 51.919 9.88528 51.8264 10.2093C51.703 10.5179 51.4098 10.7339 51.0704 10.7339Z" fill="#1E335E"/>
<path d="M30.1183 9.29902C30.072 9.29902 30.0411 9.29902 29.9948 9.28359L26.8472 8.80528C26.4769 8.74356 26.1992 8.41955 26.1992 8.04924V3.79075C26.1992 3.35873 26.5387 3.01929 26.9707 3.01929H30.1183C30.5503 3.01929 30.8897 3.35873 30.8897 3.79075V8.51212C30.8897 8.74356 30.7972 8.94414 30.6274 9.09844C30.4886 9.22187 30.3034 9.29902 30.1183 9.29902ZM27.7422 7.37035L29.3468 7.61722V4.56222H27.7422V7.37035Z" fill="#1E335E"/>
<path d="M54.9593 22.0286L29.8712 20.5319C29.6552 20.5165 29.4546 20.4085 29.3158 20.2388L24.5481 14.2214C24.3938 14.0362 24.3475 13.7893 24.4093 13.5579C24.471 13.3265 24.6253 13.1413 24.8413 13.0333L29.825 10.796C29.9638 10.7343 30.1027 10.7189 30.257 10.7343L54.697 14.4374L54.4656 15.9649L30.2415 12.3081L26.3842 14.0362L30.3187 19.0044L55.0673 20.4857L54.9593 22.0286Z" fill="#1E335E"/>
<path d="M73.4434 16.2883H78.2264V17.8313H73.4434V16.2883Z" fill="#1E335E"/>
</svg>
