<svg width="60" height="60" viewBox="0 0 60 60" fill="none" xmlns="http://www.w3.org/2000/svg">
<mask id="mask0_81_58" style="mask-type:luminance" maskUnits="userSpaceOnUse" x="0" y="0" width="60" height="60">
<path d="M0.933594 0.981972H59.6103V59.6959H0.933594V0.981972Z" fill="white"/>
</mask>
<g mask="url(#mask0_81_58)">
<path d="M20.119 37.2538C19.6486 41.8893 15.7362 45.5065 10.9797 45.5065C5.90607 45.5065 1.79297 41.3909 1.79297 36.314C1.79297 31.237 5.90607 27.1215 10.9797 27.1215C12.8253 27.1215 14.5439 27.666 15.9836 28.6034" stroke="white" stroke-width="1.79737" stroke-miterlimit="10" stroke-linecap="round" stroke-linejoin="round"/>
<path d="M16.3139 34.9186C16.4301 35.3643 16.4919 35.8321 16.4919 36.3142C16.4919 39.3603 14.0241 41.8297 10.9798 41.8297C7.93563 41.8297 5.46777 39.3603 5.46777 36.3142C5.46777 33.268 7.93563 30.7986 10.9798 30.7986C11.8717 30.7986 12.7141 31.0105 13.4595 31.3869" stroke="white" stroke-width="1.79737" stroke-miterlimit="10" stroke-linecap="round" stroke-linejoin="round"/>
<path d="M46.7276 27.5681C47.6209 27.2783 48.574 27.1216 49.5637 27.1216C54.6374 27.1216 58.7504 31.2373 58.7504 36.3142C58.7504 41.3911 54.6374 45.5068 49.5637 45.5068C45.3144 45.5068 41.7389 42.6198 40.6892 38.6992" stroke="white" stroke-width="1.79737" stroke-miterlimit="10" stroke-linecap="round" stroke-linejoin="round"/>
<path d="M52.1215 31.427C53.8779 32.3492 55.0761 34.1917 55.0761 36.3141C55.0761 39.3602 52.6083 41.8297 49.5641 41.8297C46.5199 41.8297 44.052 39.3602 44.052 36.3141C44.052 34.0295 45.4402 32.0694 47.4185 31.232" stroke="white" stroke-width="1.79737" stroke-miterlimit="10" stroke-linecap="round" stroke-linejoin="round"/>
<path d="M32.3772 31.7561L24.7598 21.6061L27.3401 19.5405C28.6433 18.4973 30.2624 17.929 31.9312 17.929H35.784C37.8135 17.929 39.4586 19.5753 39.4586 21.6061V22.5253H45.0754C46.3583 22.5253 47.2462 21.2431 46.7957 20.0412L44.9706 15.1713H46.718C47.3463 15.1713 47.9308 15.4924 48.2681 16.0228L52.8632 23.2481C53.5144 24.2722 53.0128 25.6354 51.8535 25.9924L46.6168 27.6046C43.9246 28.4336 41.9426 30.7294 41.5143 33.5153L40.7368 38.572C40.53 39.9172 39.3731 40.9103 38.0129 40.9103H26.4632C25.4193 40.9103 24.465 40.3202 23.9981 39.386L23.277 37.9428C23.0734 37.5352 23.1988 37.0398 23.5719 36.7786L27.3439 34.1365" stroke="white" stroke-width="1.79737" stroke-miterlimit="10" stroke-linecap="round" stroke-linejoin="round"/>
<path d="M27.7253 25.002L30.2323 23.2102C30.8555 22.7647 31.6024 22.5253 32.3681 22.5253H39.4586" stroke="white" stroke-width="1.79737" stroke-miterlimit="10" stroke-linecap="round" stroke-linejoin="round"/>
<path d="M43.1335 18.8483H45.8896" stroke="white" stroke-width="1.79737" stroke-miterlimit="10" stroke-linecap="round" stroke-linejoin="round"/>
<path d="M24.76 21.606H20.5726C19.7354 21.606 18.9436 21.2252 18.4206 20.5711L16.6766 18.3897C15.9793 17.5175 14.9234 17.0097 13.8072 17.0097H8.22388L27.784 31.986" stroke="white" stroke-width="1.79737" stroke-miterlimit="10" stroke-linecap="round" stroke-linejoin="round"/>
<path d="M33.0277 33.5563C33.0277 35.0793 31.7938 36.314 30.2717 36.314C28.7496 36.314 27.5156 35.0793 27.5156 33.5563C27.5156 32.0333 28.7496 30.7986 30.2717 30.7986C31.7938 30.7986 33.0277 32.0333 33.0277 33.5563Z" stroke="white" stroke-width="1.79737" stroke-miterlimit="10" stroke-linecap="round" stroke-linejoin="round"/>
<path d="M12.8172 36.3142C12.8172 37.3295 11.9946 38.1526 10.9799 38.1526C9.9652 38.1526 9.14258 37.3295 9.14258 36.3142C9.14258 35.2988 9.9652 34.4757 10.9799 34.4757C11.9946 34.4757 12.8172 35.2988 12.8172 36.3142Z" stroke="white" stroke-width="1.79737" stroke-miterlimit="10" stroke-linecap="round" stroke-linejoin="round"/>
<path d="M23.8631 39.2233L16.5782 35.1364C16.1347 34.8899 15.9748 34.3302 16.2212 33.8864L17.1135 32.2789C17.3599 31.8351 17.9192 31.6752 18.3627 31.9217L24.9763 35.6112" stroke="white" stroke-width="1.79737" stroke-miterlimit="10" stroke-linecap="round" stroke-linejoin="round"/>
<path d="M21.9656 33.5181L24.8364 30.2624" stroke="white" stroke-width="1.79737" stroke-miterlimit="10" stroke-linecap="round" stroke-linejoin="round"/>
<path d="M41.296 26.2023H32.6626C32.4712 26.2023 32.2845 26.2622 32.1286 26.3735L29.8611 27.9941" stroke="white" stroke-width="1.79737" stroke-miterlimit="10" stroke-linecap="round" stroke-linejoin="round"/>
<path d="M51.4014 36.3142C51.4014 37.3295 50.5788 38.1526 49.5641 38.1526C48.5493 38.1526 47.7268 37.3295 47.7268 36.3142C47.7268 35.2988 48.5493 34.4757 49.5641 34.4757C50.5788 34.4757 51.4014 35.2988 51.4014 36.3142Z" stroke="white" stroke-width="1.79737" stroke-miterlimit="10" stroke-linecap="round" stroke-linejoin="round"/>
<path d="M46.4814 27.8326L48.8235 34.2773" stroke="white" stroke-width="1.79737" stroke-miterlimit="10" stroke-linecap="round" stroke-linejoin="round"/>
</g>
</svg>
