<svg width="11" height="11" viewBox="0 0 11 11" fill="none" xmlns="http://www.w3.org/2000/svg">
<path d="M5.4928 10.9807C5.33705 10.9816 5.18456 10.9361 5.05477 10.85C4.92498 10.7639 4.82377 10.6411 4.76405 10.4973C4.70432 10.3534 4.68878 10.1951 4.71942 10.0423C4.75006 9.88963 4.82548 9.7495 4.93606 9.63982L9.09202 5.49167L4.93606 1.34352C4.8076 1.19351 4.74047 1.00055 4.7481 0.8032C4.75572 0.605848 4.83753 0.418641 4.97718 0.278989C5.11683 0.139336 5.30404 0.057524 5.50139 0.0499012C5.69874 0.0422784 5.8917 0.109406 6.0417 0.237871L10.7466 4.94277C10.8926 5.08969 10.9746 5.28843 10.9746 5.49559C10.9746 5.70275 10.8926 5.9015 10.7466 6.04842L6.0417 10.7533C5.89565 10.8982 5.69852 10.9798 5.4928 10.9807Z" fill="#1A48A8"/>
<path d="M0.788701 10.9813C0.632952 10.9822 0.480461 10.9367 0.35067 10.8506C0.220879 10.7645 0.119669 10.6417 0.0599436 10.4979C0.000218082 10.354 -0.0153169 10.1956 0.0153192 10.0429C0.0459553 9.89021 0.121374 9.75008 0.231961 9.6404L4.38791 5.49225L0.231961 1.3441C0.0843046 1.19645 0.00135188 0.996178 0.00135188 0.787358C0.00135188 0.578537 0.0843046 0.37827 0.231961 0.230612C0.379618 0.0829536 0.579883 1.55583e-09 0.788701 0C0.997519 -1.55583e-09 1.19778 0.0829536 1.34544 0.230612L6.05029 4.93551C6.19633 5.08243 6.27831 5.28117 6.27831 5.48833C6.27831 5.69549 6.19633 5.89424 6.05029 6.04116L1.34544 10.7461C1.27282 10.8201 1.18621 10.8791 1.09065 10.9195C0.99508 10.9599 0.892449 10.9809 0.788701 10.9813Z" fill="#1A48A8"/>
</svg>
