<svg width="20" height="18" viewBox="0 0 20 18" fill="none" xmlns="http://www.w3.org/2000/svg">
<g clip-path="url(#clip0_1465_1931)">
<path d="M13.3036 2.63159C13.4998 2.65264 13.4998 2.65264 13.5898 2.66537C13.5951 2.66611 13.6004 2.66685 13.6058 2.66761C14.0756 2.73378 14.5382 2.83693 15.5803 3.19423C15.5857 3.19644 15.5911 3.19865 15.5966 3.20092C15.8166 3.29151 16.0351 3.39159 16.2431 3.50696C16.2555 3.51376 16.2679 3.52041 16.2804 3.52703C16.3388 3.5581 16.3964 3.59038 16.4535 3.62389C16.4644 3.63027 16.4753 3.63663 16.4861 3.64298C16.6183 3.72011 16.6183 3.72011 16.6792 3.76031C16.6908 3.76791 16.7025 3.77535 16.7142 3.7828C16.8265 3.85443 16.9367 3.92923 17.0446 4.00731C17.0531 4.01347 17.0616 4.0196 17.0701 4.02573C17.1149 4.05804 17.1589 4.0914 17.2029 4.12481C17.2134 4.13277 17.2239 4.14069 17.2345 4.1486C17.2764 4.18013 17.3173 4.2128 17.3578 4.24622C17.369 4.2555 17.3804 4.26466 17.3917 4.27382C17.4119 4.29016 17.4318 4.30681 17.4516 4.32355C17.467 4.33653 17.4826 4.34927 17.4983 4.36187C17.5196 4.37903 17.5398 4.39707 17.56 4.41547C17.5697 4.42432 17.5796 4.43302 17.5896 4.44162C17.6105 4.45972 17.6311 4.47823 17.6518 4.49672C17.6554 4.49991 17.659 4.50311 17.6627 4.50641C17.6893 4.53014 17.7158 4.554 17.7421 4.5781C17.7472 4.58275 17.7523 4.58739 17.7573 4.59202C17.8194 4.64883 17.879 4.70819 17.9386 4.76749C17.9531 4.78192 17.9676 4.79632 17.9822 4.81071C17.9935 4.82195 18.0048 4.83319 18.0162 4.84444C18.0215 4.84976 18.0269 4.85507 18.0322 4.86038C18.0823 4.91004 18.0823 4.91004 18.1052 4.93679C18.1171 4.95057 18.1298 4.96364 18.1423 4.97684C18.1784 5.01515 18.2137 5.05406 18.248 5.09401C18.2613 5.10954 18.2749 5.12483 18.2888 5.13993C18.3057 5.15846 18.3217 5.17761 18.3376 5.19706C18.3491 5.21111 18.3609 5.22496 18.3728 5.23878C18.4094 5.28161 18.4449 5.32528 18.4797 5.36956C18.4845 5.37562 18.4892 5.38168 18.494 5.38774C18.5284 5.43138 18.5625 5.47526 18.5958 5.51975C18.6005 5.52603 18.6052 5.53231 18.6099 5.53858C18.6535 5.59648 18.6955 5.65536 18.7366 5.71503C18.739 5.71847 18.7413 5.72192 18.7438 5.72547C18.7605 5.74979 18.7772 5.77414 18.7938 5.79852C18.7995 5.80677 18.8051 5.81501 18.8108 5.82324C18.8446 5.87267 18.8771 5.92261 18.9076 5.97412C18.9198 5.99458 18.9326 6.01459 18.9456 6.03456C19.0062 6.12896 19.06 6.22777 19.1138 6.32612C19.116 6.33018 19.1183 6.33424 19.1206 6.33842C19.1587 6.40829 19.1955 6.47877 19.2313 6.54985C19.2332 6.55368 19.2352 6.55751 19.2371 6.56146C19.271 6.62875 19.3038 6.69637 19.3348 6.76499C19.3366 6.76899 19.3366 6.76899 19.3385 6.77307C19.4969 7.12305 19.6237 7.48651 19.9916 9.6103C19.9919 9.61515 19.9919 9.61515 19.9921 9.62009C19.9981 9.73408 20.0007 9.84803 20.0007 9.96216C20.0007 9.96817 20.0007 9.97417 20.0008 9.98018C20.0008 10.0117 20.0008 10.0432 20.0008 10.0747C20.0008 10.1002 20.0008 10.1256 20.0009 10.1511C20.0019 10.574 19.9756 10.9957 19.7366 12.3515C19.7357 12.3551 19.7348 12.3586 19.7338 12.3623C19.663 12.6408 19.5765 12.916 19.4732 13.1844C19.4721 13.1873 19.471 13.1902 19.4698 13.1931C19.455 13.2317 19.4397 13.2701 19.4241 13.3084C19.4229 13.3113 19.4218 13.3141 19.4206 13.317C19.3211 13.5618 19.2125 13.8053 19.0831 14.0361C19.0714 14.0571 19.0602 14.0783 19.0491 14.0995C19.025 14.1452 18.9993 14.1898 18.9732 14.2343C18.9704 14.2392 18.9675 14.2441 18.9646 14.2491C18.9195 14.3262 18.8735 14.4025 18.8259 14.478C18.8232 14.4823 18.8205 14.4865 18.8178 14.4909C18.7775 14.5547 18.7355 14.6172 18.6931 14.6796C18.6905 14.6833 18.688 14.687 18.6854 14.6909C18.651 14.7415 18.616 14.7916 18.5803 14.8413C18.5775 14.8452 18.5747 14.8491 18.5719 14.8531C18.5352 14.9043 18.4971 14.9542 18.4586 15.004C18.4488 15.0168 18.4391 15.0297 18.4294 15.0426C18.4093 15.0692 18.3886 15.0953 18.3678 15.1214C18.3618 15.129 18.3558 15.1367 18.3498 15.1443C18.3199 15.1824 18.2891 15.2197 18.2581 15.2568C18.2499 15.2667 18.2417 15.2766 18.2335 15.2866C18.2085 15.317 18.1833 15.347 18.1565 15.376C18.1466 15.387 18.1372 15.3985 18.1278 15.41C18.1092 15.4328 18.0895 15.4544 18.0694 15.4759C18.0605 15.4855 18.0518 15.4951 18.0432 15.505C18.0251 15.5257 18.0061 15.5456 17.9872 15.5656C17.9735 15.5801 17.96 15.5946 17.947 15.6097C17.934 15.6246 17.9201 15.6383 17.906 15.6521C17.898 15.6601 17.8907 15.6684 17.8834 15.6769C17.8653 15.6978 17.8455 15.7169 17.8258 15.7361C17.8148 15.7469 17.8044 15.7573 17.795 15.7694C17.7869 15.779 17.7792 15.7863 17.7697 15.7943C17.7494 15.8118 17.7305 15.8304 17.7116 15.8493C17.7063 15.8546 17.7063 15.8546 17.7009 15.86C17.6897 15.8711 17.6786 15.8823 17.6674 15.8935C17.6527 15.9082 17.6379 15.9229 17.6232 15.9376C17.6182 15.9426 17.6182 15.9426 17.6131 15.9477C17.5949 15.9659 17.5763 15.9833 17.5566 15.9999C17.5469 16.0083 17.5379 16.0172 17.529 16.0264C17.5142 16.0412 17.4991 16.0552 17.4831 16.0687C17.4709 16.0793 17.4589 16.0902 17.447 16.1011C17.4055 16.139 17.3634 16.176 17.3205 16.2123C17.3128 16.2189 17.305 16.2255 17.2973 16.2321C17.2595 16.2645 17.2212 16.296 17.1826 16.3274C17.1753 16.3333 17.168 16.3393 17.1607 16.3452C17.1125 16.3845 17.0637 16.4233 17.0141 16.4609C17.0048 16.4679 16.9956 16.475 16.9865 16.482C16.9475 16.512 16.9079 16.5409 16.8682 16.5698C16.8572 16.5779 16.8463 16.5859 16.8353 16.594C16.7975 16.6219 16.7593 16.6492 16.7203 16.6755C16.7055 16.6855 16.6908 16.6957 16.6761 16.7059C16.6352 16.7344 16.5942 16.7627 16.5516 16.7887C16.5327 16.8001 16.5143 16.8121 16.4961 16.8244C16.4177 16.8769 16.3358 16.9244 16.2545 16.9722C16.2503 16.9747 16.2462 16.9771 16.2419 16.9796C16.1845 17.0133 16.1265 17.0459 16.0677 17.0771C16.0525 17.0851 16.0375 17.0933 16.0225 17.1016C15.9693 17.1313 15.9152 17.1593 15.8608 17.1868C15.8563 17.1891 15.8519 17.1913 15.8473 17.1936C15.784 17.2256 15.7208 17.2574 15.6562 17.2868C15.6502 17.2895 15.6442 17.2923 15.6382 17.295C15.4635 17.3748 15.2862 17.4487 15.1055 17.5141C15.0888 17.5201 15.0721 17.5262 15.0555 17.5324C14.7457 17.647 14.4252 17.7342 14.1027 17.8051C14.0989 17.8059 14.0951 17.8068 14.0912 17.8076C13.6414 17.9065 13.1829 17.9631 12.68 17.9917C12.6752 17.992 12.6752 17.992 12.6704 17.9923C12.6463 17.9935 12.6223 17.9946 12.5982 17.9956C12.5938 17.9958 12.5894 17.996 12.5849 17.9962C12.4808 18.0004 12.3767 18.0007 12.2725 18.0006C12.2475 18.0006 12.2224 18.0006 12.1974 18.0007C12.1536 18.0007 12.1098 18.0007 12.066 18.0007C12.0191 18.0007 11.9722 18.0007 11.9253 18.0007C11.9223 18.0007 11.9193 18.0007 11.9162 18.0007C11.9041 18.0007 11.892 18.0007 11.8798 18.0007C11.7536 18.0008 11.6274 18.0008 11.5013 18.0008C11.4877 18.0008 11.4742 18.0008 11.4606 18.0008C11.4556 18.0008 11.4556 18.0008 11.4504 18.0008C11.3756 18.0008 11.3009 18.0008 11.2261 18.0008C11.1952 18.0008 11.1644 18.0008 11.1335 18.0008C11.1301 18.0008 11.1267 18.0008 11.1232 18.0008C10.9279 18.0008 10.7327 18.0009 10.5374 18.0009C10.5301 18.0009 10.5228 18.0009 10.5155 18.0009C10.4826 18.0009 10.4497 18.0009 10.4167 18.0009C10.402 18.0009 10.3874 18.0009 10.3727 18.0009C10.3653 18.0009 10.358 18.0009 10.3506 18.0009C10.1184 18.0009 9.88611 18.0009 9.65386 18.001C9.59536 18.001 9.53687 18.001 9.47837 18.001C9.47477 18.001 9.47117 18.001 9.46745 18.001C9.35622 18.001 9.24499 18.001 9.13376 18.001C9.13026 18.001 9.12677 18.001 9.12316 18.001C9.04634 18.0011 8.96952 18.0011 8.89269 18.0011C8.8652 18.0011 8.8377 18.0011 8.8102 18.0011C8.80336 18.0011 8.79653 18.0011 8.78969 18.0011C8.6812 18.0011 8.57271 18.0011 8.46422 18.0011C8.3548 18.0012 8.24537 18.0012 8.13594 18.0011C8.12074 18.0011 8.10553 18.0011 8.09033 18.0011C8.08735 18.0011 8.08437 18.0011 8.0813 18.0011C8.03178 18.0011 7.98226 18.0011 7.93274 18.0012C7.88935 18.0012 7.84596 18.0012 7.80257 18.0012C7.77798 18.0011 7.75338 18.0011 7.72878 18.0012C7.30625 18.0018 6.88385 17.9679 5.22767 17.6235C5.2242 17.6224 5.22073 17.6212 5.21716 17.6201C5.17026 17.605 5.12351 17.5895 5.07686 17.5737C5.06688 17.5703 5.05689 17.5669 5.0469 17.5635C4.75302 17.464 4.46654 17.3427 4.18948 17.2036C4.1755 17.1966 4.16147 17.1897 4.14742 17.1829C4.08298 17.1514 4.01949 17.119 3.95723 17.0834C3.9334 17.0698 3.90925 17.0569 3.88503 17.0439C3.82712 17.0129 3.77068 16.9793 3.71427 16.9456C3.70973 16.9429 3.70518 16.9402 3.7005 16.9374C3.61163 16.8844 3.52435 16.8291 3.43805 16.772C3.43499 16.77 3.43194 16.768 3.42879 16.7659C3.37124 16.7278 3.31402 16.6893 3.25752 16.6497C3.25444 16.6475 3.25135 16.6453 3.24817 16.6431C3.21335 16.6186 3.17904 16.5934 3.14474 16.5682C3.13387 16.5602 3.12297 16.5523 3.11205 16.5444C3.07322 16.5162 3.03508 16.4875 2.99772 16.4575C2.98268 16.4454 2.96738 16.4337 2.952 16.422C2.93045 16.4057 2.90931 16.3889 2.8884 16.3718C2.87534 16.3611 2.86221 16.3506 2.84906 16.34C2.81414 16.312 2.77965 16.2835 2.74552 16.2545C2.74303 16.2524 2.74053 16.2503 2.73796 16.2481C2.7249 16.237 2.71184 16.2259 2.6988 16.2148C2.68836 16.2059 2.67789 16.197 2.66738 16.1882C2.63475 16.1608 2.60312 16.1325 2.5719 16.1034C2.55864 16.0911 2.54506 16.0792 2.53132 16.0674C2.4966 16.0372 2.46305 16.0057 2.4294 15.9743C2.42625 15.9714 2.4231 15.9685 2.41986 15.9654C2.4054 15.9519 2.3911 15.9383 2.37717 15.9243C2.36676 15.9138 2.35604 15.904 2.34481 15.8945C2.3269 15.879 2.30997 15.8628 2.29322 15.8461C2.29027 15.8432 2.28732 15.8403 2.28429 15.8373C2.27811 15.8312 2.27194 15.825 2.26577 15.8189C2.25643 15.8096 2.24706 15.8003 2.23768 15.791C2.23164 15.785 2.2256 15.779 2.21956 15.773C2.2168 15.7703 2.21405 15.7676 2.21121 15.7648C2.1945 15.7481 2.17872 15.7309 2.16322 15.7131C2.15506 15.7039 2.14652 15.6951 2.13768 15.6865C2.13291 15.6818 2.13291 15.6818 2.12804 15.677C2.12482 15.6739 2.12161 15.6708 2.11829 15.6675C2.09689 15.6467 2.0762 15.6256 2.05663 15.603C2.04427 15.5889 2.03132 15.5754 2.0184 15.5618C1.99725 15.5394 1.97627 15.5168 1.95568 15.494C1.94931 15.4869 1.9429 15.4798 1.93646 15.4728C1.91931 15.4542 1.90269 15.4352 1.88671 15.4156C1.87222 15.3978 1.85719 15.3808 1.84151 15.3641C1.82285 15.3441 1.80513 15.3236 1.78792 15.3024C1.77692 15.2889 1.7658 15.2755 1.75465 15.2621C1.74117 15.2459 1.72772 15.2297 1.71427 15.2134C1.71178 15.2104 1.70929 15.2074 1.70673 15.2043C1.677 15.1684 1.64796 15.1321 1.61968 15.0951C1.60366 15.0742 1.58725 15.0536 1.57058 15.0332C1.55182 15.0101 1.53405 14.9866 1.51688 14.9624C1.5029 14.9427 1.48842 14.9234 1.47376 14.9041C1.44843 14.8708 1.42408 14.8369 1.4 14.8027C1.39241 14.7919 1.38478 14.7812 1.37715 14.7704C1.34783 14.7291 1.31896 14.6875 1.29092 14.6453C1.28573 14.6375 1.28049 14.6298 1.27524 14.6221C1.24206 14.5732 1.21021 14.5235 1.17856 14.4736C1.17622 14.4699 1.17388 14.4662 1.17147 14.4624C1.10444 14.3566 1.04055 14.2489 0.979617 14.1395C0.973968 14.1294 0.968253 14.1193 0.962477 14.1093C0.936791 14.0648 0.912975 14.0193 0.889235 13.9737C0.878932 13.9539 0.868511 13.9342 0.857977 13.9145C0.808373 13.8218 0.76241 13.7275 0.718737 13.6318C0.715358 13.6245 0.715358 13.6245 0.71191 13.617C0.599008 13.3714 0.499873 13.1195 0.415612 12.8629C0.409591 12.8445 0.403493 12.8262 0.397302 12.8079C0.275133 12.4468 0.188759 12.0711 0.124988 11.6958C0.124272 11.6916 0.123557 11.6874 0.12282 11.6831C0.101305 11.5563 0.0829692 11.4291 0.0669518 11.3015C0.0662123 11.2957 0.066212 11.2957 0.0654576 11.2897C0.0409514 11.0942 0.0245518 10.8981 0.0128398 10.7015C0.0124608 10.6951 0.0120811 10.6888 0.0116987 10.6824C0.00901395 10.6378 0.0065874 10.5931 0.00445184 10.5484C0.00420416 10.5433 0.00395607 10.5382 0.00370089 10.5329C-0.00212492 10.4063 -0.00084985 10.2794 -0.000838599 10.1527C-0.000839941 10.1305 -0.000876484 10.1082 -0.000931242 10.086C-0.00131764 9.92541 0.000666216 9.76521 0.00891613 9.60476C0.00908999 9.60132 0.00926342 9.59787 0.00944255 9.59432C0.0115222 9.55311 0.0139679 9.51192 0.0167286 9.47075C0.0170949 9.46519 0.0174608 9.45963 0.0178382 9.4539C0.0447317 9.04925 0.0982142 8.64591 0.486595 7.20358C0.487854 7.20026 0.489114 7.19694 0.490412 7.19352C0.565819 6.99519 0.64975 6.80015 0.743596 6.60971C0.751737 6.59307 0.759672 6.57634 0.767602 6.5596C0.788451 6.51564 0.810658 6.47257 0.833752 6.42973C0.839218 6.41954 0.844604 6.4093 0.849963 6.39905C0.876764 6.34784 0.905032 6.29754 0.933867 6.24744C0.9409 6.2352 0.947905 6.22294 0.954897 6.21068C0.993971 6.14216 1.03388 6.07423 1.07588 6.00742C1.07771 6.00451 1.07954 6.0016 1.08142 5.9986C1.11458 5.94591 1.14869 5.89391 1.18347 5.84227C1.19137 5.83052 1.19926 5.81876 1.20714 5.807C1.27788 5.70166 1.35163 5.5986 1.42922 5.49814C1.44213 5.48141 1.45488 5.46459 1.46753 5.44767C1.49455 5.41156 1.52276 5.37654 1.55156 5.34182C1.56035 5.33122 1.56909 5.32058 1.57783 5.30994C1.58462 5.30172 1.59141 5.29351 1.5982 5.2853C1.60048 5.28253 1.60277 5.27976 1.60512 5.27691C1.65061 5.22177 1.69653 5.16716 1.74486 5.11444C1.75521 5.1028 1.76502 5.09083 1.77482 5.07874C1.78926 5.06102 1.80424 5.04466 1.82089 5.02898C1.8322 5.01762 1.84262 5.00561 1.85317 4.99355C1.86671 4.97826 1.88074 4.96343 1.8948 4.9486C1.89773 4.9455 1.90067 4.94239 1.90369 4.93919C1.92085 4.9211 1.93826 4.90333 1.95614 4.88593C1.96392 4.87808 1.97113 4.86998 1.97832 4.8616C1.99678 4.84054 2.01648 4.82084 2.03638 4.80114C2.04213 4.79542 2.04213 4.79542 2.048 4.78959C2.05607 4.78159 2.06414 4.77359 2.07221 4.76559C2.08449 4.75343 2.09675 4.74124 2.109 4.72905C2.11688 4.72124 2.12476 4.71342 2.13264 4.70561C2.13627 4.70201 2.13989 4.6984 2.14362 4.69469C2.16264 4.67589 2.18198 4.65777 2.20238 4.64045C2.21204 4.63213 2.22099 4.62323 2.2299 4.61412C2.24466 4.59902 2.26023 4.58522 2.27622 4.57145C2.29164 4.55798 2.30651 4.54396 2.32142 4.52994C2.34219 4.51041 2.3632 4.49127 2.38481 4.47265C2.39479 4.46402 2.40456 4.45518 2.41433 4.44632C2.43384 4.42883 2.45402 4.41234 2.47446 4.39593C2.48624 4.38625 2.49761 4.37625 2.50892 4.36602C2.52966 4.34731 2.55113 4.3297 2.57292 4.31221C2.58136 4.30539 2.58975 4.29852 2.59813 4.29163C2.63034 4.26516 2.66267 4.23891 2.69564 4.21339C2.71193 4.20079 2.7281 4.18804 2.74419 4.17518C2.77279 4.15234 2.80172 4.13007 2.83122 4.10838C2.84072 4.10136 2.85017 4.09429 2.85962 4.08721C2.90895 4.05032 2.95856 4.01387 3.00892 3.97838C3.01244 3.97589 3.01597 3.97341 3.0196 3.97084C3.07895 3.92913 3.13928 3.88887 3.19976 3.8488C3.20339 3.84639 3.20702 3.84398 3.21076 3.8415C3.26348 3.80653 3.31675 3.77252 3.37052 3.73915C3.37739 3.73487 3.37739 3.73487 3.38439 3.73051C3.52109 3.64555 3.66108 3.56605 3.80356 3.49106C3.8091 3.48813 3.8091 3.48813 3.81475 3.48515C3.8352 3.47437 3.85571 3.46367 3.87625 3.45303C3.88515 3.44843 3.89404 3.44381 3.90294 3.43919C3.9748 3.40188 4.04695 3.36547 4.12052 3.33157C4.12327 3.3303 4.12601 3.32903 4.12884 3.32773C4.27306 3.26113 4.41884 3.19866 4.56695 3.14107C4.57165 3.13923 4.57635 3.13739 4.58119 3.13549C4.72494 3.07931 4.87092 3.02892 5.01784 2.98158C5.02254 2.98006 5.02254 2.98006 5.02733 2.97851C5.29607 2.89167 5.5713 2.82069 5.8482 2.7645C5.85213 2.7637 5.85606 2.7629 5.86011 2.76208C6.0433 2.72485 6.22722 2.69368 6.41238 2.66786C6.4154 2.66744 6.41842 2.66702 6.42154 2.66659C6.4847 2.65778 6.5479 2.64926 6.61121 2.64151C6.61571 2.64095 6.62021 2.64038 6.62484 2.6398C6.62905 2.6393 6.63327 2.6388 6.63761 2.63828C6.64122 2.63784 6.64484 2.6374 6.64857 2.63695C6.66448 2.63573 6.68046 2.63602 6.69642 2.63602C6.69642 3.5366 6.69642 4.43717 6.69642 5.36504C6.67518 5.37207 6.65472 5.37739 6.6329 5.38177C6.62547 5.38331 6.61803 5.38484 6.61059 5.38638C6.60667 5.38718 6.60276 5.38799 6.59872 5.38882C6.43727 5.42217 6.27788 5.46228 6.12052 5.51124C6.11693 5.51235 6.11334 5.51346 6.10964 5.51461C5.79751 5.61155 5.4903 5.73593 5.20716 5.89939C5.19394 5.90694 5.18056 5.91419 5.16716 5.92142C5.08211 5.96741 4.99938 6.01826 4.91941 6.07244C4.90809 6.08007 4.89666 6.08754 4.88523 6.09502C4.84549 6.12108 4.80661 6.14831 4.76784 6.17577C4.76295 6.17922 4.76295 6.17922 4.75795 6.18275C4.70983 6.21671 4.66282 6.25187 4.61643 6.28813C4.60772 6.29493 4.59898 6.30168 4.59023 6.30842C4.55965 6.33202 4.5298 6.35631 4.50034 6.38127C4.48781 6.39187 4.4751 6.40222 4.46232 6.41251C4.41831 6.44815 4.37554 6.48492 4.3341 6.52347C4.3206 6.53604 4.307 6.54839 4.29296 6.56037C4.27824 6.57296 4.2646 6.58637 4.2511 6.60024C4.24261 6.60843 4.23396 6.61605 4.22498 6.62369C4.20477 6.6412 4.18576 6.65974 4.16682 6.67858C4.16328 6.68209 4.15974 6.68561 4.15609 6.68922C4.14865 6.6966 4.14122 6.70398 4.13379 6.71137C4.12251 6.7226 4.1112 6.7338 4.09988 6.74499C4.09262 6.75221 4.08536 6.75942 4.07809 6.76663C4.07476 6.76994 4.07141 6.77325 4.06797 6.77665C4.0499 6.79466 4.03257 6.81304 4.01594 6.83238C4.0087 6.84055 4.00112 6.8482 3.99329 6.85581C3.97974 6.86905 3.9672 6.88291 3.95479 6.89721C3.94564 6.90764 3.93627 6.91786 3.92688 6.92808C3.90958 6.9471 3.89319 6.9667 3.87696 6.98662C3.86482 7.00129 3.85235 7.01563 3.83983 7.02997C3.81767 7.05544 3.79653 7.08155 3.77574 7.10813C3.76747 7.11869 3.75909 7.12916 3.7506 7.13955C3.7175 7.18006 3.68604 7.22161 3.65513 7.26379C3.64745 7.27428 3.63973 7.28475 3.63201 7.29522C3.60369 7.33376 3.57632 7.37277 3.54996 7.41265C3.54463 7.42067 3.53924 7.42864 3.53384 7.4366C3.31667 7.75652 3.14166 8.10723 3.00892 8.48835C3.00789 8.4913 3.00686 8.49424 3.00581 8.49728C2.86608 8.89875 2.77983 9.31621 2.71874 10.0478C2.71855 10.0519 2.71836 10.0561 2.71816 10.0604C2.71406 10.1525 2.71337 10.2446 2.71344 10.3369C2.71344 10.3406 2.71344 10.3443 2.71344 10.3482C2.71361 10.7757 2.75312 11.2021 3.18302 12.5952C3.18614 12.6018 3.18614 12.6018 3.18932 12.6085C3.28849 12.8179 3.40413 13.0194 3.5373 13.2093C3.54478 13.22 3.55221 13.2308 3.55964 13.2415C3.59517 13.2926 3.6324 13.3421 3.67062 13.3912C3.67764 13.4003 3.68462 13.4093 3.69159 13.4184C3.71489 13.4487 3.73891 13.4784 3.76338 13.5078C3.7698 13.5156 3.77622 13.5235 3.78263 13.5313C3.80469 13.5581 3.82733 13.5843 3.85008 13.6104C3.85706 13.6185 3.86401 13.6265 3.87094 13.6346C3.90538 13.6746 3.9413 13.713 3.97782 13.7511C3.98602 13.7597 3.99416 13.7684 4.00225 13.7771C4.03706 13.8145 4.07286 13.8508 4.10908 13.8869C4.11138 13.8891 4.11368 13.8914 4.11605 13.8938C4.13976 13.9174 4.16362 13.9406 4.18916 13.9623C4.19798 13.9699 4.20617 13.9779 4.21427 13.9863C4.22824 14.0003 4.2427 14.0134 4.25778 14.0262C4.26766 14.0348 4.27732 14.0436 4.28695 14.0525C4.31021 14.0739 4.33402 14.0942 4.35875 14.114C4.37018 14.1233 4.38111 14.133 4.39201 14.143C4.41154 14.1606 4.43189 14.1768 4.45275 14.1929C4.4697 14.2059 4.48641 14.2192 4.50297 14.2328C4.54342 14.2658 4.58504 14.297 4.62712 14.328C4.63808 14.336 4.64901 14.3441 4.65993 14.3522C4.70843 14.3881 4.75786 14.4223 4.80802 14.4559C4.81361 14.4596 4.8192 14.4634 4.82478 14.4671C4.89208 14.5122 4.96062 14.5557 5.03061 14.5965C5.0376 14.6006 5.04458 14.6047 5.05155 14.6088C5.11664 14.6471 5.18252 14.6836 5.2494 14.7188C5.26267 14.7257 5.2759 14.7328 5.28914 14.7398C5.35003 14.772 5.41211 14.8012 5.4749 14.8296C5.48563 14.8344 5.49636 14.8393 5.50708 14.8441C5.58852 14.8812 5.67079 14.9158 5.75445 14.9476C5.7576 14.9488 5.76076 14.95 5.764 14.9513C6.14908 15.0976 6.55041 15.1974 7.4294 15.2962C7.43391 15.2965 7.43843 15.2968 7.44308 15.297C7.58242 15.3052 7.72156 15.3071 7.86111 15.3071C7.88474 15.3071 7.90837 15.3071 7.932 15.3071C7.97328 15.3071 8.01455 15.3071 8.05583 15.3071C8.11721 15.3071 8.17859 15.3071 8.23998 15.3071C8.35604 15.3072 8.47211 15.3072 8.58817 15.3072C8.60094 15.3072 8.61372 15.3072 8.62649 15.3072C8.62966 15.3072 8.63283 15.3072 8.6361 15.3072C8.7066 15.3072 8.7771 15.3072 8.8476 15.3072C8.8767 15.3072 8.9058 15.3072 8.9349 15.3072C8.93812 15.3072 8.94134 15.3072 8.94465 15.3072C9.12878 15.3073 9.31291 15.3073 9.49704 15.3073C9.50392 15.3073 9.5108 15.3073 9.51768 15.3073C9.54874 15.3073 9.57979 15.3073 9.61085 15.3073C9.6247 15.3073 9.63854 15.3073 9.65239 15.3073C9.65932 15.3073 9.66625 15.3073 9.67318 15.3073C9.89213 15.3073 10.1111 15.3073 10.33 15.3074C10.3852 15.3074 10.4403 15.3074 10.4954 15.3074C10.5005 15.3074 10.5005 15.3074 10.5057 15.3074C10.6106 15.3075 10.7155 15.3075 10.8204 15.3075C10.8237 15.3075 10.827 15.3075 10.8304 15.3075C10.9028 15.3075 10.9753 15.3075 11.0477 15.3075C11.0737 15.3075 11.0996 15.3075 11.1256 15.3075C11.132 15.3075 11.1385 15.3075 11.1449 15.3075C11.2472 15.3075 11.3494 15.3075 11.4517 15.3075C11.5578 15.3076 11.6638 15.3076 11.7699 15.3076C11.8255 15.3075 11.8811 15.3075 11.9368 15.3076C12.2453 15.3086 12.2453 15.3086 12.5536 15.2976C12.5577 15.2974 12.5619 15.2971 12.5662 15.2969C12.9988 15.272 13.429 15.2057 14.4777 14.859C14.4826 14.8568 14.4875 14.8546 14.4925 14.8524C14.5264 14.8372 14.5601 14.8216 14.5937 14.8058C14.5988 14.8035 14.6038 14.8011 14.6091 14.7987C14.7294 14.7424 14.847 14.6813 14.9612 14.6136C14.9728 14.6067 14.9845 14.5999 14.9962 14.593C15.0859 14.5402 15.1732 14.4839 15.2589 14.4248C15.2623 14.4225 15.2657 14.4202 15.2692 14.4178C15.3704 14.3479 15.4683 14.2739 15.5636 14.1964C15.5706 14.1907 15.5776 14.1851 15.5846 14.1795C15.6313 14.1418 15.6769 14.1029 15.7212 14.0626C15.7306 14.0541 15.7401 14.0457 15.7497 14.0375C15.7714 14.0187 15.7926 13.9995 15.8137 13.9801C15.8189 13.9753 15.824 13.9706 15.8292 13.9658C15.8748 13.9242 15.9188 13.8812 15.9626 13.8378C15.9667 13.8338 15.9667 13.8338 15.9709 13.8297C16.0098 13.7912 16.0098 13.7912 16.0465 13.7507C16.06 13.7352 16.0745 13.7206 16.0887 13.7058C16.1122 13.6812 16.1347 13.6563 16.1559 13.6298C16.166 13.6175 16.1767 13.6059 16.1875 13.5942C16.2093 13.5706 16.2297 13.546 16.25 13.5211C16.2546 13.5155 16.2592 13.5099 16.2638 13.5043C16.3164 13.4405 16.3663 13.375 16.4152 13.3084C16.4173 13.3055 16.4194 13.3026 16.4216 13.2997C16.4937 13.201 16.5621 13.0986 16.625 12.9939C16.6275 12.9898 16.6299 12.9856 16.6325 12.9814C16.6696 12.9195 16.7049 12.8568 16.739 12.7933C16.7448 12.7825 16.7507 12.7717 16.7566 12.761C16.9171 12.4649 17.039 12.1449 17.125 11.8199C17.126 11.8161 17.127 11.8123 17.128 11.8084C17.2281 11.432 17.2853 11.0452 17.3031 10.6563C17.3034 10.6489 17.3038 10.6414 17.3041 10.634C17.3086 10.5394 17.3089 10.4448 17.3089 10.3502C17.3089 10.3461 17.3089 10.3421 17.3089 10.338C17.3088 10.2101 17.3077 10.0825 17.2991 9.95475C17.2988 9.95034 17.2985 9.94594 17.2982 9.94139C17.2701 9.52133 17.2055 9.1033 16.9286 8.26241C16.9266 8.25775 16.9247 8.2531 16.9227 8.2483C16.8501 8.07302 16.7687 7.89995 16.6741 7.73521C16.6717 7.7311 16.6694 7.72699 16.6669 7.72275C16.6049 7.61506 16.539 7.51 16.4687 7.40737C16.4664 7.40401 16.4641 7.40064 16.4618 7.39717C16.3701 7.26277 16.2703 7.1337 16.1643 7.01007C16.1561 7.0004 16.1478 6.99068 16.1396 6.98093C16.1166 6.95357 16.093 6.92687 16.0684 6.90084C16.0569 6.88867 16.0457 6.87634 16.0347 6.86373C15.9826 6.80457 15.9265 6.74897 15.8705 6.69352C15.8592 6.68235 15.848 6.67116 15.8367 6.65996C15.8294 6.65273 15.8221 6.64551 15.8149 6.63828C15.8099 6.63335 15.8099 6.63335 15.8049 6.62832C15.7868 6.61054 15.7685 6.59347 15.7492 6.57705C15.7349 6.56479 15.7213 6.55188 15.7076 6.53905C15.6876 6.52043 15.6675 6.50195 15.6467 6.48421C15.6369 6.47572 15.6273 6.46695 15.6177 6.4582C15.5978 6.44036 15.5771 6.42401 15.5559 6.40776C15.5361 6.39247 15.5171 6.37639 15.4983 6.3599C15.4704 6.33553 15.4413 6.31325 15.4114 6.29137C15.3952 6.2795 15.3793 6.2672 15.3635 6.25479C15.3297 6.22828 15.2952 6.20334 15.2594 6.17945C15.2348 6.16297 15.2106 6.14588 15.1867 6.12842C15.1564 6.10649 15.1254 6.08629 15.0934 6.0669C15.0791 6.05822 15.0651 6.04919 15.0512 6.04001C14.9613 5.98118 14.8676 5.92783 14.7726 5.87768C14.7542 5.868 14.7363 5.85786 14.7185 5.84738C14.6799 5.82528 14.6394 5.80702 14.5991 5.78821C14.5845 5.78132 14.5699 5.77431 14.5553 5.76727C14.2501 5.61974 13.9281 5.50994 13.5987 5.4294C13.5956 5.42865 13.5926 5.42791 13.5894 5.42714C13.4946 5.40423 13.3991 5.38499 13.3036 5.36504C13.3036 4.463 13.3036 3.56096 13.3036 2.63159Z" fill="#005E29"/>
<path d="M8.62061 0C9.53105 0 10.4415 0 11.3795 0C11.3795 2.9181 11.3795 5.8362 11.3795 8.84273C10.4691 8.84273 9.55864 8.84273 8.62061 8.84273C8.62061 5.92463 8.62061 3.00653 8.62061 0Z" fill="#EC3136"/>
</g>
<defs>
<clipPath id="clip0_1465_1931">
<rect width="20" height="18" fill="white"/>
</clipPath>
</defs>
</svg>
