<?xml version="1.0" encoding="UTF-8"?>
<svg version="1.1" xmlns="http://www.w3.org/2000/svg" width="4480" height="4063">
<path d="M0 0 C43.9564715 4.75205097 43.9564715 4.75205097 64.125 7.625 C65.30369659 7.79163147 66.48239319 7.95826294 67.69680786 8.12994385 C172.94171173 23.06667037 276.5618682 46.34829524 510 127 C511.20382324 127.49838379 512.40764648 127.99676758 513.64794922 128.51025391 C562.91820572 148.95899744 611.8742664 171.54839225 658.45410156 197.59033203 C661.22513407 199.12465709 664.01241229 200.62578951 666.8046875 202.12109375 C679.90116196 209.13448893 692.80412531 216.42001966 705.59033203 223.98388672 C708.02458445 225.42324348 710.46024845 226.8599675 712.89794922 228.29345703 C742.49980939 245.70275815 742.49980939 245.70275815 756.14746094 254.77587891 C758.74466148 256.49205755 761.36541153 258.17073549 763.98510742 259.85229492 C789.14282056 276.02194273 813.82533208 292.9068368 837.98583984 310.53125 C839.89043519 311.92010402 841.79838066 313.3042271 843.70703125 314.6875 C853.74334782 321.98207613 863.59867439 329.51134992 873.45019531 337.05273438 C875.80278687 338.84938989 878.16147787 340.63756284 880.5234375 342.421875 C889.92627778 349.53840822 899.07926219 356.91291273 908.14160156 364.45751953 C910.6639979 366.55112175 913.20654581 368.61956116 915.75 370.6875 C920.26638725 374.37588292 924.71928333 378.13463295 929.16064453 381.91259766 C932.61198103 384.84320979 936.10245154 387.71736471 939.625 390.5625 C944.38520053 394.43579272 948.92804784 398.50759992 953.4453125 402.66015625 C955.62697815 404.65834848 957.83011309 406.62148889 960.0625 408.5625 C964.76171506 412.64919008 969.37676613 416.82781334 974 421 C974.804375 421.721875 975.60875 422.44375 976.4375 423.1875 C982.40568405 428.54356261 988.3441564 433.93102709 994.23576355 439.37120056 C995.37104522 440.41932885 996.50721528 441.46649612 997.64448547 442.51246643 C1011.55338324 455.33479278 1024.88898685 468.73468695 1038.25097656 482.12060547 C1041.50060577 485.37598568 1044.7547812 488.62677887 1048.01025581 491.87631226 C1050.5498204 494.41224934 1053.08698165 496.95058019 1055.62343979 499.48962402 C1056.82266025 500.68950487 1058.02260533 501.88866201 1059.22333145 503.08703613 C1070.44916849 514.29566061 1070.44916849 514.29566061 1075.57519531 520.33364868 C1078.23495577 523.44431738 1081.06968914 526.39607953 1083.875 529.375 C1091.97356674 538.02094022 1099.86882256 546.80533951 1107.55249023 555.82177734 C1110.54525092 559.32710503 1113.58318224 562.77979342 1116.6875 566.1875 C1120.48189627 570.37019176 1124.06423823 574.69345802 1127.6171875 579.08203125 C1130.20756393 582.25418075 1132.84705232 585.38023644 1135.5 588.5 C1143.70564351 598.1682038 1151.65334536 608.02534977 1159.45507812 618.02099609 C1160.52318612 619.38921408 1161.59225921 620.756679 1162.66210938 622.12353516 C1170.3714894 631.9736837 1177.99734147 641.87865357 1185.45507812 651.92089844 C1186.50925131 653.33956766 1187.56532412 654.75682682 1188.62304688 656.17285156 C1198.38372487 669.24213745 1207.79879293 682.53189218 1217 696 C1217.53139587 696.77776794 1218.06279175 697.55553589 1218.61029053 698.35687256 C1222.35831485 703.84675662 1226.09546418 709.34391331 1229.82418823 714.84692383 C1231.08598217 716.70807239 1232.34937238 718.56813997 1233.61453247 720.42700195 C1241.20186487 731.5825898 1248.46503381 742.85487457 1255.30834961 754.4831543 C1258.03402466 759.10151224 1260.90872919 763.61714512 1263.8125 768.125 C1277.40173905 789.43307133 1289.4450736 811.73625568 1301.5 833.9375 C1301.99773926 834.85354004 1302.49547852 835.76958008 1303.00830078 836.71337891 C1311.54432644 852.48545838 1319.80085229 868.39315104 1327.8125 884.4375 C1328.24475891 885.30262207 1328.67701782 886.16774414 1329.12237549 887.05908203 C1336.70188755 902.24664373 1344.05112699 917.51162719 1351 933 C1351.40581299 933.90283722 1351.40581299 933.90283722 1351.81982422 934.82391357 C1387.30225334 1013.82179996 1415.711933 1095.86225968 1498.125 1575.25 C1498.18305313 1576.34380981 1498.18305313 1576.34380981 1498.24227905 1577.4597168 C1499.58852416 1603.18844593 1500.16060643 1628.91035397 1500.16796875 1654.671875 C1500.16940246 1656.02758044 1500.17100058 1657.38328572 1500.17275429 1658.73899078 C1500.18191155 1665.85236523 1500.18610239 1672.96572142 1500.18530273 1680.07910156 C1500.18477323 1685.82392191 1500.19177197 1691.56867365 1500.20581055 1697.31347656 C1500.43369146 1792.77218042 1494.53896694 1887.95860383 1441 2194 C1440.79673096 2194.80576477 1440.59346191 2195.61152954 1440.3840332 2196.44171143 C1424.51448999 2259.31152115 1405.1353194 2321.41447163 1382 2382 C1381.7520166 2382.65093628 1381.5040332 2383.30187256 1381.24853516 2383.97253418 C1377.92566289 2392.68640308 1374.49650998 2401.35449539 1371 2410 C1370.74301331 2410.637099 1370.48602661 2411.274198 1370.22125244 2411.93060303 C1347.92911622 2467.18730509 1323.61136385 2522.16039587 1294.62109375 2574.2578125 C1291.99270424 2578.98137909 1289.49183939 2583.76590662 1287 2588.5625 C1281.61293892 2598.87092829 1275.84297682 2608.94460667 1270 2619 C1269.36143066 2620.10166504 1268.72286133 2621.20333008 1268.06494141 2622.33837891 C1257.97949018 2639.72775924 1247.66524111 2656.95821464 1237 2674 C1236.39994141 2674.96131836 1235.79988281 2675.92263672 1235.18164062 2676.91308594 C1226.1678957 2691.30853789 1216.74691884 2705.42054048 1207.25 2719.5 C1206.68235931 2720.34218079 1206.11471863 2721.18436157 1205.52987671 2722.05206299 C1197.82728595 2733.46963427 1189.98926843 2744.78126338 1182 2756 C1181.37319336 2756.88300781 1180.74638672 2757.76601562 1180.10058594 2758.67578125 C1171.89145285 2770.21294127 1163.35073872 2781.48393117 1154.73876953 2792.72216797 C1152.53323088 2795.61147934 1150.35786318 2798.52168113 1148.1875 2801.4375 C1143.69259777 2807.4506045 1139.04915579 2813.34176528 1134.39404297 2819.23095703 C1133.03926487 2820.95017281 1131.69210791 2822.6750449 1130.34765625 2824.40234375 C1123.65404635 2832.99183873 1116.76662566 2841.40995436 1109.8203125 2849.79589844 C1107.97729543 2852.02749154 1106.14361318 2854.26644462 1104.3125 2856.5078125 C1098.70048461 2863.37036397 1093.06072071 2870.15226214 1087.06640625 2876.6875 C1084.83298931 2879.18690043 1082.72739957 2881.76461324 1080.625 2884.375 C1076.45853349 2889.52481088 1072.04431035 2894.38823162 1067.54296875 2899.2421875 C1065.55011761 2901.40340548 1063.60292215 2903.58346969 1061.6875 2905.8125 C1057.63302658 2910.49526954 1053.36517116 2914.97974071 1049.12719727 2919.49560547 C1046.06754693 2922.76223817 1043.04279665 2926.04236795 1040.125 2929.4375 C1037.22781307 2932.8078456 1034.11072398 2935.90616916 1030.9453125 2939.0234375 C1029.16483712 2940.8325149 1027.51457414 2942.68881949 1025.875 2944.625 C1021.83708789 2949.33745891 1017.40371552 2953.64859056 1012.97412109 2957.98876953 C1010.51570594 2960.41186068 1008.18998994 2962.75451603 1006.07421875 2965.48828125 C1004.26990213 2967.67316936 1002.55447865 2969.30281117 1000.4074707 2971.1237793 C995.86440429 2975.06138928 991.63206475 2979.2582348 987.40625 2983.53125 C986.21980896 2984.72337097 986.21980896 2984.72337097 985.00939941 2985.9395752 C982.50380477 2988.45728432 980.00149142 2990.97821446 977.5 2993.5 C974.2008832 2996.82588189 970.89835626 3000.14832336 967.59375 3003.46875 C966.47933533 3004.59561218 966.47933533 3004.59561218 965.34240723 3005.74523926 C961.25931368 3009.84721363 957.08598866 3013.76910859 952.68896484 3017.53369141 C950.51603914 3019.42016029 948.50307192 3021.43529509 946.5 3023.5 C943.19092999 3026.84853082 939.79249043 3029.99655891 936.22265625 3033.0625 C933.48006182 3035.45323258 930.80159862 3037.91107767 928.125 3040.375 C918.83068001 3048.91592227 909.40665666 3057.27161932 899.80126953 3065.46044922 C898.05966314 3066.94900573 896.32371844 3068.44385522 894.58984375 3069.94140625 C886.13169391 3077.23992196 877.54265038 3084.36952166 868.89794922 3091.44580078 C867.26473857 3092.78320996 865.63407432 3094.12372765 864.00390625 3095.46484375 C853.19336758 3104.34779752 842.27479414 3113.09138331 831.15625 3121.5859375 C829.08841303 3123.16752568 827.02569756 3124.75583771 824.96875 3126.3515625 C816.25112698 3133.10992176 807.37904573 3139.64879904 798.48486328 3146.17236328 C796.02500556 3147.98160821 793.57201984 3149.79977239 791.12109375 3151.62109375 C782.63923346 3157.91763375 774.09668513 3164.08259959 765.359375 3170.01953125 C762.03689317 3172.28010038 758.74154661 3174.5768876 755.453125 3176.88671875 C746.27771355 3183.32741445 737.11364006 3189.71119216 727.55224609 3195.56811523 C723.33453451 3198.15185571 719.2163761 3200.84625241 715.125 3203.625 C697.5767361 3215.47540268 679.21267989 3226.20845191 661 3237 C660.07541992 3237.54865723 659.15083984 3238.09731445 658.19824219 3238.66259766 C645.33285724 3246.28088153 632.34797249 3253.61916663 619.1640625 3260.671875 C615.774014 3262.48767704 612.40123432 3264.32941602 609.04858398 3266.21313477 C597.11581803 3272.91537546 585.01025875 3279.23222293 572.8125 3285.4375 C571.81578278 3285.94534027 570.81906555 3286.45318054 569.79214478 3286.97640991 C555.62268195 3294.19263574 541.45759475 3301.37488294 527 3308 C525.65196441 3308.62130251 524.30398682 3309.24273088 522.95605469 3309.86425781 C483.81722255 3327.87988222 444.1207728 3344.5465607 403.63769531 3359.3046875 C399.89419386 3360.66993466 396.15845881 3362.05494905 392.42521667 3363.44796753 C323.03403491 3389.31213687 251.25715452 3408.99345321 179 3425 C178.15123291 3425.18844482 177.30246582 3425.37688965 176.42797852 3425.57104492 C75.6799329 3447.88591641 -27.0194617 3460.66105057 -139.6875 3467.125 C-140.74659576 3467.18291718 -140.74659576 3467.18291718 -141.8270874 3467.24200439 C-147.21654817 3467.53293666 -152.60751546 3467.77263474 -158 3468 C-158.98190422 3468.04164867 -159.96380845 3468.08329735 -160.97546735 3468.1262081 C-184.30039045 3469.07820739 -207.60699834 3469.14621142 -230.94825097 3469.13466892 C-236.56124466 3469.1330132 -242.17423483 3469.1371952 -247.78722733 3469.14057809 C-257.59574804 3469.14569758 -267.40426381 3469.14715534 -277.21278572 3469.14612198 C-287.72174457 3469.14501756 -298.23070007 3469.14605155 -308.73965836 3469.14969444 C-309.40706866 3469.1499241 -310.07447896 3469.15015375 -310.76211381 3469.15039036 C-313.48106833 3469.15133216 -316.20002285 3469.15228787 -318.91897736 3469.15326155 C-347.18358633 3469.16336837 -375.44819331 3469.16646616 -403.71280388 3469.16705366 C-406.74872409 3469.16711842 -409.7846443 3469.16718636 -412.82056451 3469.16725707 C-413.95083377 3469.16728258 -413.95083377 3469.16728258 -415.10393675 3469.1673086 C-431.85342301 3469.16771827 -448.60290889 3469.1699121 -465.35239495 3469.17241292 C-472.26443337 3469.17344138 -479.17647179 3469.17443146 -486.08851022 3469.17542917 C-486.85239857 3469.17553975 -487.61628692 3469.17565034 -488.40332341 3469.17576428 C-532.13994447 3469.18208268 -575.87656529 3469.18621403 -619.61318684 3469.18575573 C-621.24765323 3469.18573995 -622.88211962 3469.18572422 -624.51658601 3469.18570852 C-631.89487895 3469.18563515 -639.27317188 3469.18554698 -646.65146482 3469.18545464 C-649.94114157 3469.18541351 -653.23081831 3469.18537337 -656.52049506 3469.18533332 C-658.16703215 3469.18531293 -659.81356923 3469.18529191 -661.46010631 3469.18527026 C-713.48439344 3469.18459056 -765.50867376 3469.19190034 -817.53295898 3469.20581055 C-830.63593449 3469.20931216 -843.73891001 3469.21278188 -856.84188557 3469.21607494 C-857.64891226 3469.21627782 -858.45593896 3469.21648069 -859.28742101 3469.21668971 C-884.203148 3469.22291504 -909.11887443 3469.22667227 -934.03460217 3469.22793293 C-934.81808766 3469.22797288 -935.60157316 3469.22801283 -936.40880064 3469.22805399 C-953.61716928 3469.2289077 -970.82553789 3469.22916832 -988.03390655 3469.22888362 C-994.19308244 3469.22878715 -1000.35225833 3469.22873509 -1006.51143422 3469.22870489 C-1008.04341823 3469.22869697 -1009.57540224 3469.22868677 -1011.10738625 3469.22867426 C-1035.40885273 3469.22849873 -1059.71031332 3469.23416401 -1084.01177812 3469.24282808 C-1108.52305781 3469.25152247 -1133.03432942 3469.25363154 -1157.54561001 3469.24706676 C-1160.95164715 3469.24615479 -1164.3576843 3469.24531143 -1167.76372147 3469.24450874 C-1168.43123287 3469.24434866 -1169.09874428 3469.24418857 -1169.7864833 3469.24402363 C-1180.87871318 3469.24155338 -1191.97092969 3469.24689386 -1203.06315687 3469.25445829 C-1212.78237211 3469.26052103 -1222.50156904 3469.25909417 -1232.22078348 3469.25198779 C-1237.73041355 3469.24815846 -1243.23999451 3469.24717497 -1248.74962083 3469.25544515 C-1343.39602178 3469.38795805 -1438.01411302 3461.74249626 -1809 3384 C-1809.77653931 3383.74861267 -1810.55307861 3383.49722534 -1811.35314941 3383.23822021 C-1821.85805214 3379.83054836 -1832.33031419 3376.33063991 -1842.78039551 3372.75854492 C-1845.01677045 3371.99426874 -1847.25398758 3371.23249168 -1849.49121094 3370.47070312 C-1915.32075511 3348.00754324 -1979.49218792 3320.62427333 -2041.5546875 3289.234375 C-2044.68527018 3287.65321156 -2047.82764013 3286.09707898 -2050.97465515 3284.54888916 C-2065.41050799 3277.44487943 -2079.63142468 3270.13747743 -2093.578125 3262.1015625 C-2098.91504002 3259.02757597 -2104.32582264 3256.10376128 -2109.75 3253.1875 C-2122.72318258 3246.17075743 -2135.36489866 3238.60282605 -2148 3231 C-2149.01803711 3230.38833984 -2150.03607422 3229.77667969 -2151.08496094 3229.14648438 C-2170.99127126 3217.16734992 -2190.54308967 3204.69498339 -2209.875 3191.8125 C-2210.55906921 3191.35681641 -2211.24313843 3190.90113281 -2211.94793701 3190.43164062 C-2224.83934989 3181.8365902 -2237.65633736 3173.12623169 -2250.3125 3164.1875 C-2251.00359863 3163.69942871 -2251.69469727 3163.21135742 -2252.40673828 3162.70849609 C-2260.20784632 3157.17565924 -2267.89196107 3151.48575789 -2275.57519531 3145.79101562 C-2278.01002209 3143.99259746 -2280.45284862 3142.20562456 -2282.8984375 3140.421875 C-2291.5957247 3134.06978653 -2300.1385876 3127.58698364 -2308.5078125 3120.80859375 C-2311.87731626 3118.0836175 -2315.30417111 3115.4399126 -2318.75 3112.8125 C-2323.57669339 3109.12414349 -2328.31102461 3105.3393727 -2332.99609375 3101.47265625 C-2335.92083783 3099.0651621 -2338.86236826 3096.67984355 -2341.80786133 3094.29785156 C-2349.62891925 3087.96858631 -2357.35524319 3081.54079585 -2365 3075 C-2365.55896973 3074.52208008 -2366.11793945 3074.04416016 -2366.69384766 3073.55175781 C-2369.62050062 3071.04838451 -2372.54411968 3068.5415376 -2375.46484375 3066.03125 C-2377.80370845 3064.02226658 -2380.15028806 3062.02292467 -2382.50390625 3060.03125 C-2389.81209349 3053.83351566 -2396.89727619 3047.44497457 -2403.890625 3040.89453125 C-2406.86188069 3038.11585695 -2409.90426248 3035.43125921 -2412.98046875 3032.76953125 C-2420.75970263 3025.95329731 -2428.2741506 3018.82984222 -2435.8125 3011.75 C-2436.51753662 3011.0887915 -2437.22257324 3010.42758301 -2437.94897461 3009.74633789 C-2441.18854558 3006.69622892 -2444.38973145 3003.62371385 -2447.51171875 3000.453125 C-2449.84399943 2998.0992528 -2452.24447793 2995.88857764 -2454.76074219 2993.7331543 C-2458.77134631 2990.24265269 -2462.56411504 2986.58105114 -2466.31640625 2982.81640625 C-2466.97656235 2982.15720688 -2467.63671844 2981.49800751 -2468.31687927 2980.8188324 C-2469.70035506 2979.43603165 -2471.08259083 2978.05198924 -2472.46362305 2976.66674805 C-2474.55731669 2974.56769657 -2476.65629874 2972.4740406 -2478.75585938 2970.38085938 C-2480.10969571 2969.02636214 -2481.46322175 2967.67155469 -2482.81640625 2966.31640625 C-2483.43326797 2965.70156876 -2484.0501297 2965.08673126 -2484.6856842 2964.45326233 C-2488.42806128 2960.6910355 -2491.96432287 2956.80124694 -2495.43492126 2952.78746033 C-2497.26318947 2950.69941402 -2499.17588642 2948.7252024 -2501.15625 2946.78125 C-2502.22552734 2945.72357422 -2502.22552734 2945.72357422 -2503.31640625 2944.64453125 C-2504.03699219 2943.93683594 -2504.75757812 2943.22914063 -2505.5 2942.5 C-2510.29406503 2937.79169642 -2514.92801937 2933.0368607 -2519.31152344 2927.94238281 C-2522.08060996 2924.75689231 -2524.98155258 2921.69718066 -2527.875 2918.625 C-2532.61327431 2913.57096604 -2537.31182098 2908.48863029 -2541.92578125 2903.3203125 C-2543.35244999 2901.72437798 -2544.78787168 2900.13623875 -2546.23046875 2898.5546875 C-2550.07182454 2894.33646892 -2553.79353546 2890.06678076 -2557.375 2885.625 C-2560.61954911 2881.61170754 -2563.98774093 2877.77611928 -2567.5 2874 C-2571.67872196 2869.49801435 -2575.6490896 2864.87619632 -2579.50390625 2860.09375 C-2581.96759004 2857.04017009 -2584.45787948 2854.01044944 -2586.95605469 2850.98510742 C-2589.97597864 2847.32774444 -2592.98785766 2843.66377215 -2596 2840 C-2596.55768066 2839.32243652 -2597.11536133 2838.64487305 -2597.68994141 2837.94677734 C-2604.34968823 2829.84537257 -2610.85370983 2821.64968204 -2617.18896484 2813.29174805 C-2620.77747219 2808.56617514 -2624.45249621 2803.92282959 -2628.1875 2799.3125 C-2632.38972821 2794.11104044 -2636.37105269 2788.80245596 -2640.21606445 2783.33251953 C-2643.3482463 2778.88214635 -2646.59035915 2774.5262937 -2649.875 2770.1875 C-2655.54913045 2762.67004785 -2661.00283229 2755.01238491 -2666.39648438 2747.29199219 C-2668.09773951 2744.8602956 -2669.80616681 2742.43374852 -2671.515625 2740.0078125 C-2678.0835085 2730.6755814 -2684.55022672 2721.29072758 -2690.83203125 2711.76367188 C-2691.99430323 2710.00860231 -2693.16708719 2708.26107332 -2694.34375 2706.515625 C-2701.77479905 2695.479248 -2708.91094617 2684.25838544 -2716 2673 C-2716.52432617 2672.16791016 -2717.04865234 2671.33582031 -2717.58886719 2670.47851562 C-2732.60172014 2646.59225118 -2746.91453425 2622.27540525 -2760.56298828 2597.5859375 C-2761.82829229 2595.3089922 -2763.10861052 2593.04212167 -2764.40234375 2590.78125 C-2770.15601052 2580.72224005 -2775.49090109 2570.45929525 -2780.80859375 2560.1640625 C-2783.11645359 2555.69639679 -2785.45083155 2551.24428606 -2787.81030273 2546.80371094 C-2798.92156558 2525.87176082 -2809.21741053 2504.58165465 -2819 2483 C-2819.75700195 2481.34121826 -2819.75700195 2481.34121826 -2820.52929688 2479.64892578 C-2845.81931709 2424.21339282 -2868.0256934 2367.36230316 -2886.90016174 2309.4254303 C-2888.248888 2305.285517 -2889.61464304 2301.1520348 -2891.00138855 2297.02470398 C-2918.36727726 2215.51272986 -2937.71520482 2130.70710411 -2952 2046 C-2952.16028687 2045.05098816 -2952.32057373 2044.10197632 -2952.48571777 2043.12420654 C-2957.30506917 2014.50400164 -2961.41210973 1985.79967736 -2965 1957 C-2965.1656546 1955.6740683 -2965.1656546 1955.6740683 -2965.33465576 1954.3213501 C-2970.8240381 1910.20969635 -2974.49748947 1865.92503802 -2977.12098312 1821.55685425 C-2977.2058793 1820.12114228 -2977.29114795 1818.68545228 -2977.37681961 1817.24978638 C-2977.97819759 1807.16920241 -2978.52163407 1797.08722583 -2979 1787 C-2979.05548004 1785.84855499 -2979.11096008 1784.69710999 -2979.16812134 1783.51077271 C-2980.47310322 1754.92651734 -2980.18763213 1726.28644116 -2980.18511188 1697.67907405 C-2980.18541241 1692.66322317 -2980.19354496 1687.64742669 -2980.20581055 1682.6315918 C-2980.29236419 1646.37767679 -2979.84798005 1610.21705717 -2978 1574 C-2977.96105495 1573.22197903 -2977.92210991 1572.44395805 -2977.88198471 1571.64236069 C-2977.41613467 1562.33960701 -2976.86840581 1553.04387132 -2976.25 1543.75 C-2976.16796326 1542.49499695 -2976.08592651 1541.2399939 -2976.00140381 1539.94696045 C-2969.97723937 1448.6076024 -2957.99724129 1357.56516859 -2871 1032 C-2870.71787659 1031.25051086 -2870.43575317 1030.50102173 -2870.14508057 1029.7288208 C-2853.25385278 984.96042463 -2834.45319281 940.93546283 -2813.43164062 897.94873047 C-2811.60820362 894.19302239 -2809.83067656 890.41662591 -2808.05444336 886.63842773 C-2803.38416769 876.71673142 -2798.40985705 866.99310974 -2793.23681641 857.32519531 C-2792.01239078 855.02329446 -2790.80594616 852.71290685 -2789.60546875 850.3984375 C-2783.60208752 838.83930628 -2777.27005575 827.48635358 -2770.81103516 816.17626953 C-2769.23570138 813.41338298 -2767.66649881 810.64712431 -2766.1003418 807.87902832 C-2757.34771667 792.41319341 -2748.40720686 777.07991181 -2739 762 C-2738.59013855 761.34250763 -2738.1802771 760.68501526 -2737.75799561 760.00759888 C-2730.33194918 748.11510916 -2722.69080847 736.37798217 -2714.90087891 724.72094727 C-2713.12968074 722.06950695 -2711.36344562 719.41481025 -2709.59765625 716.75976562 C-2693.7530505 692.98326766 -2677.23294168 669.71979523 -2659.8515625 647.04296875 C-2656.96040752 643.26820721 -2654.10483026 639.46950524 -2651.27099609 635.65161133 C-2645.21840971 627.50078148 -2638.89901654 619.59650142 -2632.44726562 611.75878906 C-2630.47831741 609.36602541 -2628.5211679 606.96368176 -2626.5625 604.5625 C-2625.04211561 602.70796519 -2623.52122756 600.85384324 -2622 599 C-2621.48856445 598.37512695 -2620.97712891 597.75025391 -2620.45019531 597.10644531 C-2610.26118074 584.65973795 -2599.97394782 572.33383885 -2589.1484375 560.43359375 C-2586.83008267 557.80753001 -2584.63209166 555.10513194 -2582.4375 552.375 C-2579.20319944 548.37571705 -2575.84729004 544.68398411 -2572.1171875 541.14453125 C-2569.58406653 538.5786947 -2567.25000813 535.86908506 -2564.88671875 533.1472168 C-2561.85318533 529.69484537 -2558.71140852 526.34693267 -2555.5625 523 C-2554.90507812 522.29939453 -2554.24765625 521.59878906 -2553.5703125 520.87695312 C-2549.72604923 516.79289918 -2545.82669029 512.78171149 -2541.82191467 508.85435486 C-2540.08003288 507.08145791 -2538.46448434 505.25314747 -2536.85327148 503.36157227 C-2532.71817409 498.6084826 -2528.30651422 494.16260983 -2523.84765625 489.71484375 C-2522.55921059 488.424963 -2522.55921059 488.424963 -2521.24473572 487.10902405 C-2519.43822985 485.30184139 -2517.63047538 483.49590608 -2515.8215332 481.69116211 C-2513.0706319 478.94561607 -2510.32510779 476.19477454 -2507.58007812 473.44335938 C-2505.81542468 471.6793668 -2504.05046103 469.9156845 -2502.28515625 468.15234375 C-2501.47345474 467.33861801 -2500.66175323 466.52489227 -2499.82545471 465.68650818 C-2495.56546956 461.44379104 -2491.2333011 457.35408478 -2486.66465759 453.44447327 C-2484.49962089 451.56580606 -2482.49533452 449.55672943 -2480.5 447.5 C-2477.19360922 444.09187412 -2473.70622262 440.97812163 -2470.12304688 437.86914062 C-2466.67036169 434.82938007 -2463.33929041 431.66319502 -2460 428.5 C-2455.3459372 424.09136629 -2450.64082385 419.76989159 -2445.79931641 415.56738281 C-2443.56412587 413.62031046 -2441.37529997 411.62505531 -2439.1875 409.625 C-2434.81714316 405.67628555 -2430.29696921 401.9537279 -2425.71875 398.25 C-2423.07852271 396.06498431 -2420.5327028 393.80828609 -2418 391.5 C-2413.35415162 387.27584052 -2408.54310192 383.30107468 -2403.66210938 379.35302734 C-2401.77171805 377.81416884 -2399.89307293 376.26165405 -2398.015625 374.70703125 C-2390.80086274 368.73360704 -2383.55967478 362.80792097 -2376.1730957 357.04785156 C-2372.52406922 354.2022277 -2368.90325639 351.32470804 -2365.29858398 348.4230957 C-2358.89197561 343.26707289 -2352.41274768 338.23960453 -2345.80419922 333.34326172 C-2343.6768532 331.75941087 -2341.55894482 330.1633453 -2339.44140625 328.56640625 C-2328.39267424 320.23816187 -2317.28073271 312.01169855 -2306 304 C-2305.21012695 303.43861328 -2304.42025391 302.87722656 -2303.60644531 302.29882812 C-2290.31145887 292.88263954 -2276.79773606 283.79662749 -2263.25 274.75 C-2262.43745758 274.20654938 -2261.62491516 273.66309875 -2260.78775024 273.10317993 C-2248.97681769 265.20949354 -2237.04416198 257.53261918 -2225 250 C-2223.46206787 249.03489502 -2223.46206787 249.03489502 -2221.89306641 248.05029297 C-2191.27266537 228.87252802 -2159.91468967 210.92823699 -2128 194 C-2126.75959961 193.34040283 -2126.75959961 193.34040283 -2125.49414062 192.66748047 C-2120.91166209 190.23267743 -2116.31921783 187.81766502 -2111.71826172 185.41796875 C-2109.72430082 184.3778282 -2107.73126902 183.33590605 -2105.73876953 182.29296875 C-2089.64286432 173.87020425 -2073.47949517 165.65346255 -2057 158 C-2056.3850769 157.71380798 -2055.77015381 157.42761597 -2055.13659668 157.13275146 C-2022.83055127 142.10097979 -1990.17619628 128.00020975 -1957 115 C-1955.9471582 114.58476074 -1954.89431641 114.16952148 -1953.80957031 113.74169922 C-1921.61067497 101.05898577 -1888.91011579 89.6864745 -1856 79 C-1854.94830627 78.65739136 -1854.94830627 78.65739136 -1853.87536621 78.30786133 C-1793.67796801 58.70448268 -1732.02652565 42.68451456 -1670 30 C-1669.12005371 29.81949097 -1668.24010742 29.63898193 -1667.33349609 29.45300293 C-1626.29894306 21.05129653 -1585.1001151 14.0138851 -1543.625 8.1875 C-1542.94772102 8.09223022 -1542.27044205 7.99696045 -1541.57263947 7.89880371 C-1527.42370869 5.91040513 -1513.2666752 3.98703107 -1499.0859375 2.23828125 C-1498.07834381 2.11124313 -1497.07075012 1.98420502 -1496.03262329 1.85331726 C-1495.08905975 1.73970352 -1494.14549622 1.62608978 -1493.17333984 1.5090332 C-1492.36279144 1.41000198 -1491.55224304 1.31097076 -1490.71713257 1.2089386 C-1487.15459352 0.93499101 -1483.57305636 1 -1480 1 C-1480 204.28 -1480 407.56 -1480 617 C-1484.75700717 618.58566906 -1489.33917544 619.78686305 -1494.2265625 620.77734375 C-1495.89243939 621.12302758 -1497.5582058 621.46924416 -1499.22387695 621.81591797 C-1500.10194 621.99781677 -1500.98000305 622.17971558 -1501.88467407 622.36712646 C-1538.04953788 629.89450889 -1573.75087273 638.94890251 -1609 650 C-1609.80417358 650.25136719 -1610.60834717 650.50273438 -1611.43688965 650.76171875 C-1681.3553947 672.64196054 -1750.16991469 700.71704365 -1813.59326172 737.61523438 C-1816.55547648 739.31960465 -1819.55179049 740.95525713 -1822.55419922 742.58740234 C-1841.60355063 752.96884105 -1860.13565892 764.44627819 -1878.04882812 776.67529297 C-1880.58578094 778.39770363 -1883.145246 780.08481851 -1885.70507812 781.77294922 C-1894.6081262 787.65448439 -1903.31647047 793.80050721 -1912 800 C-1913.09683105 800.77947998 -1913.09683105 800.77947998 -1914.21582031 801.57470703 C-1924.9960055 809.24077389 -1935.52644944 817.1775486 -1945.91748047 825.36279297 C-1947.86792066 826.89616365 -1949.82492564 828.42058235 -1951.78515625 829.94140625 C-1958.63661056 835.26771767 -1965.32288039 840.75112506 -1971.921875 846.38671875 C-1974.7270732 848.77882269 -1977.57463157 851.11455851 -1980.4375 853.4375 C-1990.29579989 861.48130122 -1999.87574452 869.78149873 -2009.15795898 878.48413086 C-2012.18304217 881.31995817 -2015.22950042 884.1093363 -2018.375 886.8125 C-2021.67221427 889.65371655 -2024.72740075 892.68195078 -2027.75 895.8125 C-2029.65150513 897.66118554 -2031.58986574 899.38057055 -2033.60131836 901.10571289 C-2038.12891311 905.0573181 -2042.38659788 909.24227534 -2046.62890625 913.49609375 C-2047.42223862 914.28846939 -2048.21557098 915.08084503 -2049.03294373 915.89723206 C-2050.69889081 917.56250283 -2052.36359256 919.22902029 -2054.02709961 920.89672852 C-2056.55536134 923.43034622 -2059.08891661 925.95858167 -2061.62304688 928.48632812 C-2063.2503207 930.11426283 -2064.87728425 931.74250775 -2066.50390625 933.37109375 C-2067.25201065 934.11717392 -2068.00011505 934.86325409 -2068.77088928 935.63194275 C-2072.81886226 939.69777624 -2076.70133893 943.84641067 -2080.42564392 948.21156311 C-2082.04797529 950.05449896 -2083.74717372 951.78141496 -2085.5 953.5 C-2088.53594925 956.48872337 -2091.34508659 959.61706479 -2094.125 962.84375 C-2096.17359094 965.19962958 -2098.27203002 967.5050746 -2100.375 969.8125 C-2104.25033743 974.10608632 -2107.9222131 978.53088002 -2111.55859375 983.02734375 C-2114.27719841 986.33751679 -2117.07091855 989.57488543 -2119.875 992.8125 C-2124.83806731 998.56123571 -2129.57364718 1004.45498601 -2134.23046875 1010.453125 C-2136.08372561 1012.83823173 -2137.96082153 1015.20082992 -2139.86328125 1017.546875 C-2147.27811808 1026.69089282 -2154.32437217 1036.06927681 -2161.24755859 1045.59033203 C-2162.9693759 1047.95789079 -2164.69730395 1050.3208948 -2166.42578125 1052.68359375 C-2172.77043526 1061.38298379 -2178.90127629 1070.18841788 -2184.80712891 1079.19091797 C-2186.0002712 1081.0004113 -2187.20658895 1082.80032936 -2188.41796875 1084.59765625 C-2237.06194989 1156.81070036 -2276.26538172 1235.97401256 -2306 1322 C-2306.22989624 1322.66541809 -2306.45979248 1323.33083618 -2306.69665527 1324.01641846 C-2337.99480177 1414.63571722 -2357.31608392 1508.86602242 -2371 1674 C-2371.04236786 1674.9366449 -2371.08473572 1675.87328979 -2371.12838745 1676.83831787 C-2372.04881431 1697.6445989 -2372.20234972 1718.42745215 -2372.1875 1739.25 C-2372.18723312 1740.09205742 -2372.18696625 1740.93411484 -2372.18669128 1741.80168915 C-2372.14841712 1838.31228969 -2363.29917193 1934.54434654 -2267 2249 C-2266.30124756 2250.49007568 -2266.30124756 2250.49007568 -2265.58837891 2252.01025391 C-2243.37558632 2299.26783868 -2217.47283164 2344.7572766 -2187.64306641 2387.63476562 C-2185.96655911 2390.04813898 -2184.30124301 2392.46897505 -2182.63671875 2394.890625 C-2174.67971589 2406.41741016 -2166.3389632 2417.60895892 -2157.77880859 2428.69384766 C-2156.20649004 2430.73229414 -2154.64183229 2432.77618954 -2153.08203125 2434.82421875 C-2147.86274104 2441.66956019 -2142.48081839 2448.36276781 -2137 2455 C-2135.56240698 2456.77075782 -2134.12490833 2458.54159226 -2132.6875 2460.3125 C-2127.74769304 2466.34813935 -2122.6750896 2472.26465297 -2117.578125 2478.16748047 C-2116.01476391 2479.98285614 -2114.45981008 2481.80514049 -2112.90625 2483.62890625 C-2105.19175927 2492.65238426 -2097.14545343 2501.31878786 -2088.96582031 2509.92089844 C-2087.12772665 2511.86491305 -2085.30628844 2513.82267175 -2083.4921875 2515.7890625 C-2075.69476214 2524.22777759 -2067.67661048 2532.42971262 -2059.5625 2540.5625 C-2059.04776123 2541.07982697 -2058.53302246 2541.59715393 -2058.00268555 2542.13015747 C-2052.69136785 2547.46258382 -2047.34628035 2552.69573993 -2041.62475586 2557.59350586 C-2039.64918516 2559.3036881 -2037.81447893 2561.12071825 -2036 2563 C-2032.87154036 2566.17089998 -2029.63144648 2569.1256996 -2026.25390625 2572.02734375 C-2024.04015714 2573.9648538 -2021.87757752 2575.9514439 -2019.72119141 2577.95239258 C-2014.51116531 2582.78506085 -2009.17626231 2587.37120265 -2003.63671875 2591.828125 C-2001.07579972 2593.93756349 -1998.62876545 2596.12887648 -1996.1875 2598.375 C-1991.8122041 2602.35755281 -1987.25270734 2606.0181807 -1982.58129883 2609.64111328 C-1978.78496881 2612.58768486 -1975.04210143 2615.58781875 -1971.33129883 2618.64135742 C-1962.27140305 2626.09120807 -1952.94711727 2633.15213094 -1943.52148438 2640.13134766 C-1941.06719473 2641.95020251 -1938.61906049 2643.77707159 -1936.171875 2645.60546875 C-1925.3079173 2653.69731347 -1914.23654513 2661.43572653 -1903 2669 C-1901.74866006 2669.84760037 -1900.4973556 2670.69525311 -1899.24609375 2671.54296875 C-1884.17066088 2681.71332837 -1868.81935949 2691.52633595 -1853.14013672 2700.74072266 C-1851.57482623 2701.66176663 -1850.01164318 2702.58642883 -1848.44970703 2703.51318359 C-1833.87048235 2712.16170319 -1819.11186994 2720.40760343 -1804.13134766 2728.34033203 C-1801.15989762 2729.91525152 -1798.19490367 2731.50177183 -1795.23046875 2733.08984375 C-1781.58959554 2740.35193401 -1767.68542246 2746.95969145 -1753.61914062 2753.35449219 C-1751.2150092 2754.44757407 -1748.8126461 2755.54455398 -1746.41210938 2756.64550781 C-1728.16794006 2765.01197565 -1709.74007532 2772.81188202 -1691 2780 C-1690.29399658 2780.27092468 -1689.58799316 2780.54184937 -1688.8605957 2780.82098389 C-1602.60310962 2813.84405633 -1512.70612958 2836.37344379 -1315.8125 2858.6875 C-1314.80118011 2858.74843842 -1313.78986023 2858.80937683 -1312.74789429 2858.87216187 C-1281.53388765 2860.72451264 -1250.36674309 2861.15110221 -1219.1081164 2861.13466892 C-1213.81495462 2861.13301 -1208.52179655 2861.13719777 -1203.22863603 2861.14057809 C-1193.98315632 2861.14569261 -1184.73768184 2861.14715623 -1175.49220085 2861.14612198 C-1161.74206292 2861.14458764 -1147.99193072 2861.14877953 -1134.2417939 2861.1539966 C-1108.24349206 2861.16363612 -1082.24519293 2861.16648023 -1056.24688962 2861.16705366 C-1053.38576255 2861.16711842 -1050.52463548 2861.16718636 -1047.66350842 2861.16725707 C-1046.95336074 2861.16727408 -1046.24321307 2861.16729108 -1045.51154577 2861.1673086 C-1029.71948022 2861.16771843 -1013.92741508 2861.16991278 -998.13534974 2861.17241292 C-991.61649489 2861.1734414 -985.09764004 2861.17443148 -978.57878518 2861.17542917 C-977.85832835 2861.17553975 -977.13787152 2861.17565034 -976.39558267 2861.17576428 C-935.15028675 2861.18208194 -893.9049911 2861.18621411 -852.65969467 2861.18575573 C-851.11861595 2861.18573995 -849.57753722 2861.18572422 -848.03645849 2861.18570852 C-841.07988674 2861.18563515 -834.12331498 2861.18554698 -827.16674322 2861.18545464 C-824.06515753 2861.18541351 -820.96357183 2861.18537337 -817.86198614 2861.18533332 C-816.30959233 2861.18531293 -814.75719853 2861.18529191 -813.20480472 2861.18527026 C-764.16111022 2861.18459065 -715.11742295 2861.19189919 -666.07373047 2861.20581055 C-653.7222125 2861.20931224 -641.37069451 2861.212782 -629.01917648 2861.21607494 C-627.87801673 2861.21637925 -627.87801673 2861.21637925 -626.71380325 2861.21668971 C-603.22042278 2861.2229165 -579.72704291 2861.22667256 -556.23366165 2861.22793293 C-555.49473823 2861.22797288 -554.75581481 2861.22801283 -553.99449977 2861.22805399 C-537.76368984 2861.22890776 -521.53287995 2861.2291683 -505.30207001 2861.22888362 C-499.49254821 2861.22878715 -493.68302641 2861.22873509 -487.87350461 2861.22870489 C-486.42852467 2861.22869697 -484.98354473 2861.22868677 -483.53856479 2861.22867426 C-460.63145461 2861.22849883 -437.72435067 2861.23415956 -414.81724228 2861.24282808 C-391.06057003 2861.25177232 -367.30390975 2861.25325819 -343.54723623 2861.24651595 C-331.08517455 2861.24316891 -318.62313316 2861.2429225 -306.16107368 2861.2518692 C-237.05150293 2861.48100547 -237.05150293 2861.48100547 -168 2859 C-167.069093 2858.94632389 -166.138186 2858.89264777 -165.1790697 2858.83734511 C-68.2551446 2853.21104418 28.09805867 2838.25434961 263 2760 C264.09586426 2759.50580566 265.19172852 2759.01161133 266.32080078 2758.50244141 C273.9117377 2755.06723422 281.46381511 2751.55352129 289 2748 C290.13195801 2747.46826172 291.26391602 2746.93652344 292.43017578 2746.38867188 C319.3840127 2733.68952023 345.72375236 2719.88898101 371.30957031 2704.60693359 C373.91790993 2703.04903057 376.53243772 2701.50202766 379.1484375 2699.95703125 C399.25486905 2688.0397858 418.80053485 2675.32533424 438 2662 C438.76151367 2661.47164551 439.52302734 2660.94329102 440.30761719 2660.39892578 C462.9747849 2644.6271571 484.90580108 2627.92766122 506.26025391 2610.42382812 C507.81948327 2609.14773696 509.384011 2607.87812619 510.94921875 2606.609375 C521.4161421 2598.11359488 531.62326787 2589.33756003 541.55859375 2580.2265625 C543.66154833 2578.30866793 545.78669156 2576.42623955 547.9375 2574.5625 C552.79590673 2570.33098446 557.54172688 2565.97835065 562.26904297 2561.6015625 C563.42782156 2560.52940628 564.58832031 2559.45910635 565.75048828 2558.390625 C575.94828836 2549.00173888 585.81513396 2539.29064907 595.625 2529.5 C596.54116089 2528.58772141 596.54116089 2528.58772141 597.47583008 2527.65701294 C606.19238283 2518.97031505 606.19238283 2518.97031505 614.42041016 2509.82470703 C617.44577063 2506.32987794 620.68337147 2503.0297568 623.875 2499.6875 C629.14207851 2494.13591003 634.16859133 2488.53116452 638.9296875 2482.5390625 C641.1927242 2479.76364014 643.57392151 2477.1338161 646 2474.5 C650.8936826 2469.1703211 655.46207844 2463.63303512 660 2458 C661.03294233 2456.73493201 662.06685658 2455.4706572 663.1015625 2454.20703125 C674.87454251 2439.81551206 686.06183336 2425.03443078 697 2410 C697.47598633 2409.34676758 697.95197266 2408.69353516 698.44238281 2408.02050781 C714.59771461 2385.74981474 729.90717256 2362.62621071 744 2339 C744.55558594 2338.06994141 745.11117187 2337.13988281 745.68359375 2336.18164062 C753.99296042 2322.21857347 761.90526545 2308.06246762 769.54638672 2293.72363281 C770.84654107 2291.28753575 772.1575887 2288.85775256 773.47265625 2286.4296875 C809.43936059 2219.58738788 836.74049793 2147.35932733 856 2074 C856.22625061 2073.14293457 856.45250122 2072.28586914 856.68560791 2071.40283203 C879.09113491 1986.44829784 891.91638912 1899.12841122 895.89285278 1811.36297607 C895.96905671 1809.68240924 896.0478404 1808.00195852 896.12838745 1806.32159424 C897.13205828 1784.96614415 897.20166814 1763.62418097 897.1875 1742.25 C897.18723312 1741.34631054 897.18696625 1740.44262108 897.18669128 1739.51154709 C897.17600355 1710.63381759 896.9174736 1681.82474612 895 1653 C894.93447937 1652.00486389 894.86895874 1651.00972778 894.80145264 1649.98443604 C888.49557177 1555.16698555 874.03389326 1460.80859369 812 1271 C811.57041992 1269.94941406 811.14083984 1268.89882812 810.69824219 1267.81640625 C794.42421648 1228.25010483 776.19283825 1189.18463316 755 1152 C754.47164551 1151.07219727 753.94329102 1150.14439453 753.39892578 1149.18847656 C739.49525558 1124.88034125 724.73389253 1101.16402649 709 1078 C708.48598633 1077.24009766 707.97197266 1076.48019531 707.44238281 1075.69726562 C686.90571536 1045.36059553 664.54274681 1016.22663606 640.81640625 988.3203125 C638.95980164 986.13599633 637.113888 983.94339333 635.27734375 981.7421875 C630.11280557 975.56574179 624.82817863 969.53978915 619.32250977 963.6640625 C616.74994389 960.91616574 614.23346548 958.13302903 611.76855469 955.2878418 C600.1030276 941.9346657 587.54514504 929.38265009 574.99707031 916.86669922 C572.47081971 914.34588248 569.95005856 911.81966262 567.4296875 909.29296875 C565.79719606 907.66113708 564.16439499 906.02961509 562.53125 904.3984375 C561.42166931 903.28582047 561.42166931 903.28582047 560.28967285 902.15072632 C556.25698493 898.13597903 552.1386568 894.28323313 547.81933594 890.57778931 C544.6282321 887.81035675 541.57330753 884.89674984 538.5 882 C534.0182616 877.79606213 529.52608973 873.62491859 524.86328125 869.62109375 C522.66136091 867.70537689 520.52372876 865.72516424 518.375 863.75 C513.91945032 859.72299938 509.269359 856.03371031 504.52050781 852.3659668 C500.08215468 848.91345162 495.83851032 845.28456311 491.625 841.5625 C485.37005485 836.0604499 478.86141316 831.03125434 472.15625 826.09375 C468.52422174 823.41280314 464.97578307 820.63702079 461.43481445 817.83740234 C453.85668275 811.85228366 446.12406332 806.22215296 438.11279297 800.83105469 C432.58737847 797.10969539 427.1835633 793.25266897 421.8125 789.3125 C415.03155458 784.360785 408.09612806 779.80254541 400.93359375 775.42578125 C397.73087566 773.46703567 394.59106856 771.428618 391.4609375 769.35644531 C371.33641768 756.07706844 350.33592221 744.03491003 329.05859375 732.71484375 C324.95485958 730.52985609 320.93967567 728.2401383 316.9375 725.875 C308.29312007 720.88625544 299.22502635 716.76572875 290.20068359 712.51806641 C286.92195276 710.96298263 283.65680866 709.38225886 280.39453125 707.79296875 C212.0191168 674.49038818 139.89951716 649.70638283 66.1015625 631.52734375 C65.41838959 631.35876358 64.73521667 631.19018341 64.03134155 631.01649475 C42.79101296 625.84573975 21.39345655 621.50388559 0 617 C0 413.39 0 209.78 0 0 Z " fill="#213864" transform="translate(2980,594)"/>
<path d="M0 0 C203.94 0 407.88 0 618 0 C618 658.68 618 1317.36 618 1996 C414.06 1996 210.12 1996 0 1996 C0 1337.32 0 678.64 0 0 Z " fill="#EC3136" transform="translate(1931,0)"/>
</svg>
