<svg width="17" height="17" viewBox="0 0 17 17" fill="none" xmlns="http://www.w3.org/2000/svg">
<path d="M14.5256 0.437235C14.9983 0.437235 15.4042 0.606791 15.7433 0.945906C16.0824 1.28502 16.252 1.69093 16.252 2.16363V14.495C16.252 14.9677 16.0824 15.3737 15.7433 15.7128C15.4042 16.0519 14.9983 16.2214 14.5256 16.2214H6.97259C6.49989 16.2214 6.09912 16.0519 5.77028 15.7128C5.44144 15.3737 5.27702 14.9677 5.27702 14.495V10.3948C5.27702 10.2921 5.30785 10.2099 5.36951 10.1482C5.43116 10.0866 5.51337 10.0557 5.61614 10.0557C5.7189 10.0557 5.80111 10.0866 5.86276 10.1482C5.92442 10.2099 5.95525 10.2921 5.95525 10.3948V14.495C5.95525 14.7828 6.05801 15.0294 6.26353 15.2349C6.46906 15.4404 6.70541 15.5432 6.97259 15.5432H14.5256C14.8133 15.5432 15.0599 15.4404 15.2655 15.2349C15.471 15.0294 15.5737 14.7828 15.5737 14.495V2.16363C15.5737 1.8759 15.471 1.62927 15.2655 1.42375C15.0599 1.21822 14.8133 1.11546 14.5256 1.11546H6.97259C6.70541 1.11546 6.46906 1.21822 6.26353 1.42375C6.05801 1.62927 5.95525 1.8759 5.95525 2.16363V6.26382C5.95525 6.36659 5.92442 6.4488 5.86276 6.51045C5.80111 6.57211 5.7189 6.60294 5.61614 6.60294C5.51337 6.60294 5.43116 6.57211 5.36951 6.51045C5.30785 6.4488 5.27702 6.36659 5.27702 6.26382V2.16363C5.27702 1.69093 5.44144 1.28502 5.77028 0.945906C6.09912 0.606791 6.49989 0.437235 6.97259 0.437235H14.5256ZM11.7818 7.99022C11.8435 7.99022 11.8949 8.0005 11.936 8.02105C11.9771 8.0416 12.0131 8.06729 12.0439 8.09812C12.0747 8.12895 12.0953 8.16492 12.1055 8.20602C12.1158 8.24713 12.121 8.28823 12.121 8.32934C12.121 8.4321 12.0901 8.51431 12.0285 8.57596C11.9668 8.63762 11.8846 8.66845 11.7818 8.66845H0.806887C0.724678 8.66845 0.647606 8.63762 0.575673 8.57596C0.50374 8.51431 0.467773 8.4321 0.467773 8.32934C0.467773 8.26768 0.483188 8.21116 0.514016 8.15978C0.544845 8.1084 0.585949 8.06729 0.63733 8.03646C0.688711 8.00564 0.74523 7.99022 0.806887 7.99022H11.7818ZM12.0285 8.08271C12.1929 8.24713 12.1929 8.41154 12.0285 8.57596L9.96296 10.6415C9.9013 10.7031 9.82423 10.734 9.73174 10.734C9.63926 10.734 9.56219 10.7031 9.50053 10.6415C9.33611 10.4771 9.33611 10.3126 9.50053 10.1482L11.3194 8.32934L9.50053 6.51045C9.33611 6.34603 9.33611 6.18675 9.50053 6.03261C9.66495 5.87847 9.81909 5.87333 9.96296 6.0172L12.0285 8.08271Z" fill="white"/>
</svg>
