<svg width="37" height="37" viewBox="0 0 37 37" fill="none" xmlns="http://www.w3.org/2000/svg">
<path d="M28.6584 20.322V16.678L26.3039 16.2296C26.1357 15.6577 25.9114 15.1083 25.6255 14.5926L26.971 12.608L24.3922 10.0293L22.4076 11.3747C21.8807 11.0832 21.3313 10.8589 20.7651 10.6908L20.3166 8.34183H16.6726L16.2242 10.6964C15.6523 10.8646 15.1029 11.0888 14.5872 11.3747L12.6026 10.0293L10.0238 12.608L11.3693 14.5926C11.0834 15.1083 10.8592 15.6577 10.691 16.2296L8.33643 16.678V20.322L10.6854 20.7705C10.8479 21.3367 11.0778 21.8861 11.3693 22.413L10.0238 24.3976L12.6026 26.9764L14.5872 25.6309C15.1085 25.9168 15.6523 26.1467 16.2242 26.3093L16.6726 28.6638H20.3166L20.7651 26.3149C21.3313 26.1523 21.8807 25.9224 22.4076 25.6309L24.3922 26.9764L26.971 24.3976L25.6255 22.413C25.917 21.8861 26.1413 21.3367 26.3095 20.7705L28.6584 20.322ZM25.5246 24.263L24.2576 25.53L22.4525 24.3023L22.1442 24.4929C21.5163 24.8741 20.8492 25.1544 20.154 25.317L19.8008 25.4011L19.3916 27.5426H17.6032L17.194 25.4011L16.8464 25.317C16.1401 25.1432 15.4729 24.8685 14.8619 24.4929L14.5535 24.3023L12.7484 25.53L11.4814 24.263L12.7092 22.4579L12.5185 22.1496C12.1373 21.5217 11.857 20.8546 11.6945 20.1594L11.6104 19.8062L9.46885 19.397V17.603L11.6104 17.1938L11.6945 16.8462C11.8682 16.1399 12.1429 15.4727 12.5185 14.8617L12.7092 14.5533L11.4814 12.7482L12.7484 11.4812L14.5535 12.7089L14.8619 12.5183C15.4729 12.1427 16.1457 11.868 16.8464 11.6943L17.194 11.6102L17.6032 9.46865H19.3916L19.8008 11.6102L20.154 11.6943C20.8492 11.8568 21.5163 12.1371 22.1442 12.5183L22.4525 12.7089L24.2576 11.4812L25.5246 12.7482L24.2969 14.5533L24.4875 14.8617C24.8631 15.4727 25.1378 16.1455 25.3116 16.8462L25.3957 17.1938L27.5372 17.603V19.3914L25.3957 19.8006L25.3116 20.1538C25.149 20.8489 24.8687 21.5161 24.4875 22.1439L24.2969 22.4523L25.5246 24.263Z" fill="#1A73E8"/>
<path d="M18.5 14.6038C16.3472 14.6038 14.5981 16.3529 14.5981 18.5056C14.5981 20.6583 16.3472 22.4074 18.5 22.4074C20.6527 22.4074 22.4018 20.6583 22.4018 18.5056C22.4018 16.3529 20.6527 14.6038 18.5 14.6038ZM18.5 21.2806C16.9695 21.2806 15.7194 20.0361 15.7194 18.5C15.7194 16.9639 16.9639 15.7194 18.5 15.7194C20.0304 15.7194 21.2806 16.9639 21.2806 18.5C21.2806 20.0361 20.0304 21.2806 18.5 21.2806Z" fill="#1A73E8"/>
<path d="M1.66504 18.6514C1.66504 27.9406 9.2164 35.492 18.5 35.492C19.3409 35.492 20.1763 35.4303 20.9891 35.307L21.1069 35.9517C21.1461 36.1591 21.2863 36.3273 21.4825 36.4002L21.8132 36.5067L26.6064 32.902C26.7914 32.7674 26.8755 32.5488 26.8419 32.3246L26.7578 31.9546L20.9611 30.2727C20.7593 30.2167 20.5462 30.2615 20.3893 30.4017L20.1426 30.6483L20.3612 31.8593C19.7446 31.9433 19.1223 31.9882 18.5 31.9882C11.1505 31.9882 5.16883 26.0065 5.16883 18.6514C5.16883 18.2926 5.18565 17.9282 5.21368 17.575L4.09246 17.4853C4.06443 17.8665 4.04761 18.2589 4.04761 18.6514C4.04761 26.6232 10.5338 33.1094 18.5 33.1094C19.369 33.1094 20.2491 33.0309 21.1125 32.8739L21.6675 32.773L21.4488 31.5789L25.0928 32.6329L22.0599 34.9146L21.8973 34.0008L21.3423 34.1017C20.4229 34.2755 19.4699 34.3596 18.5056 34.3596C9.83867 34.3596 2.79186 27.3071 2.79186 18.6402C2.79186 18.2814 2.80307 17.917 2.8311 17.5582L1.70989 17.4797C1.67625 17.8721 1.66504 18.2646 1.66504 18.6514Z" fill="#1A73E8"/>
<path d="M3.20117 11.6102L4.22148 12.0811C4.53541 11.3971 4.90541 10.7244 5.32026 10.0909L4.37844 9.47424C3.93557 10.1582 3.54314 10.8758 3.20117 11.6102Z" fill="#1A73E8"/>
<path d="M1.92871 15.6745L3.0331 15.8708C3.16765 15.1251 3.35265 14.3851 3.59371 13.6676L2.52856 13.3144C2.27068 14.0824 2.06886 14.8729 1.92871 15.6745Z" fill="#1A73E8"/>
<path d="M6.32939 8.70621C6.55363 8.43152 6.79469 8.15682 7.04136 7.89334L6.22287 7.12531C5.95939 7.40561 5.70151 7.70273 5.46045 7.99424L6.32939 8.70621Z" fill="#1A73E8"/>
<path d="M8.07279 10.3376C8.29703 10.0573 8.53248 9.78259 8.77915 9.52471L7.96067 8.75668C7.69718 9.03699 7.4393 9.33411 7.19824 9.63684L8.07279 10.3376Z" fill="#1A73E8"/>
<path d="M6.37407 13.0958C6.63195 12.5352 6.92907 11.9858 7.26544 11.4644L6.32362 10.8589C5.95922 11.4252 5.63968 12.0194 5.35938 12.6249L6.37407 13.0958Z" fill="#1A73E8"/>
<path d="M4.28857 15.9829L5.39297 16.1903C5.50509 15.5848 5.66206 14.9794 5.85827 14.3964L4.79312 14.0376C4.5857 14.6711 4.41191 15.327 4.28857 15.9829Z" fill="#1A73E8"/>
<path d="M35.3349 18.6514C35.3349 9.36773 27.7836 1.81076 18.4999 1.81076C17.9337 1.81076 17.3675 1.83879 16.8125 1.89485L16.706 1.08197C16.678 0.87455 16.549 0.700762 16.3528 0.611065L16.0277 0.487732L11.0719 3.84576C10.8813 3.9747 10.7804 4.19334 10.814 4.42319L10.8869 4.79879L16.5714 6.76091C16.7677 6.82819 16.9863 6.79455 17.1489 6.66L17.4067 6.42455L17.2666 5.3594C17.6758 5.32016 18.0851 5.30334 18.4943 5.30334C25.8439 5.30334 31.8255 11.285 31.8255 18.6346C31.8255 18.9036 31.8199 19.1727 31.8031 19.4418L32.9243 19.5091C32.9411 19.2176 32.9467 18.9261 32.9467 18.6346C32.9523 10.6796 26.4717 4.19334 18.4999 4.19334C17.8552 4.19334 17.2049 4.23819 16.5658 4.32228L16.0164 4.39516L16.151 5.43228L12.5631 4.19334L15.7081 2.06303L15.8483 3.1394L16.4089 3.06652C17.0928 2.97682 17.7992 2.92637 18.5055 2.92637C27.1725 2.92637 34.2193 9.97879 34.2193 18.6402C34.2193 19.0046 34.2081 19.3689 34.1857 19.7221L35.3069 19.795C35.3237 19.425 35.3349 19.0382 35.3349 18.6514Z" fill="#1A73E8"/>
<path d="M34.1522 24.8797L33.1095 24.4648C32.8684 25.0647 32.5881 25.6589 32.2798 26.2251L33.2608 26.7689C33.5972 26.1579 33.8999 25.5188 34.1522 24.8797Z" fill="#1A73E8"/>
<path d="M35.1223 21.3647L34.0179 21.1853C33.9169 21.8244 33.7712 22.4635 33.5918 23.0858L34.6682 23.3997C34.8588 22.7326 35.0101 22.0486 35.1223 21.3647Z" fill="#1A73E8"/>
<path d="M32.4423 28.0976L31.5116 27.4697C31.3098 27.7668 31.0968 28.0639 30.8726 28.3442L31.7527 29.0338C31.9938 28.7311 32.2236 28.4171 32.4423 28.0976Z" fill="#1A73E8"/>
<path d="M29 26.8698L29.8802 27.5594C30.0595 27.3295 30.2333 27.0941 30.4015 26.8586L29.4821 26.2195C29.3252 26.4438 29.1682 26.6568 29 26.8698Z" fill="#1A73E8"/>
<path d="M31.8987 24.1061L30.8615 23.6856C30.6821 24.1285 30.4747 24.5714 30.2393 24.9918L31.2259 25.53C31.4726 25.0647 31.7024 24.5826 31.8987 24.1061Z" fill="#1A73E8"/>
<path d="M32.7565 21.0844L31.6521 20.8994C31.5736 21.3759 31.4671 21.8524 31.3325 22.3121L32.4089 22.6149C32.549 22.1159 32.6668 21.6058 32.7565 21.0844Z" fill="#1A73E8"/>
</svg>
