<svg width="37" height="37" viewBox="0 0 37 37" fill="none" xmlns="http://www.w3.org/2000/svg">
<g clip-path="url(#clip0_74_2106)">
<path d="M31.3021 11.6065L29.5649 9.49894C29.3264 9.2096 29.1813 8.85956 29.1457 8.48666L28.8837 5.76796C28.7477 4.3554 27.6236 3.23134 26.2111 3.09528L23.4923 2.8336C23.1194 2.79775 22.7694 2.65265 22.4801 2.4144L20.3725 0.676929C19.2775 -0.225541 17.688 -0.225541 16.593 0.676929L14.4854 2.4144C14.1964 2.65265 13.8463 2.79775 13.4732 2.8336L10.7545 3.09528C9.3419 3.23134 8.21812 4.3554 8.08177 5.76796L7.82009 8.48666C7.78424 8.85956 7.63915 9.2096 7.4009 9.49894L5.66342 11.6065C4.76095 12.7015 4.76095 14.291 5.66342 15.386L7.4009 17.4936C7.63915 17.7829 7.78424 18.133 7.82009 18.5059L8.08177 21.2246C8.21783 22.6371 9.3419 23.7609 10.7545 23.8972L12.4163 24.0573L8.46794 33.4922C8.36095 33.749 8.40922 34.0381 8.59412 34.2464C8.77902 34.4545 9.05989 34.5369 9.32694 34.461L12.7525 33.4938C12.7674 33.4896 12.7818 33.4961 12.7886 33.5082L14.5041 36.6275C14.6317 36.8598 14.8702 36.9998 15.1327 36.9998C15.1451 36.9998 15.1576 36.9996 15.1703 36.999C15.4478 36.9849 15.6877 36.8172 15.7975 36.5586L19.966 26.5967C20.1075 26.5154 20.2435 26.422 20.3728 26.3156L22.4804 24.5784C22.7471 24.3582 23.0664 24.219 23.4071 24.1705L27.1827 33.1921L24.5108 32.4378C24.0027 32.2947 23.4706 32.5174 23.2157 32.9795L21.878 35.412L20.1055 31.1763C19.9883 30.8965 19.6671 30.765 19.3873 30.8819C19.1079 30.9987 18.9761 31.3202 19.0932 31.5997L21.1694 36.5615C21.2781 36.8172 21.5178 36.9849 21.7955 36.999C21.8082 36.9996 21.8207 37.0001 21.8331 37.0001C22.0956 37.0001 22.3341 36.8598 22.4617 36.6275L24.1769 33.5088C24.184 33.4961 24.1986 33.4902 24.213 33.4938L27.638 34.461C27.9056 34.5366 28.1868 34.4545 28.3714 34.2464C28.5563 34.0381 28.6046 33.7493 28.4973 33.4916L24.5492 24.057L26.2111 23.897C27.6236 23.7609 28.7477 22.6371 28.8837 21.2246L29.1457 18.5056C29.1813 18.1327 29.3264 17.7829 29.5649 17.4936L31.3021 15.386C32.2048 14.291 32.2048 12.7015 31.3021 11.6065ZM15.0878 35.412L13.7498 32.979C13.4952 32.5171 12.9625 32.2944 12.4547 32.4378L9.78311 33.1918L13.5584 24.1705C13.8994 24.219 14.2187 24.3582 14.4854 24.5781L16.593 26.3156C17.1406 26.767 17.8116 26.9925 18.4829 26.9925C18.5261 26.9925 18.569 26.9914 18.6122 26.9894L15.0878 35.412ZM30.4555 14.6882L28.7183 16.7958C28.3401 17.2542 28.1103 17.8092 28.0533 18.4006L27.7916 21.1193C27.7058 22.0102 26.9969 22.719 26.106 22.8048L23.7179 23.0349C23.7086 23.0354 23.699 23.0363 23.6897 23.0377L23.3873 23.0668C22.7957 23.1238 22.2407 23.3536 21.7823 23.7315L19.6747 25.4687C18.9842 26.0381 17.9816 26.0381 17.2911 25.4687L15.1835 23.7315C14.7251 23.3536 14.1701 23.1235 13.5785 23.0668L13.2747 23.0374C13.2662 23.0363 13.2581 23.0357 13.2496 23.0351L10.8598 22.8048C9.96886 22.719 9.26004 22.0102 9.17422 21.1193L8.91254 18.4008C8.85552 17.8092 8.62574 17.2542 8.24747 16.7958L6.51028 14.6882C5.94091 13.9975 5.94091 12.9948 6.51028 12.3043L8.24747 10.1968C8.62574 9.73832 8.85552 9.18335 8.91254 8.59167L9.17422 5.87297C9.26004 4.98208 9.96886 4.27326 10.8598 4.18744L13.5785 3.92576C14.1701 3.86874 14.7251 3.63896 15.1835 3.26098L17.2911 1.52379C17.6363 1.23924 18.0597 1.09669 18.4829 1.09669C18.906 1.09669 19.3295 1.23896 19.6747 1.52379L21.7823 3.26098C22.2407 3.63896 22.7957 3.86902 23.3873 3.92576L26.106 4.18744C26.9969 4.27326 27.7058 4.98208 27.7916 5.87297L28.0533 8.59167C28.1103 9.18335 28.3401 9.73832 28.7183 10.1968L30.4555 12.3043C31.0246 12.9951 31.0246 13.9975 30.4555 14.6882Z" fill="#1A73E8"/>
<path d="M18.4827 4.92534C18.1163 4.92534 17.7476 4.94849 17.3863 4.99478C17.0859 5.03317 16.8734 5.30812 16.9118 5.60847C16.9501 5.90911 17.2254 6.12139 17.5254 6.08328C17.8405 6.04291 18.1626 6.02259 18.4827 6.02259C22.6038 6.02259 25.9565 9.3753 25.9565 13.4964C25.9565 17.6175 22.6035 20.9699 18.4827 20.9699C14.3616 20.9699 11.0089 17.6172 11.0089 13.4961C11.0089 10.5567 12.7421 7.87918 15.4244 6.67467C15.7007 6.55074 15.8244 6.22583 15.7002 5.94947C15.576 5.67283 15.2511 5.54947 14.975 5.67368C11.8989 7.05491 9.91162 10.1253 9.91162 13.4961C9.91162 18.2224 13.7566 22.0672 18.4827 22.0672C23.2087 22.0672 27.0537 18.2224 27.0537 13.4961C27.0537 8.77008 23.2087 4.92534 18.4827 4.92534Z" fill="#1A73E8"/>
<path d="M13.0338 12.8607C12.3797 13.5147 12.3797 14.5792 13.0338 15.2333L15.4301 17.6299C15.7471 17.9466 16.1683 18.1211 16.6165 18.1211C17.0645 18.1211 17.486 17.9466 17.803 17.6299L23.034 12.3986C23.6881 11.7442 23.6881 10.68 23.034 10.0257C22.38 9.37163 21.3155 9.37163 20.6611 10.0257L16.6165 14.0706L15.4064 12.8607C14.7523 12.2066 13.6878 12.2066 13.0338 12.8607ZM16.6165 15.3953C16.7619 15.3953 16.9014 15.3375 17.0044 15.2344L21.4371 10.8017C21.6635 10.5753 22.0316 10.5756 22.258 10.8017C22.4844 11.0281 22.4844 11.3965 22.258 11.6226L17.027 16.8539C16.9175 16.9634 16.7715 17.0238 16.6165 17.0238C16.4613 17.0238 16.3156 16.9634 16.2061 16.8539L13.8095 14.4576C13.5834 14.2312 13.5834 13.8628 13.8095 13.6367C13.9227 13.5235 14.0714 13.4668 14.2202 13.4668C14.3687 13.4668 14.5175 13.5235 14.6304 13.6364L16.2284 15.2344C16.3314 15.3375 16.4709 15.3953 16.6165 15.3953Z" fill="#1A73E8"/>
</g>
<defs>
<clipPath id="clip0_74_2106">
<rect width="37" height="37" fill="white"/>
</clipPath>
</defs>
</svg>
