<?xml version="1.0" encoding="UTF-8"?>
<svg xmlns="http://www.w3.org/2000/svg" width="80" height="80" viewBox="0 0 80 80" fill="none">
  <circle cx="40" cy="40" r="40" fill="#ECF3FD"></circle>
  <path d="M51.264 43.5869C49.6858 43.5869 48.1362 43.3401 46.6677 42.8548C45.9482 42.6094 45.0636 42.8345 44.6244 43.2856L41.726 45.4736C38.3646 43.6793 36.2941 41.6094 34.5243 38.2733L36.6479 35.4503C37.1996 34.8993 37.3975 34.0944 37.1604 33.3392C36.6731 31.8631 36.4255 30.3142 36.4255 28.7353C36.4256 27.5947 35.4976 26.6667 34.3571 26.6667H29.6231C28.4826 26.6667 27.5547 27.5947 27.5547 28.7352C27.5547 41.8087 38.1905 52.4445 51.264 52.4445C52.4045 52.4445 53.3325 51.5166 53.3325 50.3761V45.6553C53.3324 44.5148 52.4045 43.5869 51.264 43.5869Z" fill="#1A48A8"></path>
</svg>
