<?xml version="1.0" encoding="UTF-8"?>
<svg xmlns="http://www.w3.org/2000/svg" width="80" height="80" viewBox="0 0 80 80" fill="none">
  <circle cx="40" cy="40" r="40" fill="#ECF3FD"></circle>
  <path d="M45.4025 41.8076L42.1763 45.0447C40.8681 46.3575 38.5662 46.3858 37.2296 45.0447L34.0034 41.8076L22.416 53.4326C22.8473 53.632 23.3229 53.751 23.8285 53.751H55.5775C56.0831 53.751 56.5585 53.6322 56.9897 53.4327L45.4025 41.8076Z" fill="#1A48A8"></path>
  <path d="M55.5774 26.6667H23.8283C23.3227 26.6667 22.8472 26.7858 22.416 26.9852L34.7979 39.4082C34.7987 39.409 34.7997 39.4092 34.8005 39.41C34.8014 39.4108 34.8015 39.412 34.8015 39.412L38.8276 43.4513C39.2552 43.8789 40.1506 43.8789 40.5783 43.4513L44.6035 39.4126C44.6035 39.4126 44.6044 39.4108 44.6053 39.41C44.6053 39.41 44.6071 39.409 44.6079 39.4082L56.9895 26.9851C56.5583 26.7856 56.0829 26.6667 55.5774 26.6667Z" fill="#1A48A8"></path>
  <path d="M20.8054 28.5632C20.5822 29.0145 20.4453 29.5154 20.4453 30.052V50.3653C20.4453 50.9019 20.5821 51.4028 20.8053 51.8541L32.4127 40.209L20.8054 28.5632Z" fill="#1A48A8"></path>
  <path d="M58.6034 28.5632L46.9961 40.2092L58.6034 51.8544C58.8265 51.4031 58.9634 50.9022 58.9634 50.3655V30.0521C58.9634 29.5154 58.8265 29.0145 58.6034 28.5632Z" fill="#1A48A8"></path>
</svg>
