<?xml version="1.0" encoding="UTF-8"?>
<svg xmlns="http://www.w3.org/2000/svg" width="65" height="64" viewBox="0 0 65 64" fill="none">
  <g clip-path="url(#clip0_74_1571)">
    <path d="M52.944 36.0031L38.4542 24.1141C37.9868 23.7305 37.3636 23.5004 36.6624 23.5004C36.4287 23.5004 36.195 23.5771 36.0392 23.5771C35.9613 22.9635 35.7276 22.3499 35.3381 21.8896C35.416 21.8896 35.4939 21.8129 35.4939 21.8129C36.0392 21.4294 36.4287 20.8925 36.5066 20.2789L40.6355 2.10007C40.8692 1.17963 40.246 0.259182 39.3111 0.0290708C38.4542 -0.124337 37.4415 0.335886 37.1299 1.25633L31.3651 18.8982C31.2093 19.5118 31.2093 20.1255 31.5209 20.7391C31.5209 20.8158 31.5988 20.8925 31.5988 20.8925C31.2093 21.0459 30.8198 21.276 30.5082 21.5828C29.9629 22.043 29.6512 22.6567 29.4954 23.347C29.4175 23.347 29.4175 23.2703 29.3396 23.2703C28.7943 22.9635 28.0932 22.8868 27.47 23.0402L9.08505 27.3356C8.15022 27.5657 7.527 28.4862 7.76071 29.4066C7.91652 30.2504 8.69554 30.864 9.55246 30.864C9.63037 30.864 9.70827 30.864 9.78617 30.864L28.4827 28.2561C29.1059 28.1793 29.6512 27.8725 30.1187 27.3356C30.3524 27.1055 30.5082 26.7987 30.5861 26.4919C30.5861 26.4919 30.5861 26.4919 30.664 26.5686C30.5861 26.6453 30.5082 26.7987 30.5082 26.9521L28.4827 62.4659H26.0677C25.6003 62.4659 25.2887 62.7727 25.2887 63.233C25.2887 63.6932 25.6003 64 26.0677 64H38.9216C39.389 64 39.7006 63.6932 39.7006 63.233C39.7006 62.7727 39.389 62.4659 38.9216 62.4659H36.5066L34.5591 27.489C34.7149 27.7958 34.9486 28.0259 35.2602 28.2561L50.7628 38.8412C51.0744 39.0713 51.4639 39.148 51.7755 39.148C52.3208 39.148 52.8661 38.9179 53.2556 38.4577C53.8009 37.6906 53.723 36.6168 52.944 36.0031ZM28.9501 26.4152C28.7943 26.6453 28.5606 26.722 28.3269 26.7987L9.63036 29.3299C9.47456 29.3299 9.39666 29.2532 9.31876 29.0998C9.31876 29.0231 9.39666 28.8697 9.47456 28.8697L27.8595 24.5743C27.9374 24.5743 28.0153 24.5743 28.0932 24.5743C28.249 24.5743 28.4827 24.651 28.6385 24.7277C28.9501 24.8811 29.1059 25.1879 29.1838 25.4947C29.2617 25.8015 29.1838 26.1083 28.9501 26.4152ZM31.5988 22.7334C31.9104 22.4266 32.3778 22.2732 32.8452 22.2732C33.7801 22.3499 34.5591 23.1169 34.4812 24.0373C34.4812 24.4976 34.2475 24.8811 33.9359 25.1879C33.6243 25.4947 33.1568 25.6481 32.6894 25.6481C32.222 25.6481 31.8325 25.418 31.5209 25.1112C31.2093 24.8044 31.0535 24.3442 31.0535 23.8839C31.0535 23.5004 31.2093 23.0402 31.5988 22.7334ZM34.9486 62.4659H30.0408L31.9883 27.6424H32.9231L34.9486 62.4659ZM35.0265 19.972C34.9486 20.2022 34.7928 20.4323 34.5591 20.5857C34.3254 20.7391 33.9359 20.8158 33.6243 20.7391C33.3127 20.6624 33.0789 20.4323 32.9231 20.1255C32.8452 19.8953 32.8452 19.6652 32.9231 19.3584L38.6879 1.71655C38.6879 1.63985 38.8437 1.56315 38.9216 1.56315H38.9995C39.1553 1.56315 39.2332 1.71655 39.1553 1.86996L35.0265 19.972ZM51.9313 37.5372C51.8534 37.6139 51.6976 37.6906 51.6197 37.6139L36.1171 27.0288C35.8834 26.8754 35.7276 26.6453 35.7276 26.4152C35.6497 26.1083 35.7276 25.8015 35.9613 25.4947C36.1171 25.2646 36.3508 25.1112 36.7403 25.1112C37.052 25.1112 37.2857 25.1879 37.4415 25.3413L51.9313 37.1537C52.0092 37.2304 52.0871 37.3838 51.9313 37.5372Z" fill="#1E335E"></path>
    <path d="M32.1441 4.0177C21.9389 4.32452 13.4475 12.1483 12.4348 22.1198C12.3569 22.5033 12.6685 22.8868 13.1359 22.9635H13.2138C13.6033 22.9635 13.9149 22.6567 13.9928 22.2732C14.9277 12.992 22.7958 5.85859 32.222 5.55178C32.6894 5.55178 33.001 5.16826 33.001 4.78474C32.9231 4.32452 32.5336 4.0177 32.1441 4.0177Z" fill="#DB373C"></path>
    <path d="M32.6897 0.105763C24.432 -0.35446 16.5639 3.55743 11.8898 10.3841C11.6561 10.7676 11.734 11.2278 12.1235 11.4579C12.2014 11.5346 12.3572 11.6113 12.513 11.6113C12.7467 11.6113 12.9804 11.4579 13.1362 11.3045C17.5766 4.8614 24.8994 1.25632 32.6897 1.63984C33.1571 1.63984 33.4687 1.33302 33.4687 0.8728C33.4687 0.412578 33.1571 0.105763 32.6897 0.105763Z" fill="#DB373C"></path>
    <path d="M10.721 13.8358C10.3315 13.6824 9.8641 13.8358 9.7083 14.2193C8.61767 16.5971 7.91655 20.0488 7.76074 23.1169C7.76074 23.5771 8.07235 23.9607 8.53976 23.9607C9.00718 23.9607 9.31879 23.6538 9.31879 23.1936C9.47459 20.2789 10.1757 17.134 11.1105 14.8329C11.2663 14.4494 11.1105 13.9892 10.721 13.8358Z" fill="#DB373C"></path>
    <path d="M52.4769 18.7447C52.3211 18.2845 51.8537 18.0544 51.4642 18.1311C51.0747 18.2078 50.7631 18.668 50.9189 19.0516C51.8537 22.8867 51.4642 26.7986 49.8283 30.4037C49.6725 30.7872 49.8283 31.2475 50.2178 31.4009C50.2957 31.4776 50.4515 31.4776 50.5294 31.4776C50.841 31.4776 51.0747 31.3242 51.2305 31.0173C53.0223 27.1055 53.4118 22.8867 52.4769 18.7447Z" fill="#DB373C"></path>
    <path d="M51.1526 15.1397C49.5167 11.6113 46.9459 8.69657 43.5961 6.62556C43.2066 6.39545 42.7392 6.54886 42.5055 6.85568C42.3497 7.23919 42.5055 7.69942 42.8171 7.92953C45.8553 9.77042 48.2702 12.5318 49.7504 15.7533C49.9062 16.0601 50.1399 16.2135 50.4515 16.2135C50.5294 16.2135 50.6852 16.2135 50.7631 16.1368C51.1526 15.9834 51.3084 15.5232 51.1526 15.1397Z" fill="#DB373C"></path>
    <path d="M54.1909 11.2278C53.9571 10.8443 53.4897 10.7676 53.1002 10.921C52.7107 11.1511 52.6328 11.6113 52.7886 11.9949C56.5279 18.3613 56.6058 26.0316 53.0223 32.5515C52.7886 32.935 52.9444 33.3952 53.3339 33.6253C53.4897 33.702 53.5676 33.702 53.7234 33.702C54.0351 33.702 54.2688 33.5486 54.4246 33.3185C58.3197 26.3385 58.2418 18.1312 54.1909 11.2278Z" fill="#DB373C"></path>
    <path d="M51.7756 7.77609C50.1397 5.85849 47.491 3.78749 44.8423 2.40682C44.4528 2.17671 43.9854 2.33012 43.7517 2.71364C43.4401 3.02045 43.5959 3.48068 43.9854 3.71079C46.4783 5.01475 48.9712 7.00905 50.5292 8.77324C50.685 8.92664 50.9187 9.00335 51.1524 9.00335C51.3082 9.00335 51.5419 8.92664 51.6977 8.84994C52.0093 8.54312 52.0872 8.0829 51.7756 7.77609Z" fill="#DB373C"></path>
    <path d="M45.076 37.6139C44.8423 37.307 44.297 37.2303 43.9854 37.4605L43.6738 37.6906C43.2064 38.0741 43.0506 38.1508 42.4274 38.5343C42.0379 38.7644 41.96 39.2246 42.1158 39.6082C42.2716 39.7616 42.5053 39.915 42.8169 39.915C42.9727 39.915 43.0506 39.915 43.2064 39.8383C43.9075 39.4548 44.1412 39.2246 44.6086 38.9178L44.9202 38.6877C45.2318 38.4576 45.3098 37.9207 45.076 37.6139Z" fill="#DB373C"></path>
    <path d="M48.7377 39.915C48.4261 39.6082 47.9587 39.5314 47.647 39.8383C47.1017 40.3752 46.4006 40.8354 45.7774 41.2956C44.9984 41.8326 44.2193 42.3695 43.4403 42.753C42.4276 43.2899 41.4928 43.7502 40.6358 44.1337C40.2463 44.4405 40.0126 44.9007 40.1684 45.2842C40.3242 45.591 40.5579 45.7445 40.8696 45.7445C40.9475 45.7445 41.0254 45.7445 41.1812 45.6678C42.116 45.2842 43.1287 44.824 44.2193 44.2104C45.0763 43.7502 45.8553 43.2132 46.6343 42.5996C47.3354 42.0627 48.0366 41.5257 48.6598 40.9888C48.9714 40.682 49.0493 40.2218 48.7377 39.915Z" fill="#DB373C"></path>
  </g>
  <defs>
    <clipPath id="clip0_74_1571">
      <rect width="65" height="64" fill="white"></rect>
    </clipPath>
  </defs>
</svg>
