<?xml version="1.0" encoding="UTF-8"?>
<svg xmlns="http://www.w3.org/2000/svg" width="37" height="37" viewBox="0 0 37 37" fill="none">
  <path d="M27.4652 19.425C27.2528 21.484 26.3404 23.4077 24.8805 24.8751C23.4206 26.3424 21.5015 27.2645 19.4436 27.4873C19.4022 27.4868 19.361 27.4946 19.3227 27.5102C19.2843 27.5259 19.2494 27.549 19.2201 27.5783C19.1908 27.6076 19.1677 27.6425 19.152 27.6809C19.1364 27.7192 19.1286 27.7604 19.1291 27.8018V34.5321C19.1291 34.6989 19.0628 34.8589 18.9449 34.9769C18.8269 35.0948 18.6669 35.1611 18.5001 35.1611C18.3333 35.1611 18.1733 35.0948 18.0553 34.9769C17.9374 34.8589 17.8711 34.6989 17.8711 34.5321V32.0901C17.8651 32.0087 17.83 31.9321 17.7723 31.8744C17.7146 31.8166 17.638 31.7816 17.5566 31.7756C14.7591 31.5492 12.1055 30.441 9.97787 28.6106C7.85023 26.7802 6.35822 24.3218 5.7166 21.5895C5.69271 21.5085 5.68537 21.4236 5.695 21.3398C5.70463 21.2559 5.73103 21.1748 5.77264 21.1014C5.81426 21.028 5.87022 20.9637 5.93721 20.9123C6.00419 20.861 6.08083 20.8236 6.16255 20.8025C6.24427 20.7814 6.3294 20.7769 6.41288 20.7894C6.49636 20.8019 6.57647 20.8311 6.64844 20.8751C6.72042 20.9192 6.78278 20.9774 6.83182 21.046C6.88087 21.1147 6.91558 21.1926 6.9339 21.275C7.50431 23.7276 8.83438 25.9376 10.7345 27.5899C12.6346 29.2422 15.0079 30.2525 17.5159 30.4769C17.5973 30.5176 17.675 30.4769 17.7527 30.3992C17.7938 30.376 17.827 30.3411 17.8481 30.2989C17.8692 30.2567 17.8772 30.2092 17.8711 30.1624V27.8018C17.8716 27.7604 17.8638 27.7192 17.8482 27.6809C17.8325 27.6425 17.8094 27.6076 17.7801 27.5783C17.7508 27.549 17.7159 27.5259 17.6775 27.5102C17.6392 27.4946 17.598 27.4868 17.5566 27.4873C15.5085 27.2591 13.5974 26.3466 12.1324 24.8973C10.6677 23.4252 9.75332 21.4946 9.5424 19.4287C9.5304 19.3531 9.49244 19.284 9.43504 19.2334C9.37765 19.1828 9.3044 19.1537 9.2279 19.1512H2.4976C2.32587 19.1512 2.16118 19.083 2.03975 18.9615C1.91832 18.8401 1.8501 18.6754 1.8501 18.5037C1.8501 18.332 1.91832 18.1673 2.03975 18.0458C2.16118 17.9244 2.32587 17.8562 2.4976 17.8562H5.0543C5.13059 17.853 5.20347 17.8237 5.26073 17.7732C5.31798 17.7227 5.35614 17.654 5.3688 17.5787C5.53669 14.7853 6.57457 12.1146 8.33693 9.94082C10.0993 7.76707 12.4977 6.19937 15.196 5.4575C15.3594 5.42648 15.5285 5.45916 15.6685 5.54884C15.8086 5.63852 15.9091 5.77839 15.9493 5.93977C15.9895 6.10115 15.9665 6.27181 15.8849 6.41674C15.8033 6.56167 15.6693 6.66989 15.5105 6.7192C13.0965 7.37015 10.946 8.7587 9.35932 10.691C7.77265 12.6232 6.82898 15.0028 6.6601 17.4973C6.64966 17.5433 6.65008 17.591 6.66131 17.6368C6.67254 17.6825 6.69428 17.7251 6.7248 17.761C6.75532 17.7969 6.79378 17.8252 6.83714 17.8436C6.8805 17.8621 6.92756 17.8702 6.9746 17.8673H9.2131C9.2896 17.8648 9.36285 17.8357 9.42024 17.7851C9.47764 17.7345 9.5156 17.6654 9.5276 17.5898C9.73711 15.5271 10.6491 13.599 12.1108 12.1285C13.5725 10.658 15.4951 9.73453 17.5566 9.5127C17.598 9.51319 17.6392 9.5054 17.6775 9.48977C17.7159 9.47414 17.7508 9.45099 17.7801 9.42169C17.8094 9.39239 17.8325 9.35752 17.8482 9.31914C17.8638 9.28076 17.8716 9.23964 17.8711 9.1982V2.4679C17.8711 2.30108 17.9374 2.14109 18.0553 2.02313C18.1733 1.90517 18.3333 1.8389 18.5001 1.8389C18.6669 1.8389 18.8269 1.90517 18.9449 2.02313C19.0628 2.14109 19.1291 2.30108 19.1291 2.4679V10.101C19.1333 10.1901 19.1189 10.279 19.0867 10.3622C19.0546 10.4454 19.0054 10.5209 18.9423 10.5839C18.8793 10.647 18.8038 10.6962 18.7206 10.7283C18.6374 10.7605 18.5485 10.7749 18.4594 10.7707C11.6181 10.7707 8.1993 19.1475 13.0352 23.9871C17.8711 28.8267 26.1258 25.3635 26.2442 18.5C26.2432 18.4171 26.2588 18.3349 26.2901 18.2581C26.3213 18.1814 26.3676 18.1116 26.4262 18.053C26.4848 17.9944 26.5546 17.9481 26.6313 17.9169C26.7081 17.8856 26.7903 17.87 26.8732 17.871H34.5026C34.6743 17.871 34.839 17.9392 34.9604 18.0606C35.0819 18.1821 35.1501 18.3468 35.1501 18.5185C35.1501 18.6902 35.0819 18.8549 34.9604 18.9763C34.839 19.0978 34.6743 19.166 34.5026 19.166H31.9866C31.9085 19.1629 31.8323 19.19 31.7737 19.2417C31.7151 19.2933 31.6787 19.3656 31.6721 19.4435C31.4679 22.2543 30.3809 24.9287 28.5662 27.0849C26.7516 29.2411 24.302 30.7688 21.5674 31.45C20.7423 31.6461 20.4574 30.3881 21.2899 30.192C23.7321 29.5848 25.9222 28.2267 27.5518 26.3091C29.1813 24.3914 30.1682 22.0108 30.3734 19.5027C30.3838 19.4567 30.3834 19.409 30.3722 19.3632C30.361 19.3175 30.3392 19.2749 30.3087 19.239C30.2782 19.2031 30.2397 19.1748 30.1964 19.1564C30.153 19.1379 30.1059 19.1298 30.0589 19.1327H27.7797C27.7032 19.1352 27.6299 19.1643 27.5726 19.2149C27.5152 19.2655 27.4772 19.3346 27.4652 19.4102V19.425ZM32.5601 8.9614L28.0128 13.4828C27.9017 13.6034 27.7474 13.6752 27.5836 13.6826H24.5533C24.4706 13.6898 24.3907 13.7165 24.3202 13.7603L18.933 19.1882C18.8119 19.3014 18.6515 19.3631 18.4858 19.3605C18.32 19.3579 18.1618 19.291 18.0443 19.174C17.9268 19.057 17.8594 18.899 17.856 18.7333C17.8527 18.5676 17.9138 18.407 18.0265 18.2854L23.4137 12.8538C23.4499 12.8356 23.4803 12.8076 23.5013 12.7729C23.5222 12.7382 23.5329 12.6982 23.5321 12.6577V9.62C23.5313 9.53249 23.5483 9.44573 23.582 9.36496C23.6157 9.2842 23.6655 9.2111 23.7282 9.1501L28.2496 4.6324C28.3369 4.53801 28.4506 4.4721 28.5759 4.44326C28.7012 4.41442 28.8323 4.42398 28.9521 4.47069C29.0719 4.51741 29.1748 4.59912 29.2475 4.70518C29.3202 4.81123 29.3592 4.93672 29.3596 5.0653V7.5443C29.3648 7.62599 29.3996 7.70298 29.4575 7.76087C29.5154 7.81875 29.5924 7.85357 29.6741 7.8588H32.1124C32.2425 7.85539 32.3705 7.89123 32.4799 7.96167C32.5893 8.0321 32.6749 8.13385 32.7256 8.25365C32.7764 8.37346 32.7898 8.50577 32.7642 8.63333C32.7387 8.76089 32.6753 8.87779 32.5823 8.9688L32.5601 8.9614ZM27.3801 12.2914L30.0145 9.657C30.0603 9.61471 30.0926 9.55991 30.1075 9.49941C30.1224 9.4389 30.1192 9.37535 30.0984 9.31664C30.0775 9.25793 30.0398 9.20664 29.99 9.16914C29.9403 9.13164 29.8806 9.10958 29.8184 9.1057H28.7084C28.5366 9.10972 28.37 9.04601 28.2447 8.92834C28.1195 8.81066 28.0454 8.64845 28.0387 8.4767V7.4C28.0384 7.33628 28.0194 7.27404 27.9841 7.22102C27.9487 7.16799 27.8986 7.1265 27.8399 7.10168C27.7812 7.07686 27.7165 7.06982 27.6539 7.08141C27.5912 7.093 27.5333 7.12273 27.4874 7.1669L24.8974 9.8013C24.8283 9.86154 24.7857 9.94664 24.779 10.0381V12.0842C24.7785 12.1256 24.7863 12.1668 24.8019 12.2051C24.8176 12.2435 24.8407 12.2784 24.87 12.3077C24.8993 12.337 24.9342 12.3601 24.9726 12.3758C25.0109 12.3914 25.0521 12.3992 25.0935 12.3987H27.1766C27.258 12.3987 27.3357 12.3987 27.3727 12.3173L27.3801 12.2914ZM23.8429 18.5074C23.8444 19.5653 23.5319 20.5999 22.9452 21.4802C22.3584 22.3604 21.5237 23.0469 20.5467 23.4525C19.5697 23.8582 18.4942 23.965 17.4565 23.7592C16.4188 23.5534 15.4655 23.0444 14.7172 22.2967C13.9689 21.5489 13.4592 20.5959 13.2527 19.5583C13.0462 18.5207 13.1522 17.4452 13.5572 16.4679C13.9622 15.4906 14.6481 14.6554 15.528 14.0681C16.4078 13.4807 17.4422 13.1676 18.5001 13.1683C18.6591 13.1805 18.8076 13.2522 18.9159 13.3692C19.0243 13.4862 19.0844 13.6397 19.0844 13.7991C19.0844 13.9586 19.0243 14.1121 18.9159 14.2291C18.8076 14.3461 18.6591 14.4178 18.5001 14.43C17.4207 14.43 16.3854 14.8588 15.6222 15.6221C14.8589 16.3853 14.4301 17.4206 14.4301 18.5C14.4301 19.5794 14.8589 20.6146 15.6222 21.3779C16.3854 22.1412 17.4207 22.57 18.5001 22.57C20.8607 22.57 22.4332 20.8014 22.5479 18.5C22.5442 18.4107 22.5589 18.3217 22.5911 18.2383C22.6233 18.155 22.6724 18.0792 22.7351 18.0156C22.7979 17.952 22.8731 17.902 22.956 17.8687C23.0389 17.8355 23.1278 17.8196 23.2171 17.8222C23.3064 17.8247 23.3942 17.8456 23.4751 17.8835C23.556 17.9215 23.6282 17.9757 23.6873 18.0427C23.7463 18.1098 23.7909 18.1882 23.8183 18.2733C23.8457 18.3583 23.8554 18.4481 23.8466 18.537L23.8429 18.5074Z" fill="#1A73E8"></path>
</svg>
