<?xml version="1.0" encoding="UTF-8"?>
<svg xmlns="http://www.w3.org/2000/svg" width="37" height="37" viewBox="0 0 37 37" fill="none">
  <path d="M7.51563 15.0313C6.94392 15.0313 6.38504 14.8617 5.90968 14.5441C5.43432 14.2265 5.06382 13.775 4.84504 13.2468C4.62625 12.7186 4.56901 12.1374 4.68054 11.5767C4.79208 11.016 5.06738 10.5009 5.47165 10.0966C5.87591 9.69238 6.39097 9.41708 6.95169 9.30554C7.51242 9.19401 8.09363 9.25125 8.62182 9.47004C9.15001 9.68882 9.60147 10.0593 9.91909 10.5347C10.2367 11.01 10.4063 11.5689 10.4063 12.1406C10.4053 12.907 10.1005 13.6417 9.55859 14.1836C9.0167 14.7255 8.28199 15.0303 7.51563 15.0313ZM7.51563 10.4063C7.1726 10.4063 6.83728 10.508 6.55206 10.6985C6.26684 10.8891 6.04454 11.16 5.91327 11.4769C5.782 11.7938 5.74766 12.1426 5.81458 12.479C5.8815 12.8154 6.04668 13.1245 6.28924 13.367C6.53179 13.6096 6.84083 13.7748 7.17727 13.8417C7.5137 13.9086 7.86243 13.8743 8.17934 13.743C8.49626 13.6117 8.76713 13.3894 8.95771 13.1042C9.14828 12.819 9.25 12.4837 9.25 12.1406C9.25 11.6806 9.06727 11.2395 8.74202 10.9142C8.41676 10.589 7.97561 10.4063 7.51563 10.4063Z" fill="#1A73E8"></path>
  <path d="M5.78126 27.1719H1.15626C1.00293 27.1719 0.85588 27.111 0.747461 27.0025C0.639042 26.8941 0.578132 26.7471 0.578132 26.5937C0.576424 24.9925 0.881996 23.4057 1.47827 21.9196L3.36701 17.1969C3.61972 16.5653 4.08555 16.0422 4.68367 15.7182C5.2818 15.3942 5.97447 15.2899 6.64151 15.4232C7.03036 15.5016 7.39918 15.6583 7.72549 15.8838C8.0518 16.1093 8.32876 16.3989 8.53949 16.735L10.7531 20.2783L13.4703 20.6662C13.9256 20.7307 14.3395 20.9653 14.6285 21.323C14.9176 21.6806 15.0602 22.1345 15.0277 22.5931C14.9952 23.0518 14.79 23.4811 14.4534 23.7944C14.1169 24.1077 13.674 24.2816 13.2142 24.2812H8.67188C8.56445 24.2813 8.45913 24.2514 8.36773 24.1949C8.27634 24.1385 8.20248 24.0576 8.15446 23.9615L7.19593 22.0445L6.34955 26.6972C6.32534 26.8303 6.2552 26.9507 6.15136 27.0375C6.04752 27.1242 5.91655 27.1718 5.78126 27.1719ZM1.74884 26.0156H5.29852L6.36921 20.1309C6.39099 20.0116 6.44974 19.9021 6.53715 19.818C6.62456 19.734 6.7362 19.6795 6.85627 19.6624C6.97633 19.6452 7.09875 19.6663 7.20619 19.7226C7.31363 19.7788 7.40065 19.8675 7.45493 19.9759L9.02916 23.125H13.2142C13.3809 23.1247 13.5413 23.0613 13.6633 22.9476C13.7852 22.8339 13.8596 22.6783 13.8715 22.512C13.8834 22.3457 13.832 22.1811 13.7276 22.0512C13.6231 21.9212 13.4734 21.8356 13.3084 21.8115L10.3242 21.3848C10.2409 21.3729 10.1612 21.3429 10.0907 21.297C10.0202 21.251 9.96059 21.1903 9.91601 21.1189L7.55899 17.3478C7.38713 17.0729 7.1425 16.8511 6.85224 16.7067C6.56198 16.5624 6.23742 16.5013 5.91455 16.5301C5.59167 16.559 5.2831 16.6767 5.02303 16.8702C4.76296 17.0637 4.56156 17.3255 4.44116 17.6264L2.55185 22.3486C2.08287 23.518 1.8115 24.7572 1.74884 26.0156Z" fill="#1A73E8"></path>
  <path d="M29.4844 15.0313C28.9127 15.0313 28.3538 14.8617 27.8784 14.5441C27.4031 14.2265 27.0326 13.775 26.8138 13.2468C26.595 12.7186 26.5378 12.1374 26.6493 11.5767C26.7608 11.016 27.0361 10.5009 27.4404 10.0966C27.8447 9.69238 28.3597 9.41708 28.9204 9.30554C29.4812 9.19401 30.0624 9.25125 30.5906 9.47004C31.1188 9.68882 31.5702 10.0593 31.8878 10.5347C32.2055 11.01 32.375 11.5689 32.375 12.1406C32.3741 12.907 32.0692 13.6417 31.5273 14.1836C30.9854 14.7255 30.2507 15.0303 29.4844 15.0313ZM29.4844 10.4063C29.1413 10.4063 28.806 10.508 28.5208 10.6985C28.2356 10.8891 28.0133 11.16 27.882 11.4769C27.7508 11.7938 27.7164 12.1426 27.7833 12.479C27.8502 12.8154 28.0154 13.1245 28.258 13.367C28.5005 13.6096 28.8096 13.7748 29.146 13.8417C29.4825 13.9086 29.8312 13.8743 30.1481 13.743C30.465 13.6117 30.7359 13.3894 30.9265 13.1042C31.117 12.819 31.2188 12.4837 31.2188 12.1406C31.2188 11.6806 31.036 11.2395 30.7108 10.9142C30.3855 10.589 29.9444 10.4063 29.4844 10.4063Z" fill="#1A73E8"></path>
  <path d="M35.8436 27.1719H31.2186C31.0833 27.1718 30.9523 27.1242 30.8485 27.0375C30.7446 26.9507 30.6745 26.8303 30.6503 26.6972L29.8039 22.0445L28.8483 23.9615C28.8 24.0581 28.7257 24.1392 28.6338 24.1957C28.5418 24.2522 28.4359 24.2818 28.328 24.2812H23.7856C23.3257 24.2821 22.8825 24.1084 22.5456 23.7953C22.2087 23.4821 22.0032 23.0528 21.9704 22.594C21.9377 22.1352 22.0802 21.6811 22.3693 21.3233C22.6583 20.9655 23.0724 20.7307 23.5278 20.6662L26.245 20.2783L28.4598 16.735C28.6705 16.3989 28.9475 16.1093 29.2738 15.8838C29.6001 15.6583 29.9689 15.5016 30.3577 15.4232C31.0248 15.2895 31.7176 15.3937 32.3158 15.7178C32.914 16.0418 33.3798 16.5651 33.6322 17.1969L35.521 21.9196C36.1175 23.4057 36.4232 24.9924 36.4217 26.5938C36.4217 26.7471 36.3608 26.8941 36.2524 27.0025C36.144 27.111 35.9969 27.1719 35.8436 27.1719ZM31.7013 26.0156H35.251C35.1883 24.7572 34.917 23.518 34.448 22.3486L32.5587 17.6265C32.4384 17.3255 32.237 17.0637 31.977 16.8701C31.717 16.6766 31.4085 16.5589 31.0856 16.53C30.7627 16.5012 30.4382 16.5623 30.148 16.7066C29.8578 16.851 29.6132 17.0729 29.4414 17.3478L27.0838 21.1189C27.0392 21.1903 26.9796 21.251 26.9091 21.297C26.8386 21.3429 26.759 21.3729 26.6757 21.3848L23.6914 21.8115C23.5264 21.8356 23.3767 21.9212 23.2722 22.0512C23.1678 22.1811 23.1164 22.3457 23.1283 22.512C23.1402 22.6783 23.2146 22.8339 23.3366 22.9476C23.4585 23.0613 23.6189 23.1247 23.7856 23.125H27.9707L29.5449 19.976C29.5992 19.8675 29.6862 19.7789 29.7936 19.7226C29.9011 19.6663 30.0235 19.6452 30.1436 19.6624C30.2636 19.6795 30.3753 19.734 30.4627 19.8181C30.5501 19.9021 30.6088 20.0116 30.6306 20.1309L31.7013 26.0156Z" fill="#1A73E8"></path>
  <path d="M25.8042 18.7104L25.0428 16.7656H11.9576L11.4228 18.1323L10.3486 17.7114L11.0268 15.9771C11.069 15.8691 11.1426 15.7763 11.2382 15.7108C11.3337 15.6452 11.4468 15.6099 11.5627 15.6094H25.4377C25.5541 15.6093 25.6678 15.6444 25.7639 15.71C25.86 15.7756 25.9341 15.8687 25.9765 15.9771L26.8813 18.2896L25.8042 18.7104Z" fill="#1A73E8"></path>
  <path d="M18.5 29.4844C17.5803 29.4835 16.6986 29.1177 16.0482 28.4674C15.3979 27.8171 15.0322 26.9353 15.0312 26.0156V25.4375C15.0312 24.5175 15.3967 23.6352 16.0472 22.9847C16.6977 22.3342 17.58 21.9688 18.5 21.9688C19.42 21.9688 20.3023 22.3342 20.9528 22.9847C21.6033 23.6352 21.9688 24.5175 21.9688 25.4375V26.0156C21.9678 26.9353 21.6021 27.8171 20.9518 28.4674C20.3014 29.1177 19.4197 29.4835 18.5 29.4844ZM18.5 23.125C17.8867 23.125 17.2985 23.3686 16.8648 23.8023C16.4311 24.236 16.1875 24.8242 16.1875 25.4375V26.0156C16.1875 26.6289 16.4311 27.2171 16.8648 27.6508C17.2985 28.0845 17.8867 28.3281 18.5 28.3281C19.1133 28.3281 19.7015 28.0845 20.1352 27.6508C20.5689 27.2171 20.8125 26.6289 20.8125 26.0156V25.4375C20.8125 24.8242 20.5689 24.236 20.1352 23.8023C19.7015 23.3686 19.1133 23.125 18.5 23.125Z" fill="#1A73E8"></path>
  <path d="M24.8594 35.8438H23.7031V32.9531C23.7031 32.4931 23.5204 32.052 23.1951 31.7267C22.8699 31.4015 22.4287 31.2188 21.9688 31.2188H15.0312C14.5713 31.2188 14.1301 31.4015 13.8049 31.7267C13.4796 32.052 13.2969 32.4931 13.2969 32.9531V35.8438H12.1406V32.9531C12.1415 32.1868 12.4464 31.4521 12.9883 30.9102C13.5302 30.3683 14.2649 30.0634 15.0312 30.0625H21.9688C22.7351 30.0634 23.4698 30.3683 24.0117 30.9102C24.5536 31.4521 24.8585 32.1868 24.8594 32.9531V35.8438Z" fill="#1A73E8"></path>
  <path d="M30.6406 32.375H25.4375V31.2188H30.0625V29.5931L28.2923 25.0698L29.3693 24.6489L31.1794 29.2739C31.2055 29.341 31.2189 29.4124 31.2188 29.4844V31.7969C31.2188 31.9502 31.1578 32.0973 31.0494 32.2057C30.941 32.3141 30.794 32.375 30.6406 32.375Z" fill="#1A73E8"></path>
  <path d="M11.5625 32.375H6.35938C6.20605 32.375 6.059 32.3141 5.95058 32.2057C5.84216 32.0973 5.78125 31.9502 5.78125 31.7969V29.4844C5.78114 29.4124 5.79447 29.341 5.82056 29.2739L7.63067 24.6489L8.7083 25.0698L6.9375 29.5931V31.2188H11.5625V32.375Z" fill="#1A73E8"></path>
  <path d="M34.6875 16.1875H33.5312V1.73438H3.46875V16.1875H2.3125V1.15625C2.3125 1.00292 2.37341 0.855873 2.48183 0.747454C2.59025 0.639034 2.7373 0.578125 2.89062 0.578125H34.1094C34.2627 0.578125 34.4098 0.639034 34.5182 0.747454C34.6266 0.855873 34.6875 1.00292 34.6875 1.15625V16.1875Z" fill="#1A73E8"></path>
  <path d="M12.5494 12.5494L11.7319 11.7319L15.7788 7.68501C15.8872 7.57663 16.0342 7.51575 16.1875 7.51575C16.3408 7.51575 16.4879 7.57663 16.5963 7.68501L19.6563 10.745L26.7632 3.63814L27.5807 4.45561L20.065 11.9712C19.9566 12.0796 19.8096 12.1405 19.6563 12.1405C19.503 12.1405 19.356 12.0796 19.2476 11.9712L16.1875 8.91122L12.5494 12.5494Z" fill="#1A73E8"></path>
  <path d="M27.75 7.51562H26.5938V4.625H23.7031V3.46875H27.1719C27.3252 3.46875 27.4723 3.52966 27.5807 3.63808C27.6891 3.7465 27.75 3.89355 27.75 4.04688V7.51562Z" fill="#1A73E8"></path>
  <path d="M6.35938 3.46875H13.2969V4.625H6.35938V3.46875Z" fill="#1A73E8"></path>
  <path d="M6.35938 5.78125H10.4062V6.9375H6.35938V5.78125Z" fill="#1A73E8"></path>
</svg>
