<?xml version="1.0" encoding="UTF-8"?>
<svg xmlns="http://www.w3.org/2000/svg" width="16" height="16" viewBox="0 0 16 16" fill="none">
  <g clip-path="url(#clip0_1592_398)">
    <path d="M10.6427 2.33917C10.7996 2.35789 10.7996 2.35789 10.8717 2.3692C10.8759 2.36986 10.8801 2.37051 10.8844 2.37119C11.2603 2.43001 11.6304 2.52169 12.4641 2.8393C12.4684 2.84126 12.4727 2.84322 12.4771 2.84524C12.6531 2.92577 12.8279 3.01473 12.9943 3.11728C13.0042 3.12332 13.0141 3.12923 13.0241 3.13512C13.0709 3.16274 13.117 3.19143 13.1626 3.22122C13.1713 3.22688 13.18 3.23254 13.1887 3.23819C13.2944 3.30674 13.2944 3.30674 13.3432 3.34247C13.3525 3.34923 13.3618 3.35584 13.3712 3.36246C13.461 3.42614 13.5492 3.49263 13.6355 3.56204C13.6423 3.56751 13.6491 3.57296 13.6559 3.5784C13.6917 3.60713 13.7269 3.63678 13.7621 3.66648C13.7705 3.67355 13.7789 3.6806 13.7874 3.68762C13.821 3.71565 13.8536 3.74469 13.886 3.7744C13.895 3.78264 13.9041 3.79079 13.9132 3.79893C13.9293 3.81346 13.9452 3.82826 13.9611 3.84314C13.9734 3.85468 13.9859 3.86599 13.9985 3.8772C14.0155 3.89245 14.0317 3.90849 14.0478 3.92484C14.0556 3.93271 14.0635 3.94044 14.0714 3.94808C14.0882 3.96418 14.1047 3.98063 14.1212 3.99706C14.1241 3.9999 14.127 4.00275 14.1299 4.00567C14.1512 4.02677 14.1725 4.04798 14.1935 4.06941C14.1975 4.07353 14.2016 4.07766 14.2057 4.08178C14.2553 4.13227 14.303 4.18504 14.3507 4.23775C14.3623 4.25057 14.3739 4.26337 14.3855 4.27617C14.3946 4.28616 14.4037 4.29615 14.4127 4.30615C14.417 4.31088 14.4213 4.3156 14.4256 4.32032C14.4657 4.36446 14.4657 4.36446 14.484 4.38823C14.4935 4.40048 14.5036 4.41211 14.5136 4.42384C14.5426 4.45789 14.5708 4.49248 14.5982 4.52799C14.6089 4.54179 14.6197 4.55539 14.6308 4.56881C14.6444 4.58528 14.6572 4.6023 14.6699 4.61958C14.6791 4.63208 14.6885 4.64439 14.698 4.65667C14.7273 4.69474 14.7557 4.73356 14.7836 4.77292C14.7874 4.77831 14.7912 4.7837 14.795 4.78908C14.8225 4.82787 14.8498 4.86688 14.8764 4.90642C14.8802 4.91201 14.884 4.91759 14.8877 4.92317C14.9226 4.97463 14.9562 5.02697 14.9891 5.08C14.991 5.08307 14.9929 5.08613 14.9948 5.08929C15.0082 5.1109 15.0216 5.13255 15.0349 5.15422C15.0394 5.16155 15.0439 5.16888 15.0484 5.1762C15.0755 5.22013 15.1015 5.26452 15.1259 5.31031C15.1356 5.3285 15.1459 5.34628 15.1563 5.36403C15.2048 5.44794 15.2478 5.53577 15.2909 5.6232C15.2926 5.62681 15.2944 5.63041 15.2963 5.63413C15.3267 5.69624 15.3562 5.75888 15.3848 5.82207C15.3864 5.82547 15.3879 5.82888 15.3895 5.83239C15.4166 5.8922 15.4428 5.95231 15.4677 6.0133C15.4691 6.01686 15.4691 6.01686 15.4706 6.02049C15.5973 6.33158 15.6988 6.65465 15.9931 8.54247C15.9933 8.54678 15.9933 8.54678 15.9935 8.55117C15.9983 8.65249 16.0004 8.75378 16.0004 8.85523C16.0004 8.86057 16.0004 8.86591 16.0004 8.87125C16.0004 8.89926 16.0005 8.92727 16.0005 8.95529C16.0005 8.97791 16.0005 9.00053 16.0005 9.02315C16.0013 9.39907 15.9803 9.77391 15.7891 10.9791C15.7884 10.9823 15.7876 10.9854 15.7869 10.9887C15.7302 11.2363 15.661 11.4808 15.5784 11.7194C15.5775 11.722 15.5766 11.7246 15.5757 11.7272C15.5638 11.7615 15.5516 11.7957 15.5391 11.8297C15.5382 11.8322 15.5372 11.8347 15.5363 11.8373C15.4567 12.0549 15.3698 12.2714 15.2663 12.4765C15.2569 12.4951 15.248 12.514 15.2391 12.5329C15.2198 12.5735 15.1992 12.6131 15.1784 12.6527C15.1761 12.6571 15.1738 12.6614 15.1715 12.6659C15.1354 12.7344 15.0986 12.8022 15.0605 12.8693C15.0584 12.8731 15.0562 12.8769 15.054 12.8808C15.0218 12.9375 14.9882 12.9931 14.9543 13.0485C14.9522 13.0518 14.9502 13.0551 14.9481 13.0586C14.9206 13.1035 14.8926 13.1481 14.8641 13.1922C14.8618 13.1957 14.8596 13.1992 14.8573 13.2028C14.828 13.2482 14.7975 13.2926 14.7667 13.3368C14.7588 13.3482 14.7511 13.3597 14.7433 13.3712C14.7273 13.3948 14.7107 13.418 14.6941 13.4412C14.6892 13.448 14.6844 13.4548 14.6796 13.4616C14.6557 13.4954 14.6311 13.5286 14.6063 13.5616C14.5997 13.5704 14.5932 13.5792 14.5866 13.588C14.5666 13.6151 14.5464 13.6418 14.525 13.6675C14.5171 13.6773 14.5095 13.6875 14.502 13.6978C14.4871 13.7181 14.4714 13.7372 14.4553 13.7563C14.4482 13.7648 14.4412 13.7734 14.4344 13.7822C14.4199 13.8006 14.4047 13.8183 14.3895 13.8361C14.3786 13.8489 14.3678 13.8619 14.3574 13.8752C14.347 13.8885 14.3359 13.9007 14.3246 13.913C14.3182 13.9201 14.3123 13.9274 14.3065 13.935C14.2921 13.9536 14.2762 13.9706 14.2604 13.9877C14.2516 13.9972 14.2433 14.0064 14.2358 14.0172C14.2293 14.0258 14.2232 14.0322 14.2155 14.0394C14.1993 14.0549 14.1842 14.0714 14.1691 14.0882C14.1649 14.0929 14.1649 14.0929 14.1605 14.0977C14.1516 14.1076 14.1427 14.1176 14.1337 14.1275C14.1219 14.1406 14.1101 14.1537 14.0983 14.1668C14.0944 14.1712 14.0944 14.1712 14.0903 14.1757C14.0757 14.1919 14.0608 14.2073 14.0451 14.2222C14.0374 14.2296 14.0302 14.2375 14.023 14.2456C14.0112 14.2588 13.9991 14.2712 13.9863 14.2833C13.9765 14.2927 13.9669 14.3024 13.9574 14.3121C13.9242 14.3457 13.8905 14.3786 13.8562 14.4109C13.85 14.4167 13.8438 14.4226 13.8376 14.4285C13.8074 14.4573 13.7767 14.4853 13.7459 14.5132C13.74 14.5185 13.7342 14.5238 13.7284 14.529C13.6898 14.564 13.6508 14.5985 13.6111 14.6319C13.6037 14.6381 13.5963 14.6444 13.589 14.6507C13.5578 14.6773 13.5261 14.703 13.4944 14.7287C13.4856 14.7359 13.4768 14.743 13.4681 14.7502C13.4378 14.775 13.4073 14.7993 13.3761 14.8226C13.3642 14.8315 13.3524 14.8406 13.3407 14.8497C13.3079 14.875 13.2752 14.9002 13.2411 14.9232C13.226 14.9334 13.2113 14.944 13.1967 14.955C13.134 15.0016 13.0684 15.0439 13.0034 15.0864C13.0001 15.0886 12.9968 15.0907 12.9934 15.093C12.9474 15.123 12.901 15.1518 12.854 15.1796C12.8418 15.1868 12.8298 15.194 12.8178 15.2014C12.7752 15.2278 12.732 15.2527 12.6884 15.2771C12.6849 15.2791 12.6813 15.2811 12.6776 15.2832C12.627 15.3116 12.5764 15.3399 12.5248 15.366C12.52 15.3684 12.5152 15.3709 12.5104 15.3733C12.3706 15.4443 12.2288 15.5099 12.0842 15.568C12.0708 15.5734 12.0575 15.5789 12.0442 15.5844C11.7963 15.6862 11.54 15.7637 11.2819 15.8267C11.2789 15.8275 11.2759 15.8282 11.2728 15.829C10.9129 15.9169 10.5462 15.9672 10.1438 15.9926C10.14 15.9929 10.14 15.9929 10.1361 15.9931C10.1169 15.9942 10.0976 15.9952 10.0784 15.9961C10.0749 15.9962 10.0714 15.9964 10.0677 15.9966C9.98444 16.0003 9.9012 16.0006 9.81784 16.0005C9.79779 16.0005 9.77774 16.0006 9.7577 16.0006C9.72267 16.0006 9.68764 16.0006 9.65261 16.0006C9.61507 16.0006 9.57754 16.0006 9.54001 16.0006C9.53763 16.0006 9.53524 16.0006 9.53279 16.0006C9.52308 16.0006 9.51337 16.0006 9.50366 16.0006C9.40271 16.0007 9.30177 16.0007 9.20082 16.0007C9.18998 16.0007 9.17914 16.0007 9.16829 16.0007C9.16426 16.0007 9.16426 16.0007 9.16014 16.0007C9.10032 16.0007 9.0405 16.0007 8.98068 16.0007C8.95599 16.0007 8.93131 16.0007 8.90662 16.0007C8.90389 16.0007 8.90117 16.0007 8.89835 16.0007C8.74215 16.0007 8.58595 16.0007 8.42975 16.0007C8.42391 16.0007 8.41807 16.0007 8.41224 16.0007C8.38588 16.0007 8.35953 16.0007 8.33318 16.0007C8.32143 16.0007 8.30969 16.0007 8.29794 16.0007C8.29206 16.0007 8.28617 16.0007 8.28029 16.0007C8.09449 16.0007 7.90869 16.0008 7.72289 16.0008C7.6761 16.0008 7.6293 16.0009 7.5825 16.0009C7.57962 16.0009 7.57674 16.0009 7.57377 16.0009C7.48478 16.0009 7.3958 16.0009 7.30681 16.0009C7.30402 16.0009 7.30122 16.0009 7.29833 16.0009C7.23688 16.0009 7.17542 16.0009 7.11396 16.0009C7.09196 16.0009 7.06997 16.0009 7.04797 16.0009C7.0425 16.0009 7.03703 16.0009 7.03155 16.0009C6.94476 16.0009 6.85797 16.0009 6.77118 16.001C6.68364 16.001 6.5961 16.001 6.50856 16.001C6.4964 16.001 6.48423 16.001 6.47207 16.001C6.46968 16.001 6.4673 16.001 6.46484 16.001C6.42523 16.001 6.38561 16.001 6.346 16.001C6.31129 16.001 6.27657 16.001 6.24186 16.001C6.22219 16.001 6.20251 16.001 6.18283 16.001C5.84481 16.0015 5.50689 15.9714 4.18194 15.6653C4.17916 15.6643 4.17639 15.6633 4.17353 15.6623C4.13602 15.6489 4.09861 15.6351 4.06129 15.621C4.05331 15.618 4.04532 15.615 4.03733 15.612C3.80222 15.5235 3.57304 15.4157 3.35139 15.2921C3.3402 15.2859 3.32898 15.2797 3.31774 15.2736C3.26619 15.2457 3.2154 15.2169 3.16559 15.1853C3.14653 15.1731 3.1272 15.1616 3.10783 15.1501C3.0615 15.1225 3.01635 15.0927 2.97122 15.0628C2.96759 15.0604 2.96395 15.058 2.96021 15.0555C2.88911 15.0083 2.81928 14.9592 2.75024 14.9085C2.7478 14.9067 2.74535 14.9049 2.74284 14.903C2.6968 14.8692 2.65102 14.8349 2.60582 14.7997C2.60335 14.7977 2.60089 14.7958 2.59834 14.7938C2.57048 14.7721 2.54304 14.7497 2.5156 14.7272C2.5069 14.7201 2.49818 14.7131 2.48944 14.7061C2.45838 14.6811 2.42787 14.6555 2.39798 14.6288C2.38595 14.6181 2.37371 14.6077 2.3614 14.5974C2.34416 14.5828 2.32726 14.5679 2.31052 14.5527C2.30008 14.5432 2.28957 14.5338 2.27905 14.5244C2.25112 14.4995 2.22353 14.4742 2.19622 14.4485C2.19423 14.4466 2.19223 14.4447 2.19017 14.4427C2.17972 14.4329 2.16928 14.423 2.15885 14.4131C2.1505 14.4052 2.14212 14.3973 2.13371 14.3895C2.10761 14.3651 2.0823 14.3399 2.05733 14.3141C2.04672 14.3032 2.03585 14.2926 2.02486 14.2821C1.99708 14.2553 1.97024 14.2273 1.94332 14.1994C1.9408 14.1968 1.93829 14.1942 1.93569 14.1915C1.92412 14.1795 1.91269 14.1674 1.90154 14.1549C1.89321 14.1456 1.88464 14.1369 1.87565 14.1284C1.86133 14.1147 1.84778 14.1003 1.83438 14.0854C1.83202 14.0828 1.82966 14.0802 1.82723 14.0776C1.82229 14.0721 1.81736 14.0667 1.81242 14.0612C1.80495 14.053 1.79745 14.0447 1.78995 14.0365C1.78512 14.0311 1.78028 14.0258 1.77545 14.0205C1.77325 14.018 1.77104 14.0156 1.76877 14.0131C1.75541 13.9983 1.74278 13.983 1.73038 13.9672C1.72386 13.959 1.71702 13.9512 1.70995 13.9435C1.70613 13.9394 1.70613 13.9394 1.70224 13.9351C1.69966 13.9323 1.69709 13.9295 1.69444 13.9267C1.67732 13.9081 1.66077 13.8894 1.64511 13.8693C1.63522 13.8568 1.62486 13.8447 1.61453 13.8327C1.5976 13.8127 1.58082 13.7927 1.56435 13.7724C1.55925 13.7661 1.55412 13.7598 1.54897 13.7536C1.53525 13.737 1.52196 13.7202 1.50917 13.7027C1.49758 13.6869 1.48555 13.6718 1.47301 13.6569C1.45809 13.6392 1.44391 13.621 1.43014 13.6022C1.42134 13.5901 1.41245 13.5782 1.40352 13.5663C1.39274 13.5519 1.38198 13.5375 1.37122 13.523C1.36923 13.5204 1.36724 13.5177 1.36519 13.5149C1.3414 13.483 1.31817 13.4508 1.29555 13.4179C1.28273 13.3992 1.26961 13.381 1.25627 13.3628C1.24126 13.3423 1.22704 13.3214 1.21331 13.2999C1.20212 13.2823 1.19054 13.2652 1.17881 13.2481C1.15855 13.2185 1.13907 13.1883 1.11981 13.1579C1.11373 13.1484 1.10763 13.1388 1.10152 13.1293C1.07807 13.0925 1.05497 13.0556 1.03254 13.018C1.02839 13.0111 1.0242 13.0042 1.02 12.9974C0.993456 12.9539 0.96797 12.9097 0.942652 12.8654C0.940779 12.8621 0.938907 12.8588 0.936977 12.8555C0.88336 12.7614 0.832243 12.6656 0.783498 12.5684C0.778979 12.5594 0.774407 12.5505 0.769786 12.5416C0.749238 12.502 0.730184 12.4616 0.711193 12.421C0.70295 12.4034 0.694613 12.3859 0.686186 12.3684C0.646503 12.286 0.609733 12.2022 0.574795 12.1172C0.572091 12.1106 0.572091 12.1106 0.569333 12.104C0.479011 11.8857 0.399703 11.6618 0.332294 11.4336C0.327477 11.4173 0.322599 11.4011 0.317647 11.3848C0.219911 11.0638 0.150812 10.7298 0.0997947 10.3963C0.0992223 10.3925 0.0986503 10.3888 0.0980605 10.3849C0.0808485 10.2722 0.0661801 10.1592 0.0533662 10.0458C0.0527745 10.0406 0.0527743 10.0406 0.0521707 10.0352C0.0325658 9.86153 0.0194462 9.68714 0.0100765 9.51242C0.00977334 9.50677 0.0094696 9.50111 0.00916363 9.49546C0.00701585 9.45576 0.00507461 9.41606 0.00336616 9.37634C0.00316802 9.3718 0.00296955 9.36727 0.0027654 9.3626C-0.00189525 9.25003 -0.000875193 9.13725 -0.000866192 9.02459C-0.000867265 9.00484 -0.0008965 8.98509 -0.000940306 8.96534C-0.00124943 8.82257 0.00033766 8.68017 0.00693759 8.53755C0.00707668 8.53448 0.00721543 8.53142 0.00735873 8.52826C0.00902248 8.49163 0.010979 8.45502 0.0131876 8.41842C0.0134806 8.41348 0.0137733 8.40854 0.0140752 8.40345C0.0355901 8.04376 0.078376 7.68523 0.38908 6.40316C0.390088 6.40021 0.391096 6.39726 0.392134 6.39422C0.45246 6.21792 0.519605 6.04455 0.594682 5.87527C0.601194 5.86048 0.607542 5.84561 0.613886 5.83073C0.630566 5.79166 0.648331 5.75337 0.666806 5.7153C0.671179 5.70623 0.675488 5.69714 0.679775 5.68802C0.701216 5.6425 0.72383 5.59779 0.746898 5.55326C0.752524 5.54238 0.758129 5.53148 0.763722 5.52058C0.794981 5.45968 0.826912 5.3993 0.860509 5.33991C0.861973 5.33732 0.863436 5.33473 0.864945 5.33206C0.891466 5.28523 0.918756 5.23901 0.946577 5.19311C0.952903 5.18267 0.959211 5.17221 0.965517 5.16176C1.02211 5.06812 1.08111 4.97651 1.14318 4.88721C1.15351 4.87235 1.16371 4.85739 1.17383 4.84235C1.19544 4.81026 1.21801 4.77913 1.24105 4.74826C1.24809 4.73884 1.25508 4.72938 1.26207 4.71993C1.2675 4.71262 1.27293 4.70532 1.27837 4.69802C1.28019 4.69556 1.28202 4.6931 1.2839 4.69056C1.32029 4.64155 1.35703 4.59301 1.39569 4.54615C1.40397 4.53581 1.41182 4.52516 1.41966 4.51441C1.43121 4.49866 1.4432 4.48413 1.45652 4.47019C1.46557 4.46008 1.4739 4.44941 1.48234 4.43869C1.49318 4.4251 1.5044 4.41191 1.51564 4.39873C1.51799 4.39598 1.52034 4.39322 1.52276 4.39037C1.53649 4.37429 1.55041 4.35849 1.56472 4.34303C1.57094 4.33605 1.57671 4.32885 1.58246 4.3214C1.59723 4.30268 1.61299 4.28517 1.62891 4.26766C1.63351 4.26258 1.63351 4.26258 1.63821 4.2574C1.64466 4.25028 1.65111 4.24317 1.65758 4.23606C1.6674 4.22525 1.67721 4.21442 1.68701 4.20358C1.69331 4.19663 1.69961 4.18969 1.70592 4.18275C1.70882 4.17954 1.71172 4.17634 1.7147 4.17304C1.72992 4.15633 1.74539 4.14022 1.76171 4.12483C1.76944 4.11743 1.7766 4.10952 1.78372 4.10142C1.79553 4.088 1.80799 4.07573 1.82078 4.06349C1.83311 4.05152 1.84501 4.03905 1.85694 4.0266C1.87356 4.00923 1.89036 3.99222 1.90765 3.97567C1.91564 3.968 1.92345 3.96014 1.93127 3.95227C1.94688 3.93672 1.96302 3.92206 1.97937 3.90747C1.9888 3.89887 1.99789 3.88998 2.00694 3.88089C2.02353 3.86426 2.04071 3.8486 2.05814 3.83306C2.0649 3.827 2.07161 3.82088 2.07831 3.81476C2.10408 3.79124 2.12994 3.7679 2.15632 3.74522C2.16935 3.73401 2.18228 3.72268 2.19516 3.71125C2.21804 3.69095 2.24118 3.67115 2.26478 3.65187C2.27238 3.64563 2.27994 3.63935 2.2875 3.63306C2.32696 3.60026 2.36665 3.56787 2.40694 3.53632C2.40976 3.53411 2.41258 3.5319 2.41549 3.52962C2.46297 3.49254 2.51123 3.45676 2.55962 3.42113C2.56252 3.41899 2.56542 3.41685 2.56841 3.41465C2.61059 3.38356 2.65321 3.35333 2.69622 3.32367C2.70172 3.31987 2.70172 3.31987 2.70732 3.31599C2.81668 3.24047 2.92867 3.1698 3.04265 3.10314C3.04708 3.10054 3.04708 3.10054 3.0516 3.09789C3.06797 3.0883 3.08437 3.07879 3.1008 3.06934C3.10792 3.06525 3.11504 3.06114 3.12216 3.05704C3.17964 3.02387 3.23737 2.99151 3.29622 2.96137C3.29842 2.96025 3.30062 2.95912 3.30288 2.95796C3.41826 2.89876 3.53488 2.84323 3.65337 2.79204C3.65713 2.7904 3.66089 2.78877 3.66476 2.78708C3.77976 2.73714 3.89654 2.69236 4.01408 2.65027C4.01784 2.64892 4.01784 2.64892 4.02167 2.64755C4.23666 2.57035 4.45684 2.50726 4.67837 2.45731C4.68151 2.4566 4.68465 2.45589 4.68789 2.45516C4.83444 2.42207 4.98158 2.39436 5.12971 2.37141C5.13212 2.37104 5.13454 2.37066 5.13704 2.37028C5.18757 2.36245 5.23813 2.35487 5.28877 2.34799C5.29237 2.34749 5.29597 2.34699 5.29968 2.34647C5.30305 2.34602 5.30642 2.34558 5.30989 2.34511C5.31278 2.34472 5.31568 2.34433 5.31866 2.34393C5.33139 2.34285 5.34418 2.34311 5.35694 2.34311C5.35694 3.14362 5.35694 3.94413 5.35694 4.7689C5.33995 4.77515 5.32358 4.77988 5.30613 4.78378C5.30018 4.78514 5.29423 4.7865 5.28828 4.78787C5.28514 4.78859 5.28201 4.7893 5.27878 4.79004C5.14962 4.81968 5.02211 4.85534 4.89622 4.89886C4.89335 4.89985 4.89048 4.90084 4.88752 4.90186C4.63781 4.98802 4.39204 5.09858 4.16553 5.24388C4.15495 5.2506 4.14425 5.25704 4.13353 5.26346C4.0655 5.30435 3.99931 5.34954 3.93533 5.3977C3.92627 5.40448 3.91713 5.41113 3.90799 5.41778C3.87619 5.44094 3.84509 5.46514 3.81408 5.48955C3.81016 5.49262 3.81016 5.49262 3.80617 5.49576C3.76767 5.52594 3.73006 5.5572 3.69295 5.58943C3.68598 5.59547 3.67899 5.60147 3.67199 5.60746C3.64752 5.62844 3.62364 5.65003 3.60007 5.67222C3.59006 5.68164 3.57989 5.69084 3.56966 5.69999C3.53445 5.73167 3.50024 5.76435 3.46709 5.79862C3.45628 5.80979 3.4454 5.82077 3.43417 5.83142C3.42239 5.84261 3.41148 5.85453 3.40069 5.86686C3.3939 5.87414 3.38697 5.88091 3.37979 5.88771C3.36362 5.90327 3.34841 5.91975 3.33326 5.9365C3.33043 5.93962 3.3276 5.94274 3.32468 5.94595C3.31873 5.95251 3.31278 5.95908 3.30684 5.96564C3.29781 5.97562 3.28876 5.98558 3.27971 5.99553C3.2739 6.00194 3.26809 6.00835 3.26228 6.01477C3.25961 6.0177 3.25694 6.02064 3.25418 6.02367C3.23973 6.03968 3.22586 6.05602 3.21256 6.07321C3.20677 6.08046 3.2007 6.08727 3.19444 6.09403C3.18359 6.1058 3.17356 6.11812 3.16363 6.13083C3.15632 6.14011 3.14882 6.14918 3.14131 6.15827C3.12747 6.17518 3.11436 6.1926 3.10137 6.21031C3.09166 6.22335 3.08168 6.2361 3.07167 6.24885C3.05394 6.27148 3.03703 6.29469 3.0204 6.31831C3.01378 6.32771 3.00708 6.33701 3.00028 6.34625C2.9738 6.38226 2.94864 6.41919 2.92391 6.45668C2.91776 6.46601 2.91159 6.47531 2.90542 6.48462C2.88276 6.51887 2.86086 6.55355 2.83977 6.589C2.83551 6.59613 2.8312 6.60322 2.82687 6.61029C2.65314 6.89467 2.51313 7.20641 2.40694 7.54518C2.40612 7.5478 2.4053 7.55042 2.40445 7.55312C2.29267 7.90998 2.22367 8.28105 2.17479 8.93135C2.17464 8.93503 2.17449 8.93872 2.17434 8.94252C2.17105 9.02446 2.1705 9.1063 2.17055 9.1883C2.17055 9.19161 2.17056 9.19493 2.17056 9.19835C2.17069 9.5784 2.2023 9.95736 2.54622 11.1957C2.54872 11.2016 2.54872 11.2016 2.55126 11.2075C2.6306 11.3936 2.72311 11.5728 2.82964 11.7416C2.83563 11.7511 2.84158 11.7607 2.84752 11.7702C2.87594 11.8156 2.90573 11.8597 2.9363 11.9033C2.94191 11.9113 2.9475 11.9194 2.95307 11.9275C2.97171 11.9544 2.99093 11.9808 3.01051 12.0069C3.01564 12.0139 3.02078 12.0209 3.02591 12.0278C3.04355 12.0516 3.06167 12.0749 3.07987 12.0981C3.08546 12.1053 3.09101 12.1125 3.09656 12.1196C3.12411 12.1552 3.15285 12.1893 3.18206 12.2232C3.18862 12.2308 3.19513 12.2385 3.20161 12.2463C3.22946 12.2795 3.25809 12.3118 3.28707 12.3438C3.28891 12.3459 3.29075 12.3479 3.29264 12.35C3.31161 12.371 3.3307 12.3916 3.35113 12.4109C3.35819 12.4177 3.36474 12.4248 3.37122 12.4322C3.3824 12.4447 3.39397 12.4563 3.40603 12.4678C3.41394 12.4754 3.42166 12.4832 3.42936 12.4911C3.44797 12.5101 3.46702 12.5282 3.48681 12.5457C3.49595 12.554 3.50469 12.5627 3.51341 12.5715C3.52904 12.5872 3.54532 12.6016 3.562 12.6159C3.57556 12.6275 3.58893 12.6393 3.60218 12.6513C3.63454 12.6807 3.66784 12.7085 3.7015 12.7359C3.71027 12.7431 3.71901 12.7503 3.72775 12.7575C3.76655 12.7894 3.80609 12.8198 3.84622 12.8496C3.85069 12.853 3.85516 12.8563 3.85963 12.8596C3.91347 12.8997 3.9683 12.9383 4.02429 12.9746C4.02988 12.9783 4.03547 12.9819 4.04105 12.9855C4.09311 13.0196 4.14582 13.0521 4.19933 13.0833C4.20994 13.0895 4.22053 13.0958 4.23111 13.102C4.27983 13.1306 4.32949 13.1566 4.37973 13.1818C4.38831 13.1861 4.39689 13.1904 4.40547 13.1948C4.47062 13.2277 4.53644 13.2584 4.60337 13.2867C4.60589 13.2878 4.60841 13.2889 4.61101 13.29C4.91907 13.42 5.24013 13.5087 5.94332 13.5966C5.94693 13.5969 5.95055 13.5971 5.95427 13.5973C6.06574 13.6046 6.17706 13.6063 6.28869 13.6063C6.3076 13.6062 6.3265 13.6063 6.34541 13.6063C6.37843 13.6063 6.41145 13.6063 6.44447 13.6063C6.49357 13.6063 6.54268 13.6063 6.59179 13.6063C6.68464 13.6064 6.77749 13.6064 6.87034 13.6064C6.88056 13.6064 6.89078 13.6064 6.901 13.6064C6.90353 13.6064 6.90607 13.6064 6.90868 13.6064C6.96508 13.6064 7.02148 13.6064 7.07788 13.6064C7.10116 13.6064 7.12445 13.6064 7.14773 13.6064C7.1503 13.6064 7.15287 13.6064 7.15553 13.6064C7.30283 13.6064 7.45013 13.6065 7.59744 13.6065C7.60294 13.6065 7.60845 13.6065 7.61395 13.6065C7.63879 13.6065 7.66364 13.6065 7.68849 13.6065C7.69956 13.6065 7.71064 13.6065 7.72172 13.6065C7.72726 13.6065 7.73281 13.6065 7.73835 13.6065C7.91351 13.6065 8.08866 13.6065 8.26382 13.6065C8.30793 13.6065 8.35204 13.6066 8.39615 13.6066C8.40023 13.6066 8.40023 13.6066 8.40439 13.6066C8.48829 13.6066 8.5722 13.6066 8.6561 13.6066C8.65874 13.6066 8.66138 13.6066 8.6641 13.6066C8.72207 13.6066 8.78003 13.6066 8.838 13.6066C8.85875 13.6066 8.8795 13.6066 8.90025 13.6066C8.90541 13.6066 8.91057 13.6066 8.91573 13.6066C8.99754 13.6066 9.07935 13.6066 9.16116 13.6067C9.24601 13.6067 9.33085 13.6067 9.4157 13.6067C9.4602 13.6067 9.50471 13.6067 9.54922 13.6067C9.79604 13.6076 9.79604 13.6076 10.0427 13.5978C10.046 13.5976 10.0493 13.5974 10.0527 13.5972C10.3989 13.5751 10.743 13.5162 11.5819 13.208C11.5859 13.206 11.5898 13.2041 11.5938 13.2021C11.6209 13.1886 11.6479 13.1747 11.6748 13.1607C11.6788 13.1586 11.6829 13.1565 11.687 13.1544C11.7833 13.1044 11.8774 13.05 11.9688 12.9899C11.9781 12.9837 11.9874 12.9776 11.9968 12.9715C12.0686 12.9246 12.1384 12.8745 12.2069 12.8221C12.2097 12.82 12.2124 12.8179 12.2152 12.8158C12.2961 12.7537 12.3745 12.6879 12.4507 12.619C12.4563 12.6139 12.4619 12.6089 12.4675 12.6039C12.5049 12.5705 12.5413 12.5359 12.5768 12.5C12.5843 12.4925 12.5919 12.4851 12.5996 12.4777C12.6169 12.4611 12.6339 12.4439 12.6508 12.4267C12.6549 12.4225 12.659 12.4183 12.6632 12.4141C12.6996 12.3771 12.7348 12.3388 12.7699 12.3003C12.7732 12.2967 12.7732 12.2967 12.7765 12.293C12.8076 12.2588 12.8076 12.2588 12.837 12.2228C12.8478 12.209 12.8594 12.196 12.8708 12.1829C12.8896 12.161 12.9075 12.139 12.9245 12.1154C12.9326 12.1044 12.9411 12.0941 12.9498 12.0837C12.9673 12.0627 12.9836 12.0409 12.9998 12.0187C13.0035 12.0137 13.0072 12.0088 13.0109 12.0038C13.0529 11.9471 13.0929 11.8889 13.1319 11.8297C13.1336 11.8271 13.1353 11.8246 13.1371 11.8219C13.1948 11.7342 13.2495 11.6431 13.2998 11.5501C13.3018 11.5464 13.3038 11.5428 13.3058 11.539C13.3355 11.484 13.3637 11.4283 13.391 11.3718C13.3957 11.3622 13.4004 11.3526 13.4051 11.3431C13.5335 11.0799 13.631 10.7954 13.6998 10.5065C13.7006 10.5032 13.7014 10.4998 13.7022 10.4963C13.7823 10.1618 13.8281 9.8179 13.8423 9.47228C13.8425 9.46566 13.8428 9.45904 13.8431 9.45243C13.8467 9.36833 13.8469 9.28428 13.8469 9.20011C13.8469 9.19655 13.8469 9.193 13.8469 9.18933C13.8469 9.07561 13.8459 8.96216 13.8391 8.84865C13.8388 8.84473 13.8386 8.84081 13.8384 8.83677C13.8159 8.46338 13.7642 8.0918 13.5427 7.34434C13.5411 7.3402 13.5396 7.33607 13.538 7.3318C13.4799 7.17599 13.4148 7.02215 13.3391 6.87572C13.3372 6.87207 13.3353 6.86841 13.3334 6.86465C13.2837 6.76893 13.231 6.67553 13.1748 6.58431C13.173 6.58132 13.1711 6.57833 13.1692 6.57524C13.0959 6.45578 13.016 6.34105 12.9313 6.23115C12.9247 6.22255 12.9181 6.21392 12.9115 6.20525C12.8931 6.18093 12.8742 6.1572 12.8545 6.13406C12.8453 6.12324 12.8363 6.11228 12.8275 6.10107C12.7859 6.04849 12.741 5.99906 12.6962 5.94977C12.6872 5.93985 12.6782 5.9299 12.6692 5.91995C12.6634 5.91352 12.6575 5.9071 12.6517 5.90067C12.6477 5.89629 12.6477 5.89629 12.6437 5.89182C12.6293 5.87601 12.6146 5.86084 12.5991 5.84625C12.5878 5.83535 12.5768 5.82388 12.5659 5.81247C12.5499 5.79591 12.5338 5.77949 12.5172 5.76372C12.5093 5.75618 12.5017 5.74838 12.494 5.7406C12.4781 5.72474 12.4615 5.71021 12.4445 5.69577C12.4287 5.68217 12.4135 5.66788 12.3985 5.65323C12.3761 5.63156 12.3529 5.61175 12.3289 5.59231C12.316 5.58175 12.3033 5.57082 12.2906 5.5598C12.2636 5.53623 12.236 5.51406 12.2073 5.49283C12.1876 5.47817 12.1683 5.46298 12.1491 5.44747C12.1249 5.42797 12.1001 5.41002 12.0746 5.39278C12.0631 5.38507 12.0519 5.37704 12.0407 5.36888C11.9689 5.31659 11.8939 5.26916 11.8179 5.22459C11.8032 5.21598 11.7889 5.20697 11.7746 5.19765C11.7437 5.17801 11.7113 5.16178 11.6791 5.14505C11.6674 5.13893 11.6557 5.1327 11.6441 5.12644C11.3999 4.9953 11.1423 4.8977 10.8787 4.82611C10.8763 4.82545 10.8738 4.82478 10.8713 4.8241C10.7955 4.80374 10.7191 4.78664 10.6427 4.7689C10.6427 3.96709 10.6427 3.16528 10.6427 2.33917Z" fill="#213864"></path>
    <path d="M6.89648 0C7.62484 0 8.3532 0 9.10363 0C9.10363 2.59387 9.10363 5.18773 9.10363 7.8602C8.37527 7.8602 7.64691 7.8602 6.89648 7.8602C6.89648 5.26633 6.89648 2.67247 6.89648 0Z" fill="#EC3136"></path>
  </g>
  <defs>
    <clipPath id="clip0_1592_398">
      <rect width="16" height="16" fill="white"></rect>
    </clipPath>
  </defs>
</svg>
