<svg width="80" height="80" viewBox="0 0 80 80" fill="none" xmlns="http://www.w3.org/2000/svg">
<circle cx="40" cy="40" r="40" fill="#ECF3FD"/>
<path d="M39.5547 23.1111C32.938 23.1111 27.5547 28.295 27.5547 34.6667C27.5547 36.5794 28.0513 38.4759 28.9954 40.1581L38.8985 57.4054C39.0303 57.6353 39.2815 57.7778 39.5547 57.7778C39.8279 57.7778 40.0791 57.6353 40.2109 57.4054L50.1176 40.1524C51.0581 38.4759 51.5547 36.5794 51.5547 34.6666C51.5547 28.295 46.1714 23.1111 39.5547 23.1111ZM39.5547 40.4444C36.2464 40.4444 33.5547 37.8525 33.5547 34.6667C33.5547 31.4809 36.2464 28.8889 39.5547 28.8889C42.863 28.8889 45.5547 31.4809 45.5547 34.6667C45.5547 37.8525 42.863 40.4444 39.5547 40.4444Z" fill="#1A48A8"/>
</svg>
