<?xml version="1.0" encoding="UTF-8"?>
<svg xmlns="http://www.w3.org/2000/svg" width="62" height="62" viewBox="0 0 62 62" fill="none">
  <path d="M49.1814 41.9814L41.4314 33.2626C41.3405 33.1619 41.2297 33.0813 41.1059 33.0258C40.9822 32.9703 40.8482 32.9412 40.7126 32.9404C40.577 32.9396 40.4427 32.9671 40.3183 33.0211C40.1939 33.0751 40.0821 33.1545 39.9901 33.2541L32.0661 41.9729C31.9427 42.1128 31.8621 42.285 31.8337 42.4693C31.8052 42.6536 31.8302 42.8422 31.9057 43.0128C31.9811 43.1833 32.1039 43.3286 32.2594 43.4315C32.4149 43.5345 32.5966 43.5906 32.7831 43.5935H35.8634V57.1559C35.8672 57.4103 35.9709 57.6531 36.1521 57.8317C36.3334 58.0103 36.5777 58.1104 36.8321 58.1104C37.0866 58.1104 37.3309 58.0103 37.5121 57.8317C37.6934 57.6531 37.7971 57.4104 37.8009 57.156V42.6247C37.8009 42.4975 37.7759 42.3715 37.7272 42.2539C37.6786 42.1364 37.6072 42.0296 37.5172 41.9396C37.4273 41.8497 37.3205 41.7783 37.2029 41.7296C37.0854 41.681 36.9594 41.6559 36.8322 41.656H34.9727L40.6991 35.3553L46.2997 41.656H44.5822C44.4549 41.6559 44.3289 41.681 44.2114 41.7296C44.0938 41.7783 43.987 41.8497 43.8971 41.9396C43.8071 42.0296 43.7358 42.1364 43.6871 42.2539C43.6384 42.3715 43.6134 42.4975 43.6134 42.6247V57.156C43.6134 57.4129 43.7155 57.6593 43.8971 57.841C44.0788 58.0226 44.3252 58.1247 44.5822 58.1247C44.8391 58.1247 45.0855 58.0226 45.2672 57.841C45.4488 57.6593 45.5509 57.4129 45.5509 57.156V43.5935H48.4572C48.6438 43.5934 48.8265 43.5394 48.9832 43.4379C49.14 43.3365 49.264 43.1919 49.3405 43.0216C49.417 42.8513 49.4427 42.6625 49.4145 42.478C49.3862 42.2935 49.3053 42.121 49.1814 41.9814Z" fill="#DB373C"></path>
  <path d="M32.9567 56.1875H17.418C16.6474 56.1867 15.9087 55.8802 15.3639 55.3354C14.819 54.7905 14.5126 54.0518 14.5117 53.2812V12.3903C14.5126 11.6198 14.819 10.8811 15.3639 10.3362C15.9087 9.79137 16.6474 9.4849 17.418 9.48406H38.634C39.4045 9.4849 40.1432 9.79137 40.6881 10.3362C41.2329 10.8811 41.5394 11.6198 41.5402 12.3903V30.1087C41.5402 30.3657 41.6423 30.6121 41.8239 30.7938C42.0056 30.9754 42.252 31.0775 42.509 31.0775C42.7659 31.0775 43.0123 30.9754 43.194 30.7938C43.3756 30.6121 43.4777 30.3657 43.4777 30.1087V12.3903C43.4762 11.1061 42.9654 9.87498 42.0573 8.96693C41.1493 8.05888 39.9181 7.54807 38.634 7.54656H34.8848V6.78125C34.8839 6.01072 34.5775 5.272 34.0326 4.72715C33.4878 4.1823 32.7491 3.87584 31.9785 3.875H24.0734C23.3028 3.87584 22.5641 4.1823 22.0193 4.72715C21.4744 5.272 21.168 6.01072 21.1671 6.78125V7.54656H17.418C16.1338 7.54807 14.9026 8.05888 13.9946 8.96693C13.0865 9.87498 12.5757 11.1061 12.5742 12.3903V53.2812C12.5757 54.5654 13.0865 55.7966 13.9946 56.7046C14.9026 57.6127 16.1338 58.1235 17.418 58.125H32.9567C33.2136 58.125 33.4601 58.0229 33.6417 57.8413C33.8234 57.6596 33.9255 57.4132 33.9255 57.1562C33.9255 56.8993 33.8234 56.6529 33.6417 56.4712C33.4601 56.2896 33.2136 56.1875 32.9567 56.1875ZM23.1046 6.78125C23.105 6.52442 23.2071 6.27821 23.3887 6.09661C23.5703 5.91501 23.8165 5.81284 24.0734 5.8125H31.9785C32.2354 5.81283 32.4816 5.915 32.6632 6.09661C32.8448 6.27821 32.9469 6.52442 32.9473 6.78125V7.54656H23.1046V6.78125Z" fill="#1E335E"></path>
  <path d="M32.9567 52.3126H18.3867V44.0299H27.1542C27.4111 44.0299 27.6575 43.9279 27.8392 43.7462C28.0209 43.5645 28.1229 43.3181 28.1229 43.0612C28.1229 42.8043 28.0209 42.5579 27.8392 42.3762C27.6575 42.1945 27.4111 42.0924 27.1542 42.0924H18.3867V33.8098H36.4349C36.6918 33.8098 36.9382 33.7078 37.1199 33.5261C37.3016 33.3444 37.4036 33.098 37.4036 32.8411C37.4036 32.5841 37.3016 32.3377 37.1199 32.1561C36.9382 31.9744 36.6918 31.8723 36.4349 31.8723H18.3867V23.5821H37.6652V30.4287C37.6652 30.6856 37.7673 30.932 37.9489 31.1137C38.1306 31.2953 38.377 31.3974 38.634 31.3974C38.8909 31.3974 39.1373 31.2953 39.319 31.1137C39.5006 30.932 39.6027 30.6856 39.6027 30.4287V12.3904C39.6027 12.1335 39.5006 11.8871 39.3189 11.7054C39.1373 11.5237 38.8909 11.4216 38.634 11.4216H17.418C17.161 11.4216 16.9146 11.5237 16.733 11.7054C16.5513 11.887 16.4492 12.1335 16.4492 12.3904V53.2813C16.4492 53.4085 16.4742 53.5345 16.5229 53.6521C16.5716 53.7696 16.6429 53.8764 16.7329 53.9664C16.8228 54.0564 16.9297 54.1277 17.0472 54.1764C17.1648 54.2251 17.2907 54.2501 17.418 54.2501H32.9567C33.2136 54.2501 33.4601 54.148 33.6417 53.9663C33.8234 53.7846 33.9255 53.5382 33.9255 53.2813C33.9255 53.0244 33.8234 52.778 33.6417 52.5963C33.4601 52.4146 33.2136 52.3126 32.9567 52.3126ZM37.6652 13.3591V21.6446H18.3867V13.3591H37.6652Z" fill="#DB373C"></path>
</svg>
