<?xml version="1.0" encoding="UTF-8"?>
<svg xmlns="http://www.w3.org/2000/svg" width="51" height="51" viewBox="0 0 51 51" fill="none">
  <path d="M19.8447 30.4112H23.6396V37.1937C23.6396 37.6432 23.9405 38.0369 24.3743 38.1549C24.4612 38.1785 24.5489 38.1899 24.6358 38.1899C24.9824 38.1899 25.3125 38.0081 25.4946 37.6982L32.0147 26.596C32.1955 26.288 32.1976 25.9068 32.0202 25.5967C31.8428 25.2867 31.5129 25.0955 31.1557 25.0955H27.3609V18.3131C27.3609 17.8636 27.06 17.4699 26.6262 17.3519C26.1925 17.2339 25.7336 17.421 25.5059 17.8086L18.9858 28.9107C18.805 29.2187 18.8028 29.5999 18.9802 29.91C19.1576 30.22 19.4875 30.4112 19.8447 30.4112ZM25.3687 21.9761V26.0916C25.3687 26.6417 25.8147 27.0877 26.3648 27.0877H29.4157L25.6318 33.5307V29.4151C25.6318 28.865 25.1857 28.419 24.6357 28.419H21.5849L25.3687 21.9761Z" fill="#DB373C"></path>
  <path d="M37.3223 28.7497H38.3773V29.8048C38.3773 30.3549 38.8234 30.8009 39.3734 30.8009C39.9235 30.8009 40.3695 30.3549 40.3695 29.8048V28.7497H41.4247C41.9747 28.7497 42.4208 28.3038 42.4208 27.7536C42.4208 27.2035 41.9747 26.7576 41.4247 26.7576H40.3695V25.7024C40.3695 25.1522 39.9235 24.7063 39.3734 24.7063C38.8234 24.7063 38.3773 25.1522 38.3773 25.7024V26.7576H37.3223C36.7722 26.7576 36.3262 27.2035 36.3262 27.7536C36.3262 28.3038 36.7721 28.7497 37.3223 28.7497Z" fill="#DB373C"></path>
  <path d="M9.5752 28.7495H13.6776C14.2277 28.7495 14.6737 28.3036 14.6737 27.7534C14.6737 27.2033 14.2277 26.7573 13.6776 26.7573H9.5752C9.02515 26.7573 8.5791 27.2033 8.5791 27.7534C8.5791 28.3036 9.02505 28.7495 9.5752 28.7495Z" fill="#DB373C"></path>
  <path d="M50.0039 15.2376C50.5539 15.2376 51 14.7916 51 14.2415V9.03412C51 8.48398 50.5539 8.03803 50.0039 8.03803H45.3313V4.5271C45.3313 3.97696 44.8854 3.53101 44.3352 3.53101H34.4113C33.8612 3.53101 33.4152 3.97696 33.4152 4.5271V8.03803H30.0029C29.4529 8.03803 29.0068 8.48398 29.0068 9.03412C29.0068 9.58427 29.4529 10.0302 30.0029 10.0302H49.0078V13.2454H1.99219V10.0302H20.9971C21.5472 10.0302 21.9932 9.58427 21.9932 9.03412C21.9932 8.48398 21.5472 8.03803 20.9971 8.03803H17.5848V4.5271C17.5848 3.97696 17.1388 3.53101 16.5887 3.53101H6.66476C6.11462 3.53101 5.66867 3.97696 5.66867 4.5271V8.03803H0.996094C0.445951 8.03803 0 8.48398 0 9.03412V14.2415C0 14.7916 0.445951 15.2376 0.996094 15.2376H2.96268V40.2692H0.996094C0.445951 40.2692 0 40.7152 0 41.2653V46.4728C0 47.0229 0.445951 47.4689 0.996094 47.4689H50.0039C50.5539 47.4689 51 47.0229 51 46.4728V41.2653C51 40.7152 50.5539 40.2692 50.0039 40.2692H48.0373V15.2376H50.0039ZM35.4073 8.03803V5.52319H43.3391V8.03803H35.4073ZM7.66086 5.52319H15.5927V8.03803H7.66086V5.52319ZM49.0078 45.4767H1.99219V42.2614H49.0078V45.4767ZM46.0451 40.2692H4.95487V15.2376H46.0451V40.2692Z" fill="#1E335E"></path>
  <path d="M24.5988 9.41515C24.7561 9.79277 25.1401 10.0444 25.5506 10.0301C25.9606 10.0159 26.3294 9.74276 26.4614 9.35448C26.5952 8.96133 26.4638 8.51139 26.1372 8.2542C25.8098 7.99641 25.3476 7.96872 24.9926 8.18836C24.584 8.44137 24.414 8.97139 24.5988 9.41515Z" fill="#1E335E"></path>
</svg>
