<?xml version="1.0" encoding="UTF-8"?>
<svg xmlns="http://www.w3.org/2000/svg" width="53" height="54" viewBox="0 0 53 54" fill="none">
  <g clip-path="url(#clip0_891_67)">
    <path d="M53 16.1968C53 14.6016 51.7262 13.3037 50.1606 13.3037H49.299V11.6453C49.299 9.97797 48.0517 8.60182 46.4578 8.43444V7.04309C46.4578 5.41814 45.1603 4.09619 43.5656 4.09619H42.7174C41.1242 4.09619 39.8279 5.41814 39.8279 7.04309V8.41735H35.9972L35.234 5.95508C34.8272 4.63872 33.9651 4.36239 33.3136 4.36239H19.6864C19.0349 4.36239 18.1727 4.63872 17.7664 5.95392L17.0004 8.41735H13.1719V7.04309C13.1719 5.41814 11.8744 4.09619 10.2796 4.09619H9.43441C7.83965 4.09619 6.54219 5.41814 6.54219 7.04309V8.43454C4.94836 8.60182 3.70099 9.97797 3.70099 11.6454V13.3038H2.83654C1.27241 13.3037 0 14.6016 0 16.1968C0 17.7559 1.21807 19.0297 2.7355 19.0844V40.9744C1.60004 41.1641 0.73082 42.1704 0.73082 43.3801V48.3981C0.73082 49.2283 1.39363 49.9036 2.2084 49.9036H50.41C51.2247 49.9036 51.8876 49.2283 51.8876 48.3981V43.3801C51.8876 42.31 51.2073 41.3994 50.2645 41.072V19.0842C51.7821 19.0282 53 17.7549 53 16.1968ZM41.3686 7.04309C41.3686 6.28361 41.9736 5.66578 42.7175 5.66578H43.5657C44.311 5.66578 44.9174 6.28361 44.9174 7.04309V8.41735H41.3687V7.04309H41.3686ZM19.2353 6.42652C19.3882 5.93198 19.5264 5.93198 19.6864 5.93198H33.3136C33.4736 5.93198 33.6118 5.93198 33.7648 6.42716L34.3818 8.41746H18.6164L19.2353 6.42652ZM8.08271 7.04309C8.08271 6.28361 8.6891 5.66578 9.43441 5.66578H10.2797C11.0251 5.66578 11.6315 6.28361 11.6315 7.04309V8.41735H8.08271V7.04309ZM5.24151 11.6453C5.24151 10.7309 5.97171 9.98694 6.86919 9.98694H7.31245H12.4018H17.5644H35.4328H40.5983H45.6877H46.1309C47.0285 9.98694 47.7586 10.7309 47.7586 11.6453V13.3037H5.24151V11.6453ZM50.3471 48.334H2.27144V43.3801C2.27144 42.901 2.65393 42.5113 3.12421 42.5113H4.58595C5.05788 42.5113 5.44171 42.9011 5.44171 43.3801V44.9053C5.44171 45.3388 5.78652 45.6901 6.21197 45.6901H24.9314C25.3569 45.6901 25.7017 45.3387 25.7017 44.9053C25.7017 44.4719 25.3569 44.1205 24.9314 44.1205H6.98213V43.3801C6.98213 42.0355 5.90712 40.9416 4.58585 40.9416H4.27602V19.0869H24.9313C25.3568 19.0869 25.7016 18.7355 25.7016 18.3021C25.7016 17.8687 25.3568 17.5173 24.9313 17.5173H2.83654C2.12197 17.5173 1.54052 16.925 1.54052 16.1968C1.54052 15.4671 2.12197 14.8733 2.83654 14.8733H50.1606C50.8768 14.8733 51.4595 15.467 51.4595 16.1968C51.4595 16.925 50.8768 17.5173 50.1606 17.5173H28.5148C28.0894 17.5173 27.7446 17.8687 27.7446 18.3021C27.7446 18.7355 28.0894 19.0869 28.5148 19.0869H48.724V40.9416H48.0297C46.71 40.9416 45.6363 42.0355 45.6363 43.3801V44.1205H28.5148C28.0894 44.1205 27.7446 44.4719 27.7446 44.9053C27.7446 45.3387 28.0894 45.6901 28.5148 45.6901H46.4067C46.8321 45.6901 47.1769 45.3387 47.1769 44.9053V43.3801C47.1769 42.901 47.5594 42.5113 48.0297 42.5113H49.4942C49.9645 42.5113 50.347 42.9011 50.347 43.3801V48.334H50.3471Z" fill="#1E335E"></path>
    <path d="M32.4958 30.2164C32.1904 29.5867 31.4136 29.5867 31.1212 29.5867H27.6406L28.8377 24.582C28.9432 24.1401 29.1628 23.2205 28.4473 22.8732C27.7021 22.5113 27.0915 23.3279 26.6472 23.9224L20.9529 31.4977C20.6666 31.8792 20.1874 32.5177 20.5032 33.1689C20.8108 33.8029 21.5782 33.8029 21.867 33.8029H25.3439L24.1499 38.8067C23.9667 39.5842 24.1174 40.0971 24.5981 40.3311C24.731 40.3957 24.8612 40.4235 24.9874 40.4235C25.6193 40.4235 26.1457 39.7261 26.3412 39.467L32.0323 31.8889C32.3408 31.4782 32.8067 30.8574 32.4958 30.2164ZM26.1258 37.1711L26.8627 34.0827C26.9499 33.7169 27.0262 33.1792 26.6835 32.7347C26.3368 32.2852 25.7871 32.2333 25.4039 32.2333H22.3405L26.8603 26.2205L26.0848 29.4619C26.0155 29.7516 25.8864 30.2911 26.2183 30.7215C26.5535 31.1563 27.0961 31.1563 27.4202 31.1563H30.6428L26.1258 37.1711Z" fill="#DB373C"></path>
    <path d="M39.7351 28.0106H40.6643V28.9602C40.6643 29.3937 41.0091 29.745 41.4345 29.745C41.86 29.745 42.2048 29.3936 42.2048 28.9602V28.0106H43.1367C43.5622 28.0106 43.907 27.6591 43.907 27.2258C43.907 26.7923 43.5622 26.441 43.1367 26.441H42.2048V25.4913C42.2048 25.0579 41.86 24.7065 41.4345 24.7065C41.0091 24.7065 40.6643 25.058 40.6643 25.4913V26.441H39.7351C39.3097 26.441 38.9648 26.7924 38.9648 27.2258C38.9648 27.6591 39.3097 28.0106 39.7351 28.0106Z" fill="#DB373C"></path>
    <path d="M12.2132 26.4412H9.281C8.85555 26.4412 8.51074 26.7926 8.51074 27.226C8.51074 27.6594 8.85555 28.0107 9.281 28.0107H12.2132C12.6386 28.0107 12.9834 27.6593 12.9834 27.226C12.9834 26.7925 12.6386 26.4412 12.2132 26.4412Z" fill="#DB373C"></path>
  </g>
  <defs>
    <clipPath id="clip0_891_67">
      <rect width="53" height="54" fill="white"></rect>
    </clipPath>
  </defs>
</svg>
